<svg width="307" height="177" viewBox="0 0 307 177" fill="none" xmlns="http://www.w3.org/2000/svg">
<path d="M279.97 101.661C279.591 101.165 279.259 100.64 278.927 100.109C272.521 90.0236 244.532 94.8036 244.532 94.8036C241.367 119.118 235.859 116.252 234.839 114.723C233.819 113.194 231.977 98.177 230.759 96.1343C227.239 95.8249 220.046 95.8774 220.046 95.8774C213.104 96.041 206.576 102.157 200.153 112.12C193.73 122.077 182.405 130.505 182.405 130.505C182.405 130.505 185.768 130.814 186.992 138.168C187.744 138.401 190 137.403 191.644 136.598C193.11 135.879 194.745 135.579 196.371 135.728C199.017 135.973 202.823 136.82 205.865 139.703C206.239 140.052 206.637 140.376 207.054 140.671C207.439 140.456 207.655 140.31 207.655 140.31C213.926 137.707 217.598 128.666 217.598 128.666C217.09 127.529 216.793 126.309 216.724 125.065C216.625 123.827 216.642 122.582 216.776 121.347C216.91 120.139 217.004 118.943 217.039 117.74C217.1 116.528 217.047 115.313 216.881 114.11C217.381 115.252 217.666 116.477 217.721 117.723C217.806 118.96 217.781 120.202 217.645 121.435C217.511 122.637 217.435 123.834 217.406 125.042C217.363 126.253 217.427 127.466 217.598 128.666C217.95 131.892 218.712 135.059 219.866 138.092C221.522 138.642 223.231 139.019 224.966 139.218C225.819 139.316 226.678 139.343 227.536 139.3C228.414 139.251 229.29 139.158 230.159 139.02C229.375 139.49 228.512 139.815 227.612 139.977C227.162 140.064 226.706 140.119 226.248 140.14C225.789 140.146 225.33 140.129 224.872 140.088C223.963 139.989 223.069 139.773 222.214 139.446C221.362 139.128 220.568 138.671 219.866 138.092C220.357 139.442 221.008 140.727 221.807 141.921C226.13 142.17 230.367 143.233 234.297 145.055C235.294 145.516 236.209 146.134 237.13 146.59C238.068 147.058 239.05 147.431 240.062 147.704C242.099 148.26 244.198 148.558 246.31 148.591C247.382 148.627 248.402 148.568 249.51 148.533C250.598 148.521 251.686 148.574 252.768 148.691C254.913 148.912 257.052 149.158 259.173 149.531C259.984 149.671 260.788 149.823 261.592 149.981C261.219 149.474 260.899 148.93 260.636 148.358C260.227 147.496 259.92 146.589 259.721 145.656C259.517 144.723 259.395 143.774 259.354 142.819C259.301 141.857 259.338 140.892 259.465 139.936L259.471 139.907L259.482 139.866C259.802 138.831 259.999 137.761 260.071 136.679C260.161 135.583 260.173 134.481 260.106 133.382C260.03 132.282 259.896 131.187 259.704 130.102C259.494 129.034 259.214 127.919 259.063 126.793C258.757 124.547 258.687 122.276 258.853 120.017C258.911 118.89 259.028 117.764 259.197 116.655C259.352 115.542 259.564 114.437 259.832 113.346C259.556 115.565 259.404 117.798 259.377 120.034C259.345 122.254 259.507 124.473 259.861 126.664C259.937 127.213 260.071 127.75 260.182 128.287L260.543 129.944C260.758 131.064 260.9 132.197 260.969 133.335C261.141 135.617 260.878 137.911 260.193 140.094C260.049 140.991 259.975 141.899 259.972 142.808C259.965 143.732 260.037 144.656 260.188 145.568C260.334 146.484 260.568 147.383 260.887 148.253C261.112 148.864 261.395 149.453 261.732 150.01C262.997 150.267 264.25 150.558 265.492 150.903C267.579 151.449 269.586 152.267 271.46 153.337C269.523 152.424 267.484 151.746 265.387 151.317C264.308 151.066 263.222 150.848 262.129 150.663C262.125 150.66 262.121 150.658 262.117 150.658C261.109 150.482 260.094 150.331 259.074 150.196C256.953 149.922 254.825 149.683 252.698 149.514C251.644 149.415 250.586 149.374 249.527 149.391C248.496 149.426 247.365 149.502 246.292 149.467C244.107 149.422 241.937 149.096 239.834 148.498C238.779 148.189 237.756 147.779 236.78 147.272C236.291 147.033 235.813 146.712 235.364 146.45C234.915 146.175 234.466 145.889 233.994 145.656C232.109 144.665 230.124 143.878 228.072 143.31C226.02 142.694 223.926 142.23 221.807 141.921L216.986 142.382C217.135 142.587 217.244 142.819 217.307 143.064C218.548 147.086 216.759 162.838 216.759 162.838C223.643 167.892 261.744 175.707 261.744 175.707C286.305 179.845 286.533 158.006 286.533 158.006C290.927 118.814 282.29 104.673 279.97 101.661ZM249.236 141.611C248.786 141.698 248.33 141.753 247.872 141.775C247.413 141.781 246.954 141.763 246.496 141.722C245.587 141.623 244.693 141.407 243.838 141.08C242.986 140.762 242.192 140.305 241.49 139.726C243.146 140.276 244.855 140.653 246.59 140.852C247.443 140.95 248.302 140.977 249.16 140.934C250.038 140.885 250.914 140.792 251.783 140.654C250.999 141.125 250.136 141.449 249.236 141.611V141.611Z" fill="#FFFDF5"/>
<path d="M230.708 96.1618C230.54 95.9084 230.354 95.668 230.15 95.4428C229.946 95.2212 229.723 95.0189 229.483 94.8383C229.244 94.6618 228.987 94.5124 228.715 94.393C228.454 94.2756 228.175 94.2002 227.89 94.1696L227.981 94.1518C227.396 94.4337 226.778 94.6406 226.141 94.7674C225.494 94.9069 224.828 94.9288 224.174 94.8319C223.494 94.7312 222.854 94.451 222.318 94.0201C221.826 93.5787 221.394 93.0741 221.034 92.5195C220.33 91.4517 219.704 90.3345 219.161 89.1765C218.614 88.0266 218.122 86.864 217.663 85.6696L218.134 85.981C217.592 86.0363 217.043 85.9529 216.541 85.7387C216.249 85.6012 216.002 85.3822 215.831 85.108C215.673 84.843 215.578 84.5448 215.556 84.237C215.528 83.7093 215.603 83.1814 215.776 82.6823C215.928 82.2061 216.128 81.7468 216.374 81.3117C216.835 80.6367 217.051 79.8242 216.987 79.0092C216.95 78.6124 216.841 78.2257 216.665 77.8683L216.347 77.2727C216.237 77.0615 216.131 76.8468 216.031 76.6272C215.825 76.1877 215.661 75.7298 215.541 75.2594C215.409 74.8015 215.303 74.3367 215.222 73.8672C215.121 73.4012 215.089 72.9237 215.031 72.4517C215.012 71.9752 214.983 71.4998 215.008 71.0239C215.048 69.11 215.516 67.2293 216.378 65.5204C216.407 65.4629 216.453 65.4151 216.509 65.3825C216.565 65.3499 216.629 65.334 216.694 65.3364C216.758 65.3389 216.821 65.3597 216.874 65.3965C216.928 65.4333 216.97 65.4844 216.995 65.5441L217 65.557C217.712 67.2019 218.62 68.7542 219.704 70.1801C220.784 71.6199 222.081 72.8826 223.549 73.9229C225.013 74.9656 226.685 75.6784 228.451 76.0123C230.213 76.3376 232.024 76.2891 233.766 75.8697L233.779 75.8669C233.82 75.8576 233.862 75.8601 233.902 75.8743C233.942 75.8884 233.976 75.9136 234.002 75.9468C234.705 76.916 235.195 78.0235 235.439 79.1963C235.699 80.3419 235.832 81.5127 235.835 82.6874C235.841 83.8566 235.758 85.0245 235.586 86.181C235.381 87.2789 235.304 88.3969 235.356 89.5126C235.408 90.5909 235.7 91.644 236.208 92.5958C236.716 93.5127 237.492 94.252 238.432 94.7141C239.39 95.1616 240.448 95.35 241.502 95.2607C242.581 95.1734 243.637 94.9011 244.624 94.4557C244.719 94.4144 244.824 94.3989 244.927 94.4109C245.03 94.4228 245.128 94.4618 245.211 94.5238C245.294 94.5858 245.359 94.6687 245.4 94.764C245.441 94.8594 245.456 94.9639 245.444 95.067L245.443 95.0746C245.015 98.7944 244.349 102.483 243.451 106.118C242.985 107.952 242.373 109.746 241.62 111.483C241.234 112.37 240.759 113.216 240.203 114.007C239.912 114.415 239.583 114.794 239.218 115.138C238.84 115.509 238.396 115.806 237.909 116.012C237.386 116.237 236.809 116.301 236.251 116.195C235.698 116.082 235.189 115.81 234.787 115.414C234.572 115.21 234.401 114.964 234.283 114.692C234.189 114.458 234.11 114.217 234.044 113.973C233.914 113.506 233.815 113.047 233.717 112.586C233.332 110.749 233.068 108.908 232.774 107.071L231.911 101.564C231.763 100.647 231.608 99.7322 231.429 98.823C231.284 97.9128 231.042 97.0207 230.708 96.1617L230.704 96.1535C230.698 96.1398 230.697 96.1242 230.702 96.11C230.707 96.0958 230.718 96.0841 230.731 96.0774C230.745 96.0706 230.76 96.0694 230.775 96.0739C230.789 96.0784 230.801 96.0884 230.808 96.1016C231.214 96.9481 231.52 97.8394 231.718 98.7572C231.949 99.6608 232.156 100.569 232.356 101.479C232.76 103.297 233.101 105.126 233.466 106.948C233.824 108.771 234.196 110.594 234.605 112.388C234.711 112.834 234.82 113.282 234.951 113.707C235.01 113.91 235.082 114.11 235.164 114.305C235.236 114.458 235.339 114.595 235.467 114.707C235.731 114.963 236.067 115.133 236.431 115.194C236.794 115.254 237.167 115.202 237.5 115.044C238.235 114.651 238.852 114.07 239.288 113.361C239.778 112.615 240.198 111.826 240.545 111.004C241.251 109.32 241.821 107.582 242.25 105.806C243.116 102.217 243.791 98.5833 244.273 94.9219L245.091 95.5408C243.974 96.025 242.783 96.3132 241.568 96.3926C240.322 96.4778 239.074 96.2346 237.95 95.6872C236.821 95.1177 235.897 94.2097 235.306 93.0897C234.751 91.9961 234.445 90.7924 234.412 89.5659C234.382 88.3834 234.492 87.2014 234.741 86.045C234.948 84.9349 235.071 83.8105 235.108 82.6817C235.149 81.557 235.062 80.4313 234.85 79.3262C234.659 78.2359 234.245 77.1969 233.635 76.2737L233.871 76.3506C232.06 76.7263 230.193 76.742 228.376 76.3969C227.471 76.22 226.589 75.9399 225.748 75.5621C224.905 75.1948 224.099 74.747 223.342 74.2249C221.833 73.1733 220.483 71.9103 219.333 70.4745C218.156 69.0516 217.158 67.4901 216.36 65.8247L216.983 65.8613C216.251 67.4864 215.888 69.2532 215.919 71.0354C215.922 71.9245 216.015 72.811 216.196 73.6815C216.28 74.1176 216.389 74.5487 216.521 74.9728C216.637 75.3924 216.789 75.8014 216.974 76.1956C217.065 76.3947 217.164 76.592 217.267 76.7884C217.371 76.99 217.477 77.1621 217.601 77.4095C217.834 77.8791 217.98 78.3874 218.03 78.9093C218.109 79.9471 217.834 80.9811 217.25 81.8419C216.819 82.5377 216.577 83.3338 216.548 84.1518C216.545 84.2992 216.585 84.4444 216.661 84.5705C216.737 84.6967 216.847 84.7988 216.979 84.8651C217.327 85.0103 217.706 85.0686 218.082 85.0349L218.088 85.0346C218.189 85.0302 218.288 85.0581 218.372 85.1142C218.456 85.1704 218.519 85.2518 218.553 85.3467C218.97 86.5124 219.441 87.6778 219.943 88.8162C220.427 89.9579 220.992 91.0633 221.634 92.1238C221.94 92.6383 222.312 93.1106 222.741 93.5289C223.178 93.9056 223.708 94.1593 224.276 94.264C225.476 94.4549 226.705 94.3014 227.822 93.8214L227.846 93.8117C227.867 93.8032 227.89 93.8003 227.913 93.8034C228.239 93.8535 228.555 93.957 228.847 94.1098C229.131 94.255 229.398 94.4315 229.643 94.6361C229.881 94.8427 230.099 95.072 230.293 95.3209C230.484 95.5678 230.656 95.8288 230.808 96.1016C230.812 96.1083 230.814 96.1156 230.815 96.1232C230.816 96.1308 230.816 96.1385 230.814 96.1459C230.812 96.1533 230.808 96.1603 230.804 96.1663C230.799 96.1724 230.793 96.1775 230.787 96.1813C230.773 96.1883 230.758 96.1901 230.744 96.1865C230.729 96.1829 230.716 96.1741 230.708 96.1618V96.1618Z" fill="#FFFDF5"/>
<path d="M216.913 85.3704C216.794 86.2987 216.67 87.2194 216.573 88.1416C216.482 89.0641 216.393 89.9845 216.365 90.9046C216.32 91.8195 216.358 92.7365 216.478 93.6444C216.538 94.0941 216.658 94.5336 216.837 94.9506C217.004 95.3787 217.282 95.7542 217.643 96.0382C217.216 95.8182 216.864 95.4763 216.631 95.0558C216.4 94.6347 216.229 94.1834 216.122 93.7149C215.923 92.7867 215.846 91.8361 215.894 90.8878C215.932 89.9483 216.039 89.0129 216.215 88.0893C216.38 87.1668 216.613 86.2579 216.913 85.3704V85.3704Z" fill="#FFFDF5"/>
<path d="M216.632 65.7246C216.512 65.515 216.436 65.2831 216.409 65.043C216.381 64.8029 216.403 64.5598 216.472 64.3284L216.568 63.981L216.719 63.659C216.771 63.5525 216.819 63.4417 216.876 63.338L217.074 63.0458C217.337 62.6561 217.635 62.2913 217.964 61.9561C218.298 61.6316 218.653 61.3326 219.002 61.0218C220.471 59.9087 222.046 58.9411 223.702 58.1325C224.529 57.7397 225.365 57.3639 226.2 56.9904C227.045 56.6431 227.895 56.3078 228.747 55.9783C229.601 55.6652 230.467 55.3949 231.33 55.1082C231.766 54.9768 232.186 54.8277 232.653 54.6986C233.105 54.577 233.563 54.4794 234.025 54.4062C235.861 54.1037 237.74 54.1803 239.545 54.6313C241.343 55.085 243.005 55.9668 244.39 57.2016C245.756 58.4554 246.882 59.9489 247.712 61.6084C248.545 63.261 249.182 65.0057 249.609 66.8068L249.618 66.8553C250.068 69.3271 250.86 71.7241 251.971 73.9769C252.519 75.101 253.154 76.1805 253.87 77.2059C254.574 78.2332 255.369 79.1952 256.245 80.0802L257.631 81.3657C258.13 81.8025 258.599 82.2725 259.034 82.7725C259.926 83.7587 260.661 84.8758 261.215 86.0848C262.363 88.4737 262.65 91.1868 262.027 93.7635C262.024 93.7779 262.015 93.7902 262.002 93.7981C261.989 93.8059 261.974 93.8087 261.96 93.8058C261.945 93.8029 261.932 93.7945 261.924 93.7824C261.915 93.7703 261.912 93.7554 261.914 93.7407L261.915 93.7342C262.078 92.4761 262.028 91.1992 261.765 89.9581C261.527 88.7287 261.095 87.545 260.485 86.4515C260.185 85.908 259.852 85.3838 259.487 84.8821C259.113 84.3874 258.706 83.9177 258.271 83.4758C257.846 83.0236 257.39 82.6009 256.908 82.2106L255.427 80.9268C253.525 79.0872 251.98 76.9096 250.873 74.5051C250.321 73.3145 249.855 72.0863 249.477 70.8297C249.084 69.5723 248.799 68.284 248.623 66.9784L248.632 67.0265C248.283 65.2742 247.763 63.5606 247.078 61.9106C246.393 60.258 245.387 58.7579 244.119 57.4971C243.467 56.8875 242.741 56.3622 241.958 55.9335C241.169 55.5143 240.326 55.2073 239.453 55.0211C237.705 54.6721 235.901 54.7151 234.171 55.1471C233.742 55.2463 233.319 55.368 232.904 55.5118C232.504 55.6528 232.079 55.8363 231.657 55.9971L229.111 56.951C228.275 57.2881 227.438 57.6195 226.595 57.939L224.117 59.0055C222.485 59.7385 220.912 60.5959 219.411 61.57C219.06 61.8373 218.697 62.0964 218.357 62.3779C218.023 62.6628 217.712 62.9734 217.427 63.3068L217.214 63.5577C217.152 63.6464 217.1 63.7405 217.042 63.8322L216.872 64.1109L216.754 64.4103C216.586 64.8071 216.576 65.2535 216.727 65.6572L216.733 65.6694C216.739 65.6827 216.74 65.6978 216.735 65.7116C216.731 65.7254 216.721 65.737 216.708 65.744C216.696 65.751 216.681 65.7529 216.666 65.7493C216.652 65.7457 216.64 65.7369 216.632 65.7246V65.7246Z" fill="#FFFDF5"/>
<path d="M218.074 77.0012C218.881 76.4207 219.76 75.9501 220.69 75.6017C221.155 75.4227 221.633 75.2791 222.119 75.1722C222.609 75.048 223.118 75.0245 223.617 75.1031C223.141 75.2062 222.673 75.3479 222.22 75.5267L220.858 76.0426C219.947 76.3853 219.038 76.7386 218.074 77.0012Z" fill="#FFFDF5"/>
<path d="M220.624 80.2635C220.808 80.2571 220.982 80.1797 221.109 80.0475C221.237 79.9153 221.308 79.7387 221.308 79.5549C221.308 79.3712 221.237 79.1946 221.109 79.0624C220.982 78.9302 220.808 78.8528 220.624 78.8464C220.441 78.8528 220.267 78.9302 220.14 79.0624C220.012 79.1946 219.941 79.3712 219.941 79.5549C219.941 79.7387 220.012 79.9153 220.14 80.0475C220.267 80.1797 220.441 80.2571 220.624 80.2635Z" fill="#FFFDF5"/>
<path d="M219.483 88.8469C219.838 88.858 220.193 88.8481 220.547 88.8174C220.892 88.7859 221.232 88.7442 221.569 88.6797C221.906 88.6141 222.242 88.5387 222.579 88.4462C222.917 88.355 223.257 88.2544 223.617 88.1641C223.349 88.419 223.042 88.6306 222.709 88.7912C222.375 88.9543 222.02 89.0729 221.655 89.144C220.919 89.3029 220.15 89.1978 219.483 88.8469V88.8469Z" fill="#FFFDF5"/>
<path d="M216.858 160.745C215.105 160.099 213.303 159.596 211.47 159.241C209.665 158.873 207.811 158.813 205.986 159.066L205.314 159.179L204.658 159.358C204.223 159.479 203.795 159.627 203.377 159.799C202.542 160.159 201.741 160.595 200.985 161.1C200.214 161.606 199.483 162.186 198.622 162.686C197.76 163.17 196.833 163.527 195.869 163.745C194.912 163.972 193.928 164.071 192.945 164.04C191.915 164.041 190.9 163.795 189.985 163.321C189.732 163.167 189.507 162.972 189.318 162.743C189.149 162.536 189.045 162.384 188.897 162.214C188.62 161.894 188.298 161.615 187.943 161.385C187.161 160.93 186.336 160.555 185.479 160.265C184.555 159.971 183.668 159.569 182.839 159.066C182.418 158.781 182.049 158.428 181.746 158.021C181.597 157.828 181.463 157.645 181.32 157.475C181.25 157.387 181.176 157.312 181.101 157.226C181.019 157.129 180.924 157.031 180.854 156.933C180.297 156.16 179.786 155.355 179.324 154.522C178.855 153.703 178.389 152.887 177.942 152.056L178.079 152.157L176.879 151.895C176.464 151.824 176.057 151.713 175.664 151.562C174.876 151.232 174.184 150.708 173.652 150.038C173.362 149.703 173.162 149.298 173.073 148.863C173.039 148.634 173.053 148.4 173.116 148.177C173.178 147.954 173.287 147.747 173.435 147.569C173.718 147.234 174.065 146.959 174.455 146.76C174.845 146.56 175.271 146.44 175.707 146.406C176.13 146.382 176.553 146.399 176.972 146.458L178.194 146.546C179.008 146.598 179.824 146.636 180.639 146.661C182.27 146.711 183.902 146.7 185.522 146.598C187.132 146.515 188.731 146.29 190.301 145.928C191.061 145.747 191.796 145.478 192.492 145.124C192.819 144.954 193.123 144.743 193.396 144.496C193.671 144.244 193.921 143.965 194.142 143.664C194.327 143.455 194.442 143.193 194.472 142.916C194.462 142.856 194.453 142.832 194.376 142.766C194.261 142.693 194.136 142.637 194.005 142.601C193.276 142.453 192.526 142.443 191.794 142.571C191.419 142.623 191.049 142.705 190.687 142.814C190.54 142.858 190.397 142.918 190.263 142.993L190.137 143.075C190.082 143.113 190.027 143.144 189.971 143.175C189.863 143.236 189.751 143.29 189.636 143.338C189.209 143.508 188.762 143.625 188.305 143.684C188.086 143.715 187.868 143.737 187.651 143.752C187.399 143.775 187.146 143.765 186.896 143.724C186.369 143.635 185.881 143.388 185.496 143.016C185.129 142.648 184.864 142.191 184.724 141.691C184.48 140.731 184.609 139.715 185.084 138.847C185.321 138.363 185.694 137.959 186.157 137.686C186.312 137.605 186.48 137.55 186.653 137.526C186.754 137.512 186.857 137.512 186.958 137.523C187.011 137.529 187.063 137.539 187.115 137.552L187.18 137.569L187.188 137.568C187.307 137.58 187.427 137.572 187.544 137.546C188.294 137.373 189.025 137.127 189.726 136.811C190.095 136.654 190.462 136.49 190.828 136.318L191.376 136.058C191.572 135.964 191.772 135.876 191.975 135.793C192.788 135.467 193.641 135.256 194.512 135.168C195.373 135.09 196.24 135.12 197.093 135.257C197.927 135.371 198.753 135.539 199.566 135.759C201.203 136.191 202.76 136.885 204.175 137.814C204.878 138.285 205.535 138.82 206.139 139.412C206.722 139.95 207.346 140.442 208.005 140.883C210.815 142.524 214.059 143.264 217.301 143.006L217.306 143.005C217.321 143.005 217.336 143.009 217.348 143.019C217.359 143.029 217.366 143.043 217.368 143.058C217.369 143.073 217.365 143.088 217.355 143.1C217.346 143.112 217.333 143.119 217.318 143.121C214.003 143.631 210.612 143.052 207.653 141.47C206.929 141.032 206.241 140.538 205.595 139.991C203.806 138.399 201.644 137.286 199.31 136.754C198.535 136.568 197.75 136.431 196.958 136.344C196.189 136.24 195.41 136.233 194.639 136.324C193.878 136.413 193.134 136.607 192.426 136.9C192.251 136.975 192.078 137.054 191.906 137.139L191.346 137.413C190.972 137.593 190.594 137.768 190.211 137.938C189.424 138.308 188.598 138.59 187.749 138.778C187.464 138.838 187.17 138.839 186.885 138.78L186.817 138.764C186.795 138.758 186.813 138.764 186.809 138.762L186.815 138.763C186.818 138.764 186.819 138.763 186.814 138.763C186.784 138.769 186.755 138.78 186.729 138.795C186.492 138.956 186.302 139.177 186.18 139.436C185.857 140.021 185.763 140.705 185.917 141.356C185.997 141.65 186.147 141.92 186.354 142.143C186.56 142.347 186.823 142.485 187.108 142.537C187.263 142.565 187.421 142.572 187.578 142.558C187.769 142.547 187.959 142.531 188.146 142.507C188.503 142.468 188.855 142.383 189.192 142.257C189.267 142.228 189.34 142.194 189.411 142.156C189.445 142.139 189.478 142.12 189.509 142.099L189.642 142.015C189.864 141.887 190.1 141.787 190.346 141.717C190.77 141.594 191.203 141.505 191.641 141.451C192.529 141.311 193.436 141.345 194.311 141.552C194.574 141.628 194.822 141.75 195.043 141.913C195.181 142.02 195.296 142.153 195.381 142.306C195.466 142.458 195.52 142.626 195.539 142.8C195.562 143.099 195.504 143.399 195.37 143.668C195.268 143.889 195.142 144.098 194.992 144.289C194.722 144.645 194.416 144.972 194.077 145.263C193.734 145.557 193.355 145.807 192.949 146.006C192.174 146.376 191.357 146.653 190.516 146.83C188.883 147.167 187.221 147.342 185.554 147.353C183.901 147.388 182.254 147.332 180.612 147.227C179.792 147.173 178.973 147.105 178.155 147.024L176.929 146.892C176.537 146.831 176.14 146.809 175.744 146.825C175.362 146.849 174.988 146.949 174.643 147.118C174.299 147.287 173.992 147.522 173.738 147.81C173.621 147.945 173.533 148.105 173.482 148.277C173.43 148.449 173.416 148.63 173.44 148.808C173.516 149.18 173.685 149.527 173.931 149.816C174.42 150.44 175.065 150.925 175.8 151.22C176.174 151.359 176.561 151.46 176.955 151.523L178.161 151.758C178.188 151.764 178.214 151.775 178.237 151.791C178.26 151.807 178.279 151.828 178.294 151.852L178.298 151.859C179.2 153.489 180.214 155.054 181.331 156.544C181.402 156.634 181.477 156.7 181.548 156.78C181.632 156.867 181.726 156.956 181.806 157.048C181.974 157.23 182.125 157.42 182.272 157.593C182.544 157.93 182.872 158.219 183.241 158.446C184.039 158.879 184.886 159.218 185.763 159.455C186.699 159.724 187.602 160.096 188.457 160.562C188.897 160.832 189.297 161.164 189.645 161.546C189.81 161.725 189.981 161.955 190.114 162.107C190.231 162.235 190.366 162.345 190.516 162.434C191.283 162.809 192.127 163.001 192.98 162.993C193.875 163.021 194.769 162.937 195.643 162.744C196.514 162.558 197.353 162.246 198.135 161.818C198.901 161.381 199.67 160.822 200.477 160.312C201.294 159.793 202.157 159.35 203.055 158.989C203.512 158.822 203.978 158.682 204.451 158.57L205.161 158.409L205.881 158.316C207.789 158.122 209.717 158.266 211.575 158.742C213.406 159.206 215.189 159.841 216.902 160.637C216.916 160.643 216.927 160.654 216.933 160.668C216.939 160.682 216.939 160.698 216.933 160.712C216.928 160.726 216.918 160.737 216.904 160.743C216.891 160.75 216.875 160.751 216.861 160.746L216.858 160.745Z" fill="#FFFDF5"/>
<path d="M178.118 151.957C179.253 151.86 180.388 151.814 181.523 151.776C182.658 151.733 183.793 151.727 184.928 151.721L186.631 151.734C187.216 151.733 187.798 151.814 188.361 151.973C189.439 152.356 190.49 152.812 191.507 153.336C190.96 153.179 190.423 152.993 189.88 152.823C189.356 152.621 188.82 152.455 188.275 152.325C187.734 152.214 187.182 152.165 186.631 152.181L184.928 152.193C183.793 152.187 182.658 152.181 181.523 152.138C180.388 152.1 179.253 152.055 178.118 151.957Z" fill="#FFFDF5"/>
<path d="M178.695 152.974C179.458 153.563 180.188 154.191 180.912 154.826C181.287 155.131 181.619 155.49 181.984 155.744C182.352 156.009 182.765 156.206 183.202 156.326C183.624 156.453 184.111 156.472 184.592 156.562C185.071 156.641 185.545 156.745 186.014 156.873C186.972 157.074 187.863 157.518 188.6 158.163C188.204 157.899 187.769 157.698 187.31 157.568C186.859 157.424 186.398 157.31 185.932 157.227C185.464 157.146 184.997 157.061 184.525 157.004C184.038 156.957 183.553 156.883 183.075 156.781C182.585 156.641 182.126 156.411 181.72 156.103C181.346 155.787 180.992 155.447 180.661 155.086C179.991 154.399 179.326 153.706 178.695 152.974Z" fill="#FFFDF5"/>
<path d="M167.969 137.863C167.593 137.1 167.133 136.382 166.599 135.72L166.689 135.778C165.795 135.638 164.961 135.237 164.292 134.627C163.943 134.274 163.728 133.81 163.685 133.315C163.663 133.069 163.674 132.822 163.717 132.579C163.777 132.348 163.849 132.12 163.934 131.897C164.342 131.027 165.06 130.341 165.948 129.974C166.392 129.763 166.876 129.647 167.368 129.634C167.897 129.631 168.414 129.793 168.847 130.099L168.08 130.344C168.197 130.027 168.358 129.726 168.557 129.452C168.746 129.184 168.967 128.94 169.215 128.725C169.717 128.296 170.312 127.991 170.953 127.835C171.572 127.686 172.213 127.653 172.844 127.737L173.295 127.795C173.471 127.821 173.643 127.863 173.811 127.923C174.122 128.029 174.42 128.17 174.7 128.343C175.756 129.027 176.601 129.992 177.139 131.13C177.667 132.208 178.052 133.35 178.283 134.528L177.183 134.595C177.278 133.846 177.504 133.119 177.849 132.447C178.193 131.755 178.706 131.161 179.339 130.719C179.987 130.295 180.741 130.061 181.515 130.044C181.7 130.037 181.885 130.042 182.069 130.061L182.344 130.078C182.452 130.083 182.559 130.1 182.663 130.13C183.035 130.241 183.386 130.413 183.702 130.638C184.838 131.531 185.677 132.747 186.11 134.126C186.567 135.431 186.864 136.788 186.993 138.165C186.69 136.837 186.256 135.543 185.697 134.301C185.188 133.09 184.35 132.046 183.279 131.288C183.025 131.132 182.75 131.015 182.463 130.94C182.401 130.925 182.338 130.919 182.275 130.923L182.037 130.921C181.278 130.882 180.527 131.097 179.903 131.532C179.435 131.921 179.051 132.402 178.774 132.945C178.498 133.487 178.334 134.08 178.293 134.688L178.292 134.692C178.278 134.824 178.218 134.946 178.122 135.037C178.026 135.128 177.901 135.183 177.769 135.19C177.637 135.198 177.507 135.158 177.402 135.079C177.296 134.999 177.222 134.884 177.193 134.755C176.97 133.682 176.609 132.642 176.119 131.662C175.662 130.719 174.966 129.912 174.101 129.322C173.895 129.191 173.675 129.083 173.445 129.002C173.343 128.963 173.237 128.935 173.129 128.918L172.728 128.862C172.222 128.788 171.707 128.805 171.206 128.911C170.726 129.011 170.277 129.223 169.894 129.529C169.52 129.834 169.223 130.223 169.027 130.664L169.004 130.72C168.953 130.837 168.859 130.93 168.74 130.978C168.621 131.026 168.489 131.025 168.371 130.975C168.331 130.958 168.294 130.936 168.26 130.909C167.974 130.714 167.64 130.6 167.294 130.578C166.948 130.556 166.603 130.628 166.294 130.785C165.574 131.039 164.971 131.547 164.596 132.213C164.402 132.524 164.308 132.888 164.326 133.256C164.345 133.623 164.475 133.975 164.699 134.266C165.251 134.862 165.963 135.286 166.749 135.489L166.768 135.495C166.797 135.504 166.822 135.522 166.839 135.548C167.319 136.264 167.699 137.043 167.969 137.863V137.863Z" fill="#FFFDF5"/>
<path d="M164.036 137.467C163.724 136.822 163.169 136.328 162.493 136.092C161.837 135.904 161.136 135.957 160.515 136.241C160.217 136.333 159.948 136.505 159.738 136.737C159.529 136.969 159.386 137.253 159.324 137.56C159.295 138.203 159.47 138.837 159.823 139.375C160.178 139.968 160.601 140.518 161.082 141.014C161.199 141.143 161.322 141.26 161.444 141.38L161.839 141.726C162.121 141.97 162.394 142.219 162.664 142.469C163.745 143.471 164.755 144.523 165.763 145.591C165.839 145.671 165.889 145.772 165.906 145.881L165.912 145.918C165.978 146.257 166.089 146.587 166.241 146.897C166.56 147.564 167.014 148.157 167.574 148.64C167.858 148.897 168.142 149.07 168.522 149.362C169.219 149.91 169.807 150.583 170.255 151.348C170.706 152.099 171.041 152.915 171.246 153.767L171.22 153.684C171.486 154.42 171.984 155.05 172.64 155.476C173.341 155.886 174.136 156.104 174.947 156.111C175.798 156.129 176.647 156.041 177.476 155.848C178.324 155.663 179.156 155.411 179.963 155.092C179.205 155.538 178.404 155.906 177.572 156.191C176.727 156.487 175.845 156.668 174.952 156.727C174.012 156.795 173.072 156.608 172.23 156.185C171.805 155.948 171.423 155.641 171.1 155.276C170.788 154.908 170.528 154.5 170.327 154.061L170.316 154.034L170.3 153.977C170.085 153.247 169.766 152.55 169.355 151.909C168.947 151.276 168.434 150.717 167.838 150.257C167.57 150.052 167.155 149.794 166.83 149.505C166.488 149.217 166.177 148.894 165.901 148.541C165.621 148.187 165.382 147.802 165.189 147.393C164.985 146.966 164.844 146.512 164.77 146.045L164.919 146.372C163.943 145.309 162.936 144.261 161.926 143.237C161.671 142.984 161.415 142.733 161.154 142.491L160.742 142.103C160.608 141.963 160.473 141.824 160.35 141.679C159.846 141.102 159.413 140.466 159.06 139.785C158.648 139.071 158.493 138.237 158.619 137.422C158.664 137.208 158.745 137.002 158.857 136.814C158.978 136.637 159.114 136.471 159.265 136.318L159.772 135.969L160.315 135.746C161.059 135.482 161.873 135.506 162.6 135.812C162.941 135.974 163.244 136.204 163.491 136.489C163.738 136.774 163.923 137.107 164.036 137.467V137.467Z" fill="#FFFDF5"/>
<path d="M165.341 145.981C165.163 145.335 165.176 144.652 165.377 144.013C165.473 143.679 165.644 143.372 165.877 143.114C165.992 142.983 166.132 142.876 166.291 142.803C166.449 142.729 166.621 142.69 166.795 142.687C166.536 142.849 166.321 143.073 166.169 143.339C166.022 143.596 165.907 143.87 165.826 144.155C165.64 144.733 165.526 145.344 165.341 145.981Z" fill="#FFFDF5"/>
<path d="M166.718 135.635C167.119 135.536 167.446 135.468 167.794 135.399C168.157 135.318 168.527 135.27 168.899 135.256C168.646 135.576 168.285 135.792 167.883 135.863C167.684 135.91 167.477 135.914 167.276 135.874C167.075 135.835 166.885 135.754 166.718 135.635V135.635Z" fill="#FFFDF5"/>
<path d="M168.846 130.503C168.839 131.01 168.905 131.515 169.043 132.003C169.165 132.49 169.425 132.932 169.791 133.275C169.984 133.438 170.209 133.56 170.451 133.634C170.693 133.707 170.948 133.73 171.199 133.701C171.461 133.68 171.72 133.637 171.974 133.573L172.724 133.302L171.997 133.642C171.742 133.732 171.48 133.8 171.214 133.846C170.938 133.901 170.653 133.899 170.378 133.841C170.103 133.782 169.842 133.668 169.612 133.506C169.161 133.156 168.82 132.684 168.63 132.146C168.428 131.621 168.304 131.069 168.263 130.508C168.259 130.469 168.264 130.43 168.275 130.393C168.287 130.357 168.306 130.322 168.331 130.293C168.356 130.263 168.386 130.239 168.421 130.221C168.455 130.203 168.493 130.193 168.531 130.19C168.57 130.187 168.608 130.192 168.645 130.204C168.682 130.216 168.716 130.235 168.745 130.26C168.774 130.286 168.798 130.317 168.815 130.351C168.833 130.386 168.843 130.424 168.845 130.463C168.846 130.472 168.846 130.48 168.846 130.489L168.846 130.503Z" fill="#FFFDF5"/>
<path d="M171.194 133.8C171.599 134.417 171.956 135.064 172.263 135.735C172.607 136.41 172.842 137.136 172.96 137.884C172.993 138.024 173.059 138.153 173.153 138.261C173.247 138.369 173.366 138.453 173.499 138.505C173.804 138.658 174.131 138.763 174.468 138.815C174.812 138.879 175.165 138.882 175.511 138.824C175.868 138.794 176.199 138.627 176.435 138.358C176.346 138.528 176.223 138.676 176.073 138.795C175.924 138.914 175.751 139.001 175.566 139.049C175.198 139.158 174.813 139.202 174.43 139.177C174.038 139.159 173.654 139.067 173.297 138.904C173.089 138.822 172.906 138.688 172.764 138.515C172.623 138.342 172.528 138.136 172.49 137.916C172.372 137.217 172.184 136.531 171.929 135.871L171.194 133.8Z" fill="#FFFDF5"/>
<path d="M178.311 134.548C178.44 135.459 178.729 136.341 179.165 137.151C179.274 137.345 179.398 137.53 179.535 137.705C179.711 137.915 179.865 138.141 179.998 138.38C180.132 138.622 180.239 138.878 180.317 139.143C180.397 139.423 180.435 139.655 180.49 139.886C180.518 140.092 180.575 140.293 180.658 140.484C180.772 140.655 180.915 140.805 181.082 140.926C181.247 141.055 181.435 141.15 181.636 141.206C181.838 141.261 182.048 141.276 182.255 141.25C182.692 141.159 183.085 140.922 183.368 140.577C183.688 140.223 183.959 139.828 184.177 139.403L184.165 139.441C184.31 138.754 184.407 138.057 184.455 137.357C184.518 136.653 184.471 135.944 184.316 135.256C184.522 135.938 184.621 136.648 184.608 137.361C184.612 138.076 184.564 138.79 184.467 139.498C184.466 139.508 184.463 139.519 184.458 139.529L184.455 139.536C184.255 140.006 183.995 140.448 183.68 140.851C183.356 141.296 182.891 141.617 182.36 141.762C182.081 141.82 181.793 141.823 181.513 141.769C181.232 141.715 180.966 141.606 180.728 141.448C180.483 141.295 180.268 141.099 180.093 140.869C179.998 140.742 179.928 140.597 179.888 140.443L179.779 140.079C179.681 139.631 179.51 139.203 179.272 138.811C179.151 138.627 179.013 138.454 178.86 138.296C178.676 138.096 178.508 137.882 178.358 137.656C177.786 136.763 177.381 135.774 177.161 134.737C177.144 134.663 177.141 134.585 177.154 134.509C177.167 134.434 177.194 134.361 177.235 134.296C177.276 134.231 177.329 134.175 177.391 134.13C177.454 134.086 177.524 134.054 177.599 134.037C177.674 134.02 177.751 134.017 177.826 134.03C177.902 134.043 177.974 134.07 178.039 134.111C178.104 134.152 178.161 134.205 178.205 134.267C178.249 134.33 178.281 134.401 178.298 134.475C178.302 134.489 178.304 134.503 178.306 134.517L178.311 134.548Z" fill="#FFFDF5"/>
<path d="M177.235 144.775C177.259 144.775 177.276 144.78 177.299 144.78L177.352 144.815L177.235 144.775Z" fill="#FFFDF5"/>
<path d="M189.061 143.987C179.048 142.463 169.612 138.576 167.268 137.567C166.863 137.389 166.428 137.284 165.986 137.257C163.853 137.146 163.119 137.841 162.92 138.559C162.831 138.905 162.857 139.272 162.992 139.603C163.128 139.934 163.366 140.213 163.672 140.397L174.088 146.957L174.094 146.952C174.618 146.32 175.226 145.762 175.901 145.294C175.654 145.812 175.351 146.302 174.997 146.753C175.967 146.486 176.991 146.491 177.958 146.765C190.017 147.909 193.048 145.387 193.048 145.387C191.754 144.179 189.061 143.987 189.061 143.987ZM180.266 142.989L182.714 144.775L177.101 143.934L172.048 140.543L180.266 142.989ZM183.414 146.018C181.327 145.825 179.246 145.586 177.165 145.352C177.125 145.345 177.085 145.331 177.049 145.311C175.125 144.15 173.208 142.977 171.308 141.775L168.457 139.96C167.525 139.335 166.575 138.734 165.648 138.092C166.645 138.617 167.624 139.172 168.609 139.709L171.541 141.384C173.476 142.487 175.388 143.631 177.299 144.78C179.351 145.031 181.414 145.288 183.466 145.58C185.535 145.872 187.61 146.175 189.673 146.537C187.581 146.409 185.494 146.216 183.414 146.018H183.414Z" fill="#FFFDF5"/>
<path d="M177.352 144.815L177.235 144.775C177.259 144.775 177.276 144.78 177.299 144.78L177.352 144.815Z" fill="white"/>
<path d="M106.348 61.0926C106.348 61.0926 104.851 60.1935 103.454 61.792C103.454 61.792 100.96 58.243 90.3835 61.3163C90.3835 61.3163 91.7803 63.99 92.7781 63.99C93.7759 63.99 90.8824 68.5858 88.1884 68.386C88.1884 68.386 83.5987 75.0799 87.0909 81.574C90.5328 87.9746 93.0055 90.0079 96.4195 85.8561C96.5242 85.7273 96.641 85.6089 96.7684 85.5025C97.7502 84.6917 102.097 81.3207 103.637 83.8343C103.965 84.3928 104.059 85.0585 103.898 85.6861C103.195 88.635 99.9072 99.4964 90.3835 95.1616C90.3835 95.1616 79.2848 90.9941 81.9026 81.1211C82.1825 80.1169 82.5885 79.1524 83.1108 78.2505C83.6143 77.3291 83.9246 76.3145 84.0227 75.2688C84.1208 74.2232 84.0046 73.1685 83.6812 72.1693C83.28 70.745 82.3749 69.5154 81.1349 68.7102C79.9327 67.9593 78.3478 67.6236 77.1473 69.7233C76.6504 70.5968 76.3885 71.5845 76.3872 72.5898C76.3849 73.5099 76.5558 74.6383 77.3129 75.1798L76.3871 76.9782C75.8837 75.9524 75.2399 75.0019 74.4743 74.1542C73.1923 72.854 72.3687 71.1706 72.1285 69.3593C71.7895 66.486 72.1976 62.1958 75.6167 57.1962C75.6167 57.1962 80.2064 48.0046 88.7871 48.2044C97.3678 48.4042 104.751 50.7021 106.348 61.0926Z" fill="#FFFDF5"/>
<path d="M91.98 73.0815C93.4704 72.7402 95.0019 72.6139 96.528 72.7063C97.2967 72.7446 98.0596 72.8605 98.8051 73.0522C99.5658 73.2156 100.273 73.5694 100.86 74.0806C100.182 73.7654 99.4582 73.5612 98.7156 73.4759C97.9822 73.3703 97.242 73.2935 96.4954 73.26C95.0035 73.1674 93.5036 73.1603 91.98 73.0815Z" fill="#FFFDF5"/>
<path d="M106.348 72.939C105.802 73.1051 105.297 73.3837 104.865 73.757C104.661 73.9261 104.494 74.1365 104.376 74.3745C104.258 74.6126 104.191 74.8728 104.181 75.1383C104.221 75.683 104.363 76.2151 104.601 76.7068L105.253 78.313C105.74 79.3997 106.023 80.5669 106.088 81.7562C106.087 82.0695 106.029 82.3801 105.918 82.673C105.799 82.9695 105.604 83.2294 105.352 83.4263C104.841 83.7484 104.239 83.8919 103.638 83.8343C104.201 83.7862 104.737 83.5714 105.178 83.2172C105.359 83.0239 105.496 82.7932 105.578 82.5414C105.661 82.2896 105.687 82.0227 105.655 81.7597C105.612 81.2034 105.499 80.6547 105.32 80.1266C105.152 79.5857 104.951 79.0498 104.738 78.5157C104.533 77.9778 104.311 77.4429 104.111 76.8921C104.016 76.6139 103.919 76.3366 103.844 76.0434C103.751 75.7402 103.719 75.4214 103.751 75.1058C103.784 74.7919 103.887 74.4893 104.05 74.2195C104.214 73.9497 104.435 73.7194 104.698 73.545C105.192 73.2142 105.757 73.0064 106.348 72.939V72.939Z" fill="#FFFDF5"/>
<path d="M106.348 61.0925C106.535 62.2124 106.674 63.3383 106.765 64.4702C106.869 65.6003 106.933 66.7338 106.957 67.8706C106.975 69.0072 106.958 70.146 106.869 71.2856C106.817 72.4473 106.558 73.5902 106.104 74.6605C106.098 74.6738 106.089 74.6861 106.079 74.697C105.729 75.0745 105.4 75.4715 105.095 75.886C104.943 76.0936 104.808 76.313 104.691 76.5421C104.561 76.7651 104.509 77.0252 104.543 77.2811C104.463 77.0236 104.478 76.7459 104.584 76.4982C104.676 76.2482 104.787 76.006 104.918 75.7739C105.178 75.3112 105.48 74.8727 105.818 74.4635L105.793 74.4999C105.986 73.9887 106.115 73.4554 106.176 72.9123C106.263 72.3644 106.298 71.8048 106.339 71.2473C106.405 70.128 106.416 69.0021 106.423 67.8756C106.423 65.6207 106.373 63.3617 106.348 61.0925Z" fill="#FFFDF5"/>
<path d="M100.361 80.6748C100.256 80.8917 100.171 81.1178 100.107 81.3504C100.042 81.5652 100.028 81.7921 100.066 82.0134C100.097 82.2326 100.192 82.4375 100.34 82.602C100.497 82.7835 100.671 82.9492 100.86 83.0967C100.739 83.0608 100.621 83.0182 100.504 82.969C100.391 82.9067 100.285 82.8333 100.187 82.7497C99.9807 82.5712 99.8418 82.3278 99.7926 82.0595C99.7577 81.7938 99.7973 81.5236 99.9072 81.2792C100.01 81.0452 100.165 80.8383 100.361 80.6748V80.6748Z" fill="#FFFDF5"/>
<path d="M77.313 75.1797C77.6583 75.6137 77.9339 76.0991 78.1296 76.6183C78.2346 76.8833 78.3105 77.1589 78.356 77.4403C78.3805 77.5878 78.3902 77.7374 78.3851 77.8869L78.3822 78.0018L78.389 78.0642C78.3864 78.1049 78.3953 78.1454 78.4146 78.1812C78.5002 78.3639 78.6514 78.5077 78.838 78.584C79.0596 78.6974 79.2931 78.786 79.5341 78.8481C80.0466 78.9864 80.5738 79.063 81.1045 79.0762C80.5803 79.2819 80.0123 79.3499 79.4544 79.2738C79.1633 79.2441 78.8783 79.171 78.6088 79.0568C78.4502 78.9952 78.3054 78.9028 78.1827 78.7849C78.0599 78.667 77.9617 78.5259 77.8936 78.3699C77.8578 78.282 77.8403 78.1877 77.8422 78.0927L77.8402 77.9525L77.8445 77.865C77.8506 77.7442 77.8479 77.623 77.8364 77.5025C77.8142 77.2466 77.7743 76.9925 77.7169 76.7421C77.6038 76.2287 77.4548 75.7126 77.313 75.1797Z" fill="#FFFDF5"/>
<path d="M76.3873 76.978C76.1646 77.7861 75.8507 78.5662 75.4515 79.303C75.0608 80.0508 74.5892 80.7532 74.045 81.3976C73.5007 82.0542 72.855 82.6195 72.1324 83.072C71.408 83.5217 70.5789 83.7742 69.7271 83.8045C70.5066 83.57 71.2391 83.2004 71.8911 82.7125C72.5292 82.221 73.1102 81.6593 73.6231 81.038C74.15 80.4175 74.6371 79.7642 75.0814 79.082C75.5287 78.3968 75.9729 77.7019 76.3873 76.978Z" fill="#FFFDF5"/>
<path d="M83.6987 100.357C84.3292 100.08 84.9254 99.7305 85.4752 99.3157C86.0207 98.9078 86.5383 98.4636 87.0243 97.9861C87.5254 97.5227 87.9747 97.0046 88.4414 96.4975L89.1208 95.7121C89.342 95.4441 89.5626 95.174 89.806 94.9153C89.667 95.2393 89.5055 95.5524 89.3444 95.8674C89.1619 96.1681 88.9825 96.4734 88.7819 96.7645C88.3773 97.348 87.9173 97.8909 87.4084 98.3858C86.897 98.8846 86.3263 99.3186 85.7091 99.678C85.0972 100.05 84.4107 100.282 83.6987 100.357V100.357Z" fill="#FFFDF5"/>
<path d="M73.7165 81.2177C73.22 80.4809 72.6059 79.8309 71.8987 79.2938C71.7515 79.1635 71.5731 79.0736 71.381 79.0328C71.1888 78.992 70.9894 79.0016 70.802 79.0608C70.4711 79.286 70.2336 79.6243 70.134 80.0123C69.9977 80.4261 69.8995 80.8514 69.8406 81.2831C69.8109 81.4978 69.7846 81.7212 69.7653 81.9277C69.7664 82.1243 69.7836 82.3553 69.8033 82.5702C69.8892 83.4512 70.0523 84.323 70.2908 85.1754C70.7299 86.9099 71.4121 88.5733 72.317 90.1163C73.2339 91.6586 74.3307 93.0862 75.5844 94.3691C76.213 95.0058 76.8663 95.6188 77.5294 96.2161C78.218 96.785 78.876 97.396 79.5928 97.9184C79.9387 98.1981 80.3199 98.4251 80.6811 98.681C81.0634 98.9012 81.4304 99.1511 81.8286 99.338C82.5981 99.7567 83.4166 100.078 84.2653 100.294C85.9602 100.745 87.7613 100.555 89.3259 99.7624C90.8982 98.922 92.2189 97.6778 93.1524 96.1575C93.1558 96.151 93.1616 96.146 93.1686 96.1438C93.1756 96.1415 93.1833 96.1422 93.1898 96.1456C93.1959 96.1493 93.2004 96.1551 93.2026 96.1619C93.2048 96.1687 93.2045 96.1761 93.2018 96.1827C92.3898 97.8336 91.1137 99.2107 89.5304 100.145C88.7196 100.606 87.8275 100.905 86.9033 101.027C85.9761 101.137 85.0368 101.077 84.1309 100.851C83.2315 100.637 82.3659 100.3 81.5583 99.8493C81.146 99.6442 80.7717 99.3788 80.3805 99.1417C80.0134 98.8707 79.6249 98.6269 79.2766 98.3333C78.5465 97.7842 77.9072 97.1427 77.2316 96.5401C76.887 96.2466 76.5949 95.8962 76.2786 95.5733C75.9738 95.2386 75.6438 94.9286 75.3607 94.5746C74.1795 93.2074 73.1068 91.7497 72.1524 90.215C71.1806 88.6806 70.4066 87.0292 69.8488 85.3003C69.5765 84.4255 69.3987 83.524 69.3184 82.6112C69.3032 82.3774 69.2894 82.1592 69.2945 81.9056C69.321 81.6652 69.3535 81.4417 69.3903 81.2115C69.4637 80.7526 69.5793 80.3014 69.7355 79.8637C69.8058 79.6222 69.9234 79.3971 70.0815 79.2016C70.2396 79.006 70.435 78.8439 70.6563 78.7248C70.9052 78.6271 71.1806 78.6215 71.4332 78.709C71.6628 78.7877 71.8772 78.9053 72.0672 79.0567C72.7644 79.6515 73.3405 80.3755 73.7639 81.1889C73.7657 81.192 73.7669 81.1955 73.7673 81.1991C73.7678 81.2027 73.7675 81.2064 73.7666 81.2099C73.7656 81.2134 73.764 81.2167 73.7617 81.2196C73.7595 81.2224 73.7567 81.2248 73.7536 81.2266C73.7473 81.2298 73.7402 81.2307 73.7334 81.229C73.7266 81.2274 73.7206 81.2233 73.7165 81.2177V81.2177Z" fill="#FFFDF5"/>
<path d="M75.4023 78.8647C74.5115 78.3155 73.5178 77.9546 72.4825 77.8043C71.4625 77.6177 70.4095 77.8066 69.5177 78.3361C69.0971 78.6287 68.7435 79.0075 68.4802 79.4473L67.575 80.7492C66.9759 81.6341 66.305 82.468 65.5691 83.2425C65.552 83.2595 65.5315 83.2727 65.5089 83.2812C65.4864 83.2897 65.4623 83.2935 65.4382 83.2921L65.4248 83.2913C61.6961 83.0701 57.9546 82.9815 54.223 83.0067C52.3568 83.0223 50.4926 83.0972 48.639 83.243C46.7998 83.3449 44.9787 83.6614 43.2128 84.1861L43.1816 84.1947L43.1389 84.2038C42.1615 84.4543 41.2305 84.8601 40.3814 85.4057C39.9397 85.6736 39.5147 85.9682 39.1087 86.2877L38.4935 86.7618C38.295 86.9283 38.1079 87.1099 37.9145 87.283C36.3738 88.6928 35.0051 90.2802 33.8367 92.0119C31.4917 95.5045 29.575 99.2669 28.1279 103.218C27.7703 104.21 27.3786 105.188 27.0486 106.19L26.1042 109.21C25.7846 110.205 25.4988 111.259 25.1265 112.266C24.7645 113.283 24.341 114.267 23.9356 115.243L22.6873 118.178L22.0373 119.64C21.8158 120.146 21.5689 120.64 21.2975 121.121C21.2424 121.21 21.1799 121.295 21.1105 121.375C21.1501 121.376 21.1535 121.285 21.1557 121.322C21.1494 121.379 21.1518 121.436 21.1628 121.493C21.2044 121.699 21.2755 121.898 21.374 122.085C21.5918 122.501 21.8826 122.875 22.2325 123.189C22.9472 123.832 23.841 124.241 24.7943 124.361L24.4195 125.272C23.8316 124.812 23.2752 124.313 22.7539 123.779C22.4682 123.491 22.2191 123.169 22.0122 122.82C21.9499 122.706 21.9004 122.586 21.8646 122.461C21.8458 122.379 21.8331 122.296 21.8266 122.212C21.8266 122.102 21.8453 121.992 21.8819 121.889C21.9237 121.777 21.9909 121.677 22.0782 121.596C22.1186 121.558 22.1612 121.523 22.2057 121.49C22.2444 121.467 22.2819 121.45 22.3211 121.431C22.4524 121.371 22.5924 121.332 22.7359 121.315C23.146 121.286 23.5581 121.315 23.96 121.402C24.3355 121.47 24.695 121.561 25.0531 121.656L26.1205 121.995L27.1531 122.41C29.8501 123.629 32.242 125.246 34.732 126.67C37.2059 128.116 39.7644 129.413 42.3937 130.551C45.0318 131.676 47.728 132.659 50.4709 133.496L50.4742 133.497C50.5493 133.52 50.6143 133.568 50.6584 133.634C50.7024 133.699 50.7229 133.777 50.7164 133.856C50.4789 136.54 50.3827 139.234 50.4281 141.928C50.4468 143.267 50.5611 144.604 50.7702 145.927C50.8697 146.572 51.0549 147.202 51.3211 147.798C51.4449 148.067 51.6302 148.302 51.862 148.486C51.9213 148.512 51.9789 148.539 52.0363 148.57C52.0969 148.588 52.1615 148.587 52.2235 148.602C52.3629 148.618 52.5531 148.608 52.7155 148.613L68.9303 148.657C74.3352 148.684 79.7398 148.654 85.1446 148.648L101.359 148.593L101.172 148.676C102.276 147.512 103.484 146.451 104.782 145.508C106.077 144.55 107.483 143.755 108.97 143.138C110.473 142.505 112.087 142.181 113.718 142.184C114.545 142.199 115.367 142.318 116.165 142.539L118.411 143.293C119.162 143.537 119.915 143.775 120.669 143.995C121.394 144.24 122.145 144.402 122.907 144.479C123.752 144.574 124.57 144.84 125.311 145.26C125.701 145.469 126.052 145.741 126.352 146.066C126.52 146.245 126.65 146.457 126.734 146.688C126.818 146.919 126.855 147.164 126.843 147.41C126.864 147.828 126.85 148.248 126.8 148.664C126.749 149.147 126.545 149.601 126.218 149.961C125.867 150.308 125.404 150.52 124.911 150.558C124.478 150.604 124.04 150.591 123.61 150.517C123.201 150.453 122.796 150.36 122.399 150.241L121.265 149.897C120.903 149.794 120.534 149.713 120.162 149.656C119.853 149.593 119.534 149.596 119.227 149.665L119.339 148.893C120.839 149.945 122.6 150.56 124.428 150.671C125.352 150.72 126.278 150.667 127.19 150.512C128.132 150.383 129.067 150.225 130.016 150.067C130.494 149.991 130.969 149.908 131.494 149.874C131.782 149.85 132.072 149.867 132.355 149.925C132.697 149.998 133.006 150.18 133.235 150.444C133.433 150.679 133.584 150.95 133.681 151.241C133.959 152.023 134.001 152.871 133.8 153.676C133.659 154.211 133.408 154.711 133.063 155.143C132.718 155.575 132.286 155.93 131.796 156.185C130.877 156.657 129.877 156.951 128.849 157.05L129.297 156.712C129.057 157.261 128.76 157.782 128.409 158.267C128.061 158.757 127.655 159.203 127.201 159.597C126.723 159.997 126.18 160.312 125.596 160.526C124.994 160.729 124.359 160.81 123.726 160.764L124.205 160.567C123.231 161.703 122.275 162.819 121.178 163.893C121.038 164.026 120.89 164.161 120.725 164.294C120.556 164.423 120.378 164.542 120.194 164.648C119.848 164.844 119.488 165.014 119.117 165.158C118.395 165.439 117.648 165.654 116.886 165.798C115.377 166.08 113.837 166.151 112.309 166.009C111.929 165.983 111.552 165.921 111.173 165.878L110.051 165.681L108.999 165.509L107.928 165.397C105.013 165.247 102.09 165.341 99.1906 165.679C96.271 165.976 93.3598 166.417 90.4629 166.93C89.0256 167.186 87.602 167.524 86.1519 167.844C84.7079 168.165 83.2589 168.478 81.806 168.772C78.899 169.354 75.9792 169.883 73.0422 170.304C67.1695 171.177 61.2439 171.646 55.3071 171.709C54.565 171.712 53.8233 171.739 53.0814 171.722L50.8557 171.672C49.3713 171.661 47.8902 171.555 46.4087 171.467C44.9255 171.404 43.4501 171.232 41.9731 171.088C41.2313 171.006 40.5048 170.961 39.7482 170.843C38.9991 170.727 38.2574 170.566 37.5272 170.363C34.5774 169.566 31.9017 167.976 29.7901 165.765C27.6757 163.542 26.3386 160.692 25.9797 157.643C25.3298 151.733 25.0689 145.816 24.9209 139.895C24.7918 133.975 24.7756 128.055 24.8723 122.136C24.8725 122.121 24.8788 122.106 24.8898 122.095C24.9009 122.084 24.9157 122.078 24.9312 122.079C24.9467 122.079 24.9614 122.085 24.9722 122.096C24.9831 122.107 24.9891 122.122 24.9889 122.137C25.0137 128.054 25.1498 133.968 25.3972 139.88C25.6586 145.785 25.9812 151.7 26.7142 157.547C27.0906 160.422 28.3896 163.096 30.4156 165.167C32.4344 167.239 34.9798 168.72 37.7773 169.451C38.4723 169.638 39.1777 169.784 39.8899 169.888C40.5948 169.993 41.345 170.035 42.0722 170.109C43.5373 170.24 44.9997 170.398 46.4708 170.447C47.9397 170.522 49.4077 170.614 50.8794 170.612L53.0854 170.643C53.8206 170.654 54.5562 170.62 55.2914 170.611L57.4972 170.566L59.7009 170.452C61.1709 170.393 62.6366 170.264 64.103 170.146C65.5711 170.051 67.0308 169.855 68.4949 169.712C69.9547 169.53 71.4154 169.35 72.8707 169.131C75.7836 168.708 78.6802 168.178 81.5669 167.595C83.0099 167.3 84.4491 166.987 85.889 166.664C87.3237 166.344 88.7761 165.996 90.2481 165.732C93.1688 165.208 96.1044 164.758 99.0644 164.452C102.038 164.098 105.036 164.01 108.025 164.188L109.158 164.311L110.292 164.503L111.351 164.694C111.706 164.735 112.06 164.796 112.416 164.822C113.834 164.961 115.264 164.903 116.666 164.649C117.357 164.521 118.035 164.331 118.692 164.08C119.011 163.958 119.321 163.813 119.62 163.647C119.755 163.57 119.886 163.484 120.012 163.391C120.135 163.292 120.261 163.179 120.39 163.058C121.411 162.069 122.391 160.942 123.345 159.838C123.401 159.773 123.47 159.722 123.548 159.688C123.626 159.653 123.711 159.637 123.796 159.64L123.825 159.641C124.3 159.675 124.777 159.617 125.229 159.469C125.687 159.301 126.113 159.056 126.488 158.745C126.873 158.412 127.218 158.035 127.515 157.622C127.816 157.209 128.073 156.765 128.284 156.299L128.285 156.296C128.324 156.206 128.386 156.128 128.465 156.07C128.543 156.011 128.636 155.973 128.733 155.961C129.615 155.881 130.474 155.636 131.267 155.241C131.632 155.06 131.954 154.803 132.213 154.488C132.471 154.172 132.66 153.806 132.767 153.412C132.872 153.015 132.894 152.601 132.831 152.194C132.792 151.819 132.661 151.459 132.449 151.146C132.366 151.042 132.247 150.971 132.115 150.948C131.928 150.912 131.737 150.902 131.548 150.917C131.117 150.939 130.645 151.013 130.177 151.083C129.235 151.23 128.279 151.382 127.322 151.503C126.342 151.656 125.349 151.702 124.359 151.638C122.34 151.497 120.402 150.79 118.766 149.598L118.757 149.592C118.693 149.544 118.643 149.48 118.613 149.406C118.582 149.332 118.573 149.251 118.585 149.172C118.598 149.093 118.632 149.019 118.683 148.958C118.735 148.897 118.802 148.851 118.878 148.826C119.338 148.688 119.824 148.669 120.294 148.769C120.703 148.835 121.109 148.928 121.507 149.046L122.643 149.403C123.003 149.516 123.37 149.604 123.742 149.667C124.459 149.79 125.239 149.776 125.623 149.376C126.027 148.981 126.052 148.2 126.034 147.421C126.037 147.332 126.033 147.243 126.023 147.155C126.022 147.09 126.008 147.027 125.981 146.968C125.929 146.828 125.851 146.699 125.75 146.589C125.512 146.33 125.233 146.112 124.924 145.944C124.286 145.574 123.581 145.334 122.849 145.238C122.035 145.15 121.234 144.969 120.46 144.701C119.696 144.47 118.941 144.222 118.188 143.969L115.937 143.187C115.209 142.982 114.458 142.868 113.702 142.846C112.158 142.829 110.626 143.121 109.196 143.706C106.308 144.929 103.704 146.737 101.546 149.016L101.538 149.024C101.514 149.048 101.486 149.067 101.456 149.079C101.425 149.092 101.392 149.099 101.359 149.099L85.1457 149.044C79.7414 149.037 74.3369 149.008 68.9328 149.035L52.7203 149.079C52.5453 149.076 52.3962 149.09 52.1999 149.074C52.0952 149.065 51.9914 149.048 51.8892 149.023L51.6051 148.891C51.2962 148.665 51.0476 148.367 50.8813 148.022C50.5845 147.387 50.3748 146.714 50.2578 146.022C50.0252 144.675 49.8893 143.313 49.8514 141.946C49.7679 139.228 49.8277 136.508 50.0304 133.797L50.2758 134.157C47.4947 133.35 44.7588 132.394 42.0802 131.293C39.4048 130.176 36.7988 128.899 34.2766 127.469C31.7432 126.075 29.3317 124.456 26.7622 123.313L25.7879 122.927L24.7951 122.615C24.4563 122.527 24.1166 122.443 23.783 122.384C23.4799 122.319 23.1695 122.294 22.8599 122.31C22.8185 122.321 22.7462 122.33 22.7562 122.335L22.7494 122.334C22.7598 122.331 22.7691 122.325 22.7761 122.317C22.781 122.302 22.815 122.278 22.8209 122.244C22.8385 122.105 22.8203 122.235 22.8973 122.341C23.0638 122.609 23.2609 122.857 23.4845 123.08C23.9729 123.575 24.4933 124.037 25.0425 124.464L25.0473 124.467C25.1349 124.536 25.1975 124.632 25.2255 124.74C25.2535 124.848 25.2453 124.963 25.2022 125.065C25.1592 125.168 25.0836 125.254 24.987 125.31C24.8905 125.366 24.7783 125.389 24.6678 125.374C23.5033 125.232 22.4104 124.735 21.5358 123.952C21.0933 123.558 20.7253 123.086 20.4495 122.561C20.2991 122.278 20.1924 121.974 20.133 121.659C20.0942 121.455 20.0996 121.245 20.1488 121.042C20.1891 120.892 20.2642 120.753 20.368 120.637C20.3795 120.605 20.3718 120.634 20.4093 120.566C20.6382 120.171 20.8702 119.67 21.0892 119.202L21.739 117.761L22.9965 114.847C23.4093 113.867 23.8298 112.904 24.184 111.924C24.5524 110.942 24.8264 109.948 25.1603 108.925L26.1307 105.877C26.4697 104.867 26.8715 103.876 27.2389 102.875C28.7335 98.8611 30.7054 95.0421 33.1123 91.5006C33.7256 90.618 34.3833 89.7672 35.0827 88.9514C35.7954 88.1416 36.5582 87.3774 37.3667 86.6635C37.5702 86.4858 37.7669 86.3006 37.9762 86.1296L38.6262 85.6413C39.0576 85.3111 39.5084 85.0073 39.9763 84.7316C40.9198 84.1405 41.9556 83.7122 43.0406 83.4644L42.9669 83.4821C44.7981 82.9584 46.6845 82.6527 48.5872 82.5712C50.4659 82.4475 52.3443 82.3966 54.2203 82.4049C57.9734 82.4129 61.7165 82.6032 65.4542 82.9018L65.3101 82.9503C66.0416 82.2087 66.7121 81.409 67.315 80.5592L68.2441 79.2828C68.5365 78.8214 68.9227 78.4268 69.3775 78.1247C69.8374 77.8277 70.3611 77.6443 70.9055 77.5893C71.4389 77.5259 71.9785 77.5366 72.509 77.621C73.5632 77.7967 74.5702 78.1872 75.4677 78.7682C75.4806 78.7764 75.4898 78.7894 75.4932 78.8044C75.4965 78.8194 75.4939 78.8351 75.4858 78.8481C75.4777 78.8612 75.4647 78.8705 75.4498 78.874C75.4349 78.8776 75.4191 78.8751 75.4061 78.867L75.4023 78.8647Z" fill="#FFFDF5"/>
<path d="M48.0308 88.7673C48.7574 88.9737 49.4168 89.3684 49.9423 89.9117C50.4839 90.4463 50.917 91.0809 51.2178 91.7803C51.5193 92.4757 51.6887 93.2213 51.7176 93.9789C51.732 94.3517 51.713 94.7251 51.6606 95.0946C51.5971 95.4611 51.5003 95.8211 51.3714 96.1701C51.2421 95.809 51.1838 95.4606 51.0887 95.1201C50.9868 94.7817 50.9257 94.4448 50.8123 94.1228C50.6315 93.4833 50.4099 92.856 50.1488 92.2449C49.8868 91.6373 49.5806 91.0499 49.2325 90.4873C48.8679 89.8896 48.4665 89.3152 48.0308 88.7673V88.7673Z" fill="#FFFDF5"/>
<path d="M50.5732 102.755C50.7978 105.345 50.9073 107.936 50.9764 110.525C51.0528 113.115 51.0609 115.705 51.056 118.294C51.0291 120.883 50.9877 123.473 50.8784 126.061C50.7764 128.65 50.6329 131.239 50.3736 133.826C50.1476 131.235 50.0374 128.645 49.9687 126.055C49.8926 123.465 49.8845 120.876 49.8909 118.287C49.9192 115.697 49.9606 113.108 50.0702 110.52C50.1726 107.931 50.3154 105.342 50.5732 102.755Z" fill="#FFFDF5"/>
<path d="M103.933 85.6388C106.067 86.9762 108.163 88.3692 110.219 89.8177C111.248 90.541 112.269 91.2773 113.281 92.0267L114.788 93.179C115.052 93.3774 115.301 93.5955 115.532 93.8315L115.89 94.2058L116.192 94.5884C116.973 95.5966 117.685 96.6563 118.324 97.7603C118.968 98.8481 119.594 99.943 120.204 101.045C121.408 103.259 122.648 105.449 123.924 107.613C124.562 108.697 125.213 109.773 125.875 110.842L126.866 112.444C127.16 112.968 127.509 113.459 127.908 113.909C128.33 114.323 128.833 114.734 129.27 115.251C129.789 115.791 130.101 116.497 130.152 117.244C130.113 118.011 129.779 118.733 129.221 119.259C128.983 119.5 128.732 119.729 128.47 119.944C128.235 120.134 128.008 120.332 127.784 120.538C127.336 120.95 126.923 121.383 126.504 121.85C126.076 122.322 125.634 122.781 125.185 123.234C124.279 124.141 123.316 124.989 122.304 125.774C121.271 126.575 120.147 127.249 118.955 127.784C118.33 128.048 117.674 128.23 117.001 128.325C116.296 128.43 115.575 128.367 114.898 128.142C114.79 128.109 114.698 128.038 114.64 127.941L114.636 127.935C114.198 127.209 113.72 126.486 113.235 125.777C112.751 125.066 112.244 124.371 111.714 123.694C111.182 123.022 110.614 122.38 110.012 121.77C109.432 121.143 108.721 120.651 107.931 120.329L107.926 120.327C107.913 120.322 107.901 120.312 107.894 120.299C107.887 120.286 107.886 120.271 107.89 120.257C107.894 120.243 107.903 120.231 107.915 120.223C107.928 120.215 107.943 120.212 107.957 120.215C108.821 120.438 109.62 120.863 110.288 121.455C110.973 122.01 111.615 122.617 112.208 123.269C113.401 124.562 114.496 125.941 115.486 127.396L115.225 127.189C116.334 127.415 117.489 127.247 118.488 126.713C119.579 126.192 120.605 125.544 121.544 124.781C122.516 124.025 123.446 123.216 124.329 122.357C124.776 121.929 125.218 121.494 125.646 121.046C126.079 120.59 126.546 120.124 127.035 119.699C127.28 119.485 127.532 119.278 127.791 119.079C128.027 118.883 128.25 118.715 128.447 118.514C128.829 118.185 129.078 117.728 129.149 117.228C129.118 116.71 128.912 116.218 128.564 115.833C128.207 115.373 127.756 114.956 127.318 114.456C127.203 114.325 127.095 114.188 126.995 114.045L126.742 113.617L126.288 112.782L125.399 111.115C124.812 110.002 124.213 108.897 123.602 107.799C122.376 105.605 121.083 103.448 119.683 101.362C118.294 99.2784 116.886 97.1692 115.382 95.2443L115.098 94.8885L114.802 94.585C114.598 94.3672 114.378 94.1662 114.142 93.9838L112.677 92.8181L109.718 90.492C107.741 88.943 105.79 87.3568 103.864 85.7333C103.853 85.7238 103.846 85.7103 103.844 85.6956C103.842 85.6809 103.846 85.666 103.854 85.654C103.863 85.642 103.876 85.6338 103.891 85.631C103.905 85.6281 103.92 85.6309 103.933 85.6388L103.933 85.6388Z" fill="#FFFDF5"/>
<path d="M111.736 104.486C110.715 108.326 109.752 112.175 108.947 116.039C108.533 117.954 108.244 119.894 108.082 121.847C108.027 122.786 108.021 123.823 107.939 124.828C107.858 125.853 107.687 126.868 107.427 127.863C106.814 129.828 105.833 131.658 104.535 133.255C103.936 134.056 103.3 134.831 102.705 135.609C102.419 135.995 102.129 136.378 101.872 136.792C101.596 137.19 101.347 137.61 101.099 138.031C100.123 139.739 99.2505 141.504 98.4859 143.317C97.6792 145.123 96.9835 146.979 96.3037 148.846C97.1693 144.943 98.513 141.162 100.304 137.588C100.767 136.685 101.296 135.818 101.889 134.994C102.477 134.18 103.079 133.404 103.646 132.601C104.84 131.098 105.741 129.385 106.305 127.55C106.555 126.626 106.722 125.681 106.805 124.728C106.898 123.755 106.895 122.805 106.984 121.765C107.192 119.765 107.553 117.784 108.063 115.839C109.042 111.98 110.268 108.187 111.736 104.486Z" fill="#FFFDF5"/>
<path d="M128.791 118.94C130.073 119.937 131.288 121 132.523 121.989C132.835 122.23 133.146 122.467 133.451 122.675L133.959 122.978C134.146 123.096 134.324 123.221 134.493 123.351C135.147 123.879 135.75 124.469 136.291 125.113C137.366 126.387 138.212 127.839 138.79 129.404C139.395 130.954 139.566 132.64 139.284 134.28C139.114 132.705 138.665 131.173 137.957 129.755C137.268 128.358 136.409 127.051 135.401 125.864C134.916 125.268 134.378 124.716 133.795 124.215C133.654 124.09 133.508 123.974 133.362 123.867L132.857 123.516C132.525 123.258 132.21 122.979 131.915 122.68C130.76 121.532 129.715 120.28 128.791 118.94V118.94Z" fill="#FFFDF5"/>
<path d="M115.922 127.839C117.069 129.379 117.852 131.158 118.213 133.044C118.254 133.284 118.288 133.527 118.321 133.771C118.343 134.006 118.346 134.285 118.375 134.487C118.42 134.9 118.519 135.305 118.668 135.692C118.993 136.519 119.409 137.308 119.91 138.042C120.405 138.802 120.951 139.529 121.542 140.217C121.828 140.572 122.144 140.901 122.447 141.242C122.776 141.556 123.077 141.905 123.416 142.209C124.709 143.523 126.257 144.558 127.966 145.249C127.014 145.153 126.089 144.882 125.234 144.452C124.38 144.017 123.572 143.496 122.822 142.899C121.312 141.707 120 140.284 118.935 138.681C118.394 137.86 117.955 136.977 117.627 136.051C117.469 135.554 117.378 135.039 117.357 134.518C117.342 134.255 117.349 134.065 117.349 133.834L117.315 133.165C117.106 131.333 116.637 129.539 115.922 127.839V127.839Z" fill="#FFFDF5"/>
<path d="M128.791 142.818C128.907 142.066 129.167 141.344 129.557 140.691C129.94 140.03 130.404 139.421 130.94 138.878C131.482 138.345 132.083 137.875 132.732 137.479C133.054 137.282 133.387 137.104 133.729 136.944C134.079 136.801 134.428 136.661 134.784 136.544C134.165 136.974 133.555 137.387 132.977 137.836C132.4 138.28 131.85 138.759 131.332 139.27C130.821 139.785 130.349 140.338 129.92 140.924C129.482 141.516 129.104 142.151 128.791 142.818Z" fill="#FFFDF5"/>
<path d="M130.894 144.151C132.189 142.077 133.608 140.084 135.142 138.182C135.91 137.229 136.707 136.297 137.535 135.388C138.377 134.484 139.268 133.628 140.205 132.823C141.161 131.983 142.236 131.29 143.395 130.768C144.022 130.504 144.697 130.374 145.377 130.388C146.074 130.406 146.755 130.601 147.356 130.955C148.475 131.677 149.331 132.741 149.797 133.99C150.04 134.584 150.216 135.203 150.321 135.837C150.451 136.492 150.437 137.168 150.282 137.818L150.096 137.409C151.407 138.078 152.67 138.804 153.922 139.559C155.171 140.314 156.405 141.098 157.593 141.95C158.808 142.779 159.933 143.732 160.95 144.793C161.465 145.34 161.902 145.957 162.248 146.624C162.629 147.335 162.719 148.165 162.5 148.942L162.506 148.92C162.341 149.563 161.986 150.14 161.488 150.578C161.217 150.795 160.902 150.95 160.565 151.032C160.228 151.115 159.877 151.122 159.537 151.054C158.906 150.925 158.305 150.674 157.77 150.316C157.256 149.979 156.77 149.6 156.317 149.184L157.098 148.846C157.076 149.646 156.905 150.436 156.593 151.173C156.288 151.917 155.831 152.59 155.252 153.148C154.672 153.697 153.992 154.131 153.249 154.424C152.934 154.561 152.628 154.715 152.331 154.886C152.195 154.964 152.064 155.051 151.939 155.147C151.892 155.183 151.848 155.223 151.807 155.266C151.776 155.293 151.785 155.325 151.813 155.22L151.615 154.662C151.978 154.978 152.278 155.359 152.5 155.787C152.736 156.225 152.86 156.716 152.86 157.215C152.86 157.714 152.736 158.204 152.5 158.643C152.285 159.06 152.002 159.438 151.663 159.762C150.981 160.405 150.115 160.817 149.187 160.942C148.756 160.994 148.322 161.014 147.888 161.002C147.421 161.001 146.957 160.928 146.513 160.783L146.925 160.785C145.568 161.206 144.173 161.493 142.76 161.644C141.35 161.788 139.929 161.781 138.521 161.621C137.788 161.552 137.068 161.382 136.381 161.116C136 160.968 135.654 160.74 135.369 160.446C135.083 160.152 134.864 159.801 134.727 159.415C134.525 158.642 134.618 157.821 134.988 157.113C135.152 156.77 135.366 156.453 135.622 156.172C135.894 155.831 136.285 155.606 136.716 155.543L136.668 155.548C136.871 155.518 137.076 155.501 137.282 155.497C137.484 155.492 137.686 155.5 137.887 155.519C138.298 155.552 138.7 155.66 139.073 155.836L138.773 156.188C138.587 155.858 138.442 155.508 138.341 155.144C138.237 154.781 138.19 154.405 138.203 154.028C138.217 153.647 138.324 153.276 138.516 152.947C138.71 152.63 138.975 152.361 139.289 152.162C139.302 152.154 139.318 152.151 139.333 152.154C139.348 152.157 139.362 152.166 139.37 152.179C139.378 152.191 139.381 152.206 139.379 152.22C139.376 152.235 139.369 152.248 139.357 152.257C139.084 152.469 138.863 152.741 138.711 153.052C138.568 153.358 138.5 153.694 138.514 154.032C138.53 154.371 138.599 154.705 138.718 155.023C138.835 155.341 138.988 155.643 139.176 155.924C139.204 155.966 139.219 156.016 139.217 156.067C139.215 156.118 139.197 156.167 139.166 156.207C139.134 156.247 139.091 156.276 139.042 156.289C138.994 156.303 138.942 156.301 138.894 156.283L138.875 156.276C138.546 156.155 138.199 156.089 137.848 156.079C137.669 156.072 137.49 156.076 137.311 156.091C137.136 156.104 136.963 156.129 136.791 156.164L136.767 156.168L136.742 156.17C136.498 156.255 136.286 156.414 136.138 156.626C135.944 156.867 135.786 157.135 135.669 157.422C135.42 157.961 135.378 158.573 135.55 159.141C135.659 159.4 135.822 159.633 136.029 159.823C136.235 160.014 136.481 160.158 136.748 160.245C137.355 160.45 137.987 160.572 138.627 160.608C139.96 160.71 141.3 160.669 142.624 160.486C143.946 160.322 145.25 160.032 146.517 159.62C146.646 159.577 146.785 159.576 146.915 159.617L146.929 159.622C147.614 159.772 148.32 159.801 149.015 159.706C149.686 159.62 150.312 159.325 150.807 158.863C151.293 158.44 151.597 157.846 151.658 157.204C151.66 156.897 151.589 156.594 151.449 156.321C151.305 156.033 151.112 155.773 150.879 155.552L150.837 155.514C150.767 155.449 150.715 155.367 150.687 155.275C150.66 155.184 150.658 155.086 150.681 154.993C150.726 154.8 150.825 154.624 150.965 154.483C151.051 154.394 151.144 154.312 151.243 154.238C151.411 154.114 151.587 154.002 151.77 153.901C152.11 153.714 152.461 153.545 152.821 153.398C153.449 153.169 154.026 152.82 154.521 152.371C155.007 151.918 155.399 151.374 155.674 150.77C155.955 150.164 156.123 149.512 156.171 148.846L156.173 148.812C156.179 148.724 156.209 148.639 156.261 148.568C156.313 148.497 156.384 148.442 156.466 148.41C156.548 148.378 156.637 148.371 156.723 148.388C156.809 148.405 156.889 148.447 156.952 148.508C157.355 148.904 157.787 149.268 158.246 149.597C158.675 149.921 159.163 150.159 159.682 150.299C159.918 150.363 160.165 150.373 160.406 150.33C160.646 150.286 160.874 150.189 161.072 150.046C161.48 149.717 161.782 149.273 161.937 148.772L161.944 148.751C162.148 148.115 162.098 147.425 161.805 146.826C161.513 146.183 161.12 145.591 160.639 145.073C159.661 144.013 158.571 143.063 157.388 142.239C155.003 140.594 152.463 139.186 149.804 138.037C149.732 138.005 149.674 137.949 149.639 137.879C149.603 137.809 149.594 137.728 149.611 137.652L149.617 137.628C149.705 137.08 149.679 136.521 149.541 135.984C149.415 135.42 149.226 134.873 148.978 134.351C148.534 133.321 147.789 132.45 146.841 131.852C146.373 131.597 145.852 131.454 145.32 131.434C144.788 131.413 144.258 131.515 143.772 131.733C142.706 132.204 141.714 132.827 140.826 133.582C139.893 134.336 139.003 135.142 138.159 135.994C137.299 136.839 136.467 137.719 135.659 138.621C134.053 140.435 132.489 142.299 130.99 144.217C130.986 144.223 130.98 144.228 130.973 144.232C130.967 144.236 130.959 144.238 130.952 144.239C130.944 144.24 130.936 144.24 130.929 144.238C130.922 144.236 130.915 144.233 130.909 144.228C130.897 144.219 130.889 144.206 130.887 144.192C130.884 144.178 130.887 144.163 130.894 144.151V144.151Z" fill="#FFFDF5"/>
<path d="M142.599 135.258C142.606 136.339 142.743 137.414 143.008 138.462C143.146 138.957 143.365 139.426 143.657 139.849C143.932 140.247 144.346 140.527 144.818 140.633C145.304 140.75 145.812 140.744 146.296 140.617C146.798 140.5 147.274 140.291 147.699 139.998C148.582 139.384 149.345 138.613 149.95 137.723C149.521 138.759 148.838 139.669 147.963 140.369C147.512 140.745 146.983 141.015 146.414 141.158C145.846 141.302 145.252 141.316 144.677 141.199C144.076 141.053 143.553 140.686 143.21 140.171C142.897 139.682 142.679 139.139 142.568 138.569C142.369 137.474 142.38 136.35 142.599 135.258V135.258Z" fill="#FFFDF5"/>
<path d="M151.18 145.582C152.288 145.622 153.366 145.955 154.304 146.547C154.777 146.833 155.216 147.173 155.61 147.561C156.006 147.943 156.35 148.375 156.635 148.846C156.22 148.486 155.821 148.13 155.397 147.806C154.98 147.478 154.543 147.177 154.089 146.903C153.637 146.626 153.168 146.378 152.684 146.16C152.196 145.936 151.693 145.743 151.18 145.582V145.582Z" fill="#FFFDF5"/>
<path d="M138.975 156.056C139.232 156.316 139.528 156.534 139.853 156.703C140.168 156.886 140.489 157.058 140.812 157.226C141.46 157.56 142.118 157.879 142.78 158.193C144.097 158.834 145.432 159.447 146.721 160.202C145.273 159.865 143.866 159.367 142.527 158.719C141.853 158.398 141.202 158.03 140.581 157.616C139.927 157.234 139.376 156.698 138.975 156.056V156.056Z" fill="#FFFDF5"/>
<path d="M149.251 148.113C149.48 148.238 149.679 148.41 149.836 148.617C149.927 148.727 149.993 148.856 150.028 148.994C150.064 149.133 150.068 149.277 150.042 149.417C149.959 149.696 149.786 149.939 149.55 150.108C149.336 150.272 149.103 150.408 148.855 150.512C148.742 150.56 148.632 150.616 148.526 150.68C148.426 150.729 148.33 150.785 148.237 150.847L147.986 151.068C147.91 151.151 147.84 151.238 147.777 151.331C147.511 151.701 147.352 152.138 147.317 152.593C147.251 153.042 147.318 153.5 147.511 153.911C147.703 154.321 148.013 154.666 148.4 154.901C148.496 154.966 148.601 155.014 148.713 155.044C148.823 155.08 148.93 155.129 149.044 155.159C149.28 155.204 149.519 155.233 149.759 155.245C150.006 155.252 150.253 155.243 150.499 155.219C150.744 155.176 150.993 155.14 151.247 155.107C151.012 155.2 150.773 155.289 150.529 155.371C150.279 155.44 150.026 155.494 149.769 155.531C149.505 155.554 149.24 155.555 148.976 155.535C148.843 155.512 148.711 155.482 148.581 155.444C148.446 155.418 148.316 155.372 148.194 155.307C147.68 155.073 147.263 154.666 147.016 154.157C146.777 153.652 146.681 153.091 146.737 152.534C146.794 151.978 147.001 151.448 147.336 151.001C147.422 150.89 147.515 150.785 147.616 150.688L147.949 150.427C148.183 150.292 148.429 150.18 148.685 150.092C149.13 149.99 149.519 149.72 149.769 149.337C149.807 149.233 149.82 149.121 149.809 149.011C149.798 148.9 149.763 148.794 149.706 148.698C149.587 148.48 149.434 148.282 149.251 148.113V148.113Z" fill="#FFFDF5"/>
<path d="M144.529 136.924C144.597 137.23 144.69 137.531 144.809 137.822C144.907 138.099 145.081 138.342 145.312 138.523C145.427 138.605 145.558 138.661 145.697 138.687C145.836 138.713 145.979 138.709 146.116 138.675C146.266 138.647 146.414 138.609 146.559 138.561C146.705 138.505 146.848 138.44 147.003 138.389C146.882 138.493 146.748 138.584 146.617 138.684C146.471 138.762 146.319 138.829 146.163 138.883C145.995 138.94 145.817 138.958 145.641 138.934C145.465 138.911 145.297 138.847 145.15 138.748C144.882 138.528 144.692 138.228 144.608 137.892C144.52 137.577 144.493 137.249 144.529 136.924Z" fill="#FFFDF5"/>
<path d="M145.061 136.544C145.373 136.456 145.697 136.412 146.022 136.415C146.353 136.417 146.682 136.469 146.998 136.571C147.326 136.678 147.613 136.886 147.817 137.165C147.994 137.455 148.055 137.801 147.987 138.133C147.95 137.828 147.832 137.538 147.647 137.293C147.447 137.074 147.19 136.914 146.905 136.832C146.306 136.651 145.686 136.554 145.061 136.544Z" fill="#FFFDF5"/>
<path d="M149.517 154.108C149.632 153.871 149.808 153.669 150.027 153.522C150.143 153.441 150.275 153.384 150.413 153.356C150.552 153.327 150.695 153.326 150.834 153.354C151.099 153.439 151.332 153.604 151.5 153.826C151.569 153.939 151.642 154.048 151.702 154.162C151.746 154.285 151.798 154.402 151.832 154.525C151.662 154.331 151.511 154.137 151.341 153.968C151.183 153.806 150.986 153.688 150.77 153.624C150.553 153.573 150.326 153.603 150.13 153.707C149.91 153.814 149.704 153.949 149.517 154.108V154.108Z" fill="#FFFDF5"/>
<path d="M139.285 155.401C139.3 154.944 139.416 154.496 139.626 154.09C139.681 153.976 139.759 153.874 139.855 153.792C139.951 153.709 140.063 153.647 140.184 153.609C140.311 153.584 140.443 153.589 140.568 153.622C140.694 153.656 140.81 153.717 140.909 153.802C141.101 153.947 141.264 154.127 141.389 154.332C141.518 154.55 141.561 154.807 141.511 155.055C141.442 155.278 141.325 155.483 141.169 155.656C141.012 155.829 140.819 155.966 140.604 156.056C140.952 155.804 141.199 155.436 141.301 155.018C141.319 154.823 141.274 154.628 141.172 154.461C141.058 154.291 140.913 154.144 140.746 154.026C140.68 153.961 140.6 153.912 140.513 153.882C140.426 153.852 140.333 153.843 140.241 153.854C140.059 153.915 139.904 154.039 139.805 154.203C139.576 154.576 139.401 154.979 139.285 155.401V155.401Z" fill="#FFFDF5"/>
<path d="M132.175 152.02C132.147 152.476 132.019 152.921 131.8 153.322C131.741 153.434 131.661 153.534 131.563 153.614C131.464 153.694 131.351 153.753 131.229 153.788C131.101 153.809 130.97 153.801 130.845 153.765C130.72 153.728 130.606 153.664 130.509 153.576C130.321 153.426 130.163 153.242 130.043 153.034C129.92 152.813 129.883 152.554 129.94 152.308C130.015 152.087 130.137 151.884 130.298 151.715C130.459 151.547 130.655 151.415 130.873 151.331C130.518 151.574 130.262 151.935 130.149 152.35C130.126 152.544 130.166 152.741 130.263 152.911C130.373 153.083 130.514 153.234 130.678 153.357C130.742 153.423 130.82 153.475 130.907 153.507C130.994 153.539 131.086 153.55 131.178 153.541C131.362 153.485 131.52 153.366 131.623 153.204C131.862 152.837 132.047 152.439 132.175 152.02V152.02Z" fill="#FFFDF5"/>
<path d="M136.347 159.57C136.466 159.254 136.634 158.96 136.843 158.696C136.95 158.557 137.079 158.435 137.224 158.335C137.307 158.273 137.404 158.232 137.506 158.216C137.609 158.2 137.714 158.209 137.812 158.243C137.986 158.342 138.116 158.502 138.178 158.692C138.24 158.855 138.28 159.025 138.295 159.199C138.336 159.533 138.321 159.873 138.251 160.202C138.215 159.878 138.16 159.555 138.086 159.237C138.05 159.085 138.004 158.936 137.946 158.791C137.88 158.664 137.8 158.526 137.7 158.497C137.511 158.393 137.216 158.627 137 158.84C136.77 159.072 136.552 159.315 136.347 159.57V159.57Z" fill="#FFFDF5"/>
<path d="M128.788 144.185L126.433 146.782C126.433 146.782 126.451 150.103 124.772 150.243C124.772 150.243 123.921 151.014 124.527 151.171C125.07 151.306 127.022 150.821 127.867 150.92C127.867 150.92 131.871 150.127 132.553 150.558C132.759 150.698 132.931 150.88 133.059 151.093C133.187 151.305 133.267 151.543 133.294 151.79L133.62 151.755L146.251 152.508L151.729 144.185L128.788 144.185ZM145.062 150.01L127.337 149.712L129.651 145.983H147.41L145.062 150.01Z" fill="#FFFDF5"/>
<path d="M114.263 150.245C114.946 149.746 115.719 149.384 116.539 149.178C117.372 148.963 118.235 148.888 119.092 148.957C119.169 148.963 119.241 148.999 119.291 149.058C119.341 149.117 119.366 149.193 119.36 149.27C119.354 149.347 119.318 149.419 119.26 149.469C119.201 149.52 119.125 149.545 119.048 149.54C119.036 149.539 119.024 149.537 119.013 149.535C118.217 149.378 117.4 149.353 116.596 149.464C115.776 149.572 114.984 149.837 114.263 150.245V150.245Z" fill="#FFFDF5"/>
<path d="M119.053 156.274C120.693 156.304 122.332 156.361 123.973 156.517C124.379 156.554 124.803 156.62 125.195 156.666C125.591 156.709 125.99 156.717 126.387 156.689C127.174 156.636 127.946 156.45 128.672 156.141L128.691 156.132C128.762 156.101 128.842 156.099 128.914 156.127C128.986 156.155 129.044 156.211 129.076 156.281C129.107 156.352 129.109 156.433 129.081 156.505C129.053 156.577 128.997 156.635 128.926 156.667L128.91 156.673C128.107 156.966 127.259 157.12 126.404 157.127C125.982 157.131 125.56 157.097 125.144 157.027C124.725 156.952 124.344 156.868 123.935 156.807C122.322 156.556 120.687 156.401 119.053 156.274Z" fill="#FFFDF5"/>
<path d="M120.316 160.803C120.872 160.602 121.434 160.415 122.002 160.242C122.576 160.061 123.162 159.917 123.755 159.812C123.831 159.8 123.91 159.819 123.973 159.864C124.036 159.91 124.078 159.978 124.09 160.055C124.103 160.132 124.084 160.21 124.039 160.273C123.993 160.336 123.925 160.378 123.848 160.391C123.833 160.393 123.817 160.395 123.801 160.395H123.796C123.216 160.401 122.637 160.446 122.063 160.528C121.48 160.603 120.897 160.696 120.316 160.803Z" fill="#FFFDF5"/>
<path d="M122.511 146.055C122.81 146.365 123.16 146.62 123.547 146.807C123.939 146.989 124.35 147.125 124.773 147.214C124.549 147.266 124.319 147.278 124.091 147.249C123.861 147.219 123.636 147.153 123.425 147.056C123.218 146.949 123.029 146.809 122.865 146.642C122.702 146.478 122.581 146.276 122.511 146.055V146.055Z" fill="#FFFDF5"/>
<path d="M131.408 156.376C131.254 156.377 131.105 156.316 130.995 156.207C130.886 156.098 130.823 155.95 130.823 155.795C130.822 155.64 130.883 155.492 130.992 155.382C131.1 155.272 131.248 155.209 131.403 155.209L138.786 155.139C138.863 155.137 138.94 155.15 139.011 155.178C139.083 155.206 139.148 155.249 139.203 155.303C139.258 155.357 139.302 155.421 139.331 155.492C139.361 155.564 139.375 155.64 139.375 155.717C139.375 155.794 139.361 155.87 139.332 155.941C139.304 156.012 139.261 156.077 139.208 156.132C139.154 156.186 139.09 156.23 139.02 156.26C138.949 156.29 138.874 156.306 138.797 156.306L131.414 156.376H131.408Z" fill="#FFFDF5"/>
<path d="M151.697 156.187C151.542 156.187 151.394 156.125 151.284 156.016C151.175 155.907 151.113 155.758 151.113 155.604C151.113 155.449 151.174 155.3 151.284 155.191C151.393 155.081 151.541 155.02 151.696 155.019L172.048 154.993H172.049C172.203 154.993 172.352 155.054 172.461 155.163C172.57 155.273 172.632 155.421 172.632 155.576C172.632 155.731 172.571 155.879 172.462 155.989C172.352 156.098 172.204 156.16 172.05 156.16L151.697 156.187H151.697Z" fill="#FFFDF5"/>
<path d="M286.81 156.007C286.656 156.007 286.507 155.945 286.398 155.836C286.289 155.727 286.227 155.578 286.227 155.423C286.227 155.269 286.288 155.12 286.398 155.011C286.507 154.901 286.655 154.84 286.81 154.839L305.517 154.817H305.517C305.672 154.817 305.82 154.878 305.929 154.987C306.039 155.097 306.1 155.245 306.1 155.4C306.1 155.555 306.039 155.703 305.93 155.813C305.821 155.922 305.672 155.984 305.518 155.984L286.811 156.007H286.81Z" fill="#FFFDF5"/>
<path d="M180.266 155.706H178.883C178.846 155.706 178.81 155.691 178.784 155.665C178.757 155.64 178.742 155.604 178.742 155.567C178.741 155.549 178.745 155.531 178.752 155.514C178.758 155.498 178.768 155.482 178.781 155.469C178.794 155.457 178.809 155.446 178.825 155.439C178.842 155.432 178.86 155.429 178.878 155.429H180.266C180.285 155.429 180.303 155.432 180.319 155.439C180.336 155.446 180.352 155.456 180.365 155.469C180.378 155.482 180.388 155.497 180.395 155.514C180.402 155.531 180.406 155.549 180.406 155.567C180.406 155.585 180.402 155.604 180.395 155.62C180.388 155.637 180.378 155.653 180.365 155.665C180.352 155.678 180.336 155.689 180.319 155.695C180.303 155.702 180.285 155.706 180.266 155.706V155.706Z" fill="#FFFDF5"/>
<path d="M0.585567 157.598C0.430984 157.598 0.282447 157.537 0.172633 157.428C0.0628188 157.32 0.00072355 157.171 6.28312e-06 157.017C-0.000710984 156.862 0.0600089 156.713 0.168809 156.603C0.277608 156.493 0.425577 156.431 0.58016 156.43L26.2418 156.191C26.3951 156.194 26.5415 156.255 26.651 156.363C26.7604 156.47 26.8245 156.616 26.8301 156.769C26.8308 156.846 26.8165 156.922 26.7878 156.993C26.7592 157.064 26.7169 157.129 26.6633 157.184C26.6096 157.239 26.5458 157.282 26.4753 157.312C26.4049 157.342 26.3292 157.358 26.2526 157.359L0.590975 157.598H0.585567Z" fill="#FFFDF5"/>
<path d="M97.3677 76.8116C97.5833 76.8042 97.7875 76.7132 97.9373 76.5579C98.0872 76.4026 98.171 76.195 98.171 75.9791C98.171 75.7631 98.0872 75.5556 97.9373 75.4002C97.7875 75.2449 97.5833 75.1539 97.3677 75.1465C97.1522 75.1539 96.9479 75.2449 96.7981 75.4002C96.6482 75.5556 96.5645 75.7631 96.5645 75.9791C96.5645 76.195 96.6482 76.4026 96.7981 76.5579C96.9479 76.7132 97.1522 76.8042 97.3677 76.8116V76.8116Z" fill="#FFFDF5"/>
<path d="M139.399 60.6626L132.592 60.9165C130.359 60.9843 128.151 61.0385 125.955 61.0795C123.763 61.11 121.578 61.1448 119.402 61.1202C117.225 61.1039 115.048 61.0064 112.849 60.9456L113.173 60.6214C113.138 61.8791 113.081 63.137 113.064 64.3948C113.033 65.6525 113.032 66.9103 113.025 68.1682C113.023 70.6837 113.076 73.1993 113.147 75.7148L112.849 75.4171L118.281 75.266C118.337 75.2644 118.392 75.2738 118.443 75.2938C118.495 75.3137 118.542 75.3438 118.582 75.3822L118.598 75.3975L120.673 77.3954H119.96L121.966 75.329C122.014 75.2791 122.072 75.2392 122.136 75.2118C122.199 75.1844 122.268 75.1699 122.337 75.1693L122.351 75.1691C125.199 75.1456 128.048 75.0871 130.896 75.0923C132.32 75.0852 133.744 75.0911 135.168 75.1098L139.44 75.164L138.89 75.7148C138.929 73.2633 139 70.8114 139.101 68.3088L139.399 60.6626ZM139.482 60.5801L139.78 68.0274C139.881 70.5561 139.951 73.1353 139.991 75.7149C139.993 75.8588 139.938 75.9977 139.838 76.101C139.738 76.2043 139.601 76.2635 139.457 76.2657H139.456L139.44 76.2659L135.168 76.32C133.744 76.3371 132.32 76.343 130.896 76.3375C128.048 76.3428 125.199 76.2842 122.351 76.2607L122.737 76.101L120.673 78.1097L120.661 78.1215C120.614 78.1668 120.559 78.2026 120.499 78.2266C120.439 78.2506 120.374 78.2625 120.309 78.2616C120.244 78.2607 120.18 78.2469 120.12 78.2212C120.061 78.1955 120.007 78.1582 119.961 78.1115L119.96 78.1097L117.964 76.0325L118.281 76.1638L112.849 76.0128L112.833 76.0124C112.756 76.0102 112.683 75.9777 112.631 75.9219C112.578 75.8662 112.55 75.7917 112.552 75.715V75.7149C112.623 73.1994 112.675 70.6837 112.674 68.1682C112.666 66.9103 112.665 65.6526 112.634 64.3948C112.617 63.1371 112.56 61.8792 112.526 60.6214C112.524 60.58 112.531 60.5388 112.546 60.5002C112.561 60.4615 112.583 60.4262 112.611 60.3961C112.64 60.366 112.674 60.3419 112.712 60.325C112.749 60.3081 112.79 60.2988 112.831 60.2977H112.832L112.849 60.2972C115.082 60.2364 117.337 60.1388 119.592 60.1225C121.848 60.098 124.095 60.1328 126.334 60.1633C128.57 60.2042 130.794 60.2585 132.993 60.3263L139.482 60.5801Z" fill="#FFFDF5"/>
<path d="M217.601 32.7426L207.583 32.9161L197.65 33.0415L177.92 33.1803L168.105 33.1457L158.295 33.0214C151.749 32.9208 145.17 32.8728 138.594 32.8893L138.782 32.7014L138.817 40.248L138.904 47.7948L138.594 47.4851C144.39 47.406 150.185 47.3312 155.981 47.291L173.367 47.195C179.163 47.1501 184.958 47.2017 190.754 47.2004C196.549 47.1933 202.345 47.2695 208.141 47.3159L208.149 47.3161C208.273 47.3172 208.392 47.3676 208.479 47.4563L210.496 49.512H209.856L211.913 47.4972L211.921 47.4896C211.959 47.4522 212.004 47.4227 212.054 47.4028C212.104 47.3829 212.157 47.3731 212.21 47.3738L217.642 47.4529L217.301 47.7948C217.341 45.318 217.373 42.8412 217.442 40.3313L217.601 32.7426ZM217.684 32.6601L217.843 40.1647C217.912 42.686 217.944 45.2404 217.984 47.7948C217.985 47.8841 217.951 47.9702 217.889 48.0343C217.827 48.0984 217.742 48.1352 217.653 48.1367H217.653L217.642 48.1368L212.21 48.2159L212.508 48.0926L210.496 50.1529C210.413 50.2378 210.299 50.2863 210.181 50.2876C210.062 50.2889 209.947 50.243 209.863 50.1599L209.862 50.1592L209.855 50.1529L207.802 48.1335L208.14 48.2737C202.345 48.3202 196.549 48.3964 190.754 48.3893C184.958 48.388 179.163 48.4396 173.367 48.3947L155.981 48.2987C150.185 48.2585 144.39 48.1837 138.594 48.1046H138.586C138.546 48.1041 138.507 48.0957 138.47 48.0799C138.433 48.064 138.399 48.0411 138.371 48.0123C138.343 47.9835 138.321 47.9495 138.306 47.9122C138.292 47.8749 138.284 47.835 138.285 47.7948L138.371 40.248L138.406 32.7014C138.406 32.6515 138.426 32.6037 138.461 32.5684C138.497 32.5331 138.544 32.5132 138.594 32.5131C145.193 32.5298 151.788 32.4818 158.417 32.3812L168.369 32.2569L178.316 32.2222L198.111 32.3611L207.94 32.4863L217.684 32.6601Z" fill="#FFFDF5"/>
<path d="M162.713 0.533393C158.439 0.655221 154.238 0.740002 150.061 0.812957C145.875 0.900018 141.738 0.938917 137.604 0.970831C133.471 1.00332 129.365 0.97739 125.251 0.885199C121.134 0.814667 116.999 0.699679 112.849 0.679012L113.036 0.492213C113.034 1.74995 113.016 3.00772 113.03 4.26547L113.053 8.03887C113.056 10.5545 113.118 13.07 113.154 15.5857L112.849 15.2802L118.281 15.1783C118.332 15.1773 118.383 15.1864 118.43 15.205C118.478 15.2237 118.521 15.2516 118.558 15.287L118.569 15.2977L120.636 17.3025H119.996L122.005 15.2394C122.049 15.1946 122.101 15.1589 122.158 15.1343C122.215 15.1097 122.277 15.0967 122.339 15.0961L122.351 15.0959L132.452 15.008C135.819 14.9812 139.186 14.9566 142.553 14.9619C149.287 14.9587 156.021 15.0573 162.755 15.1471L162.317 15.5857L162.496 8.14631L162.713 0.533393ZM162.796 0.450896L163.014 7.93145L163.193 15.5857C163.195 15.6993 163.153 15.8093 163.074 15.8915C162.996 15.9737 162.888 16.0213 162.775 16.024L162.771 16.0241L162.755 16.0243C156.021 16.1141 149.287 16.2127 142.553 16.2095C139.186 16.2149 135.819 16.1901 132.452 16.1635L122.351 16.0754L122.697 15.9321L120.636 17.9439L120.627 17.9529C120.543 18.0355 120.429 18.0811 120.31 18.0796C120.192 18.0782 120.08 18.0298 119.997 17.945L119.996 17.9439L117.994 15.8738L118.281 15.9931L112.849 15.8912L112.839 15.891C112.8 15.8904 112.761 15.8821 112.725 15.8664C112.688 15.8507 112.656 15.828 112.628 15.7997C112.601 15.7713 112.579 15.7378 112.565 15.7011C112.55 15.6644 112.543 15.6252 112.544 15.5857C112.581 13.07 112.642 10.5545 112.645 8.03888L112.668 4.26548C112.682 3.00774 112.664 1.74997 112.662 0.492218C112.662 0.442623 112.682 0.395068 112.717 0.359992C112.752 0.324916 112.8 0.305186 112.849 0.305129C117.017 0.284468 121.199 0.169478 125.4 0.0991029C129.604 0.00677159 133.816 -0.0190167 138 0.0133109C142.183 0.0453701 146.364 0.0842706 150.496 0.171332C154.636 0.244146 158.753 0.329069 162.796 0.450891V0.450896Z" fill="#FFFDF5"/>
</svg>
