<svg width="299" height="200" viewBox="0 0 299 200" fill="none" xmlns="http://www.w3.org/2000/svg">
<path d="M223.606 40.4193L223.613 40.4196C223.624 40.42 223.635 40.4175 223.645 40.4123L223.651 40.4095C224.576 39.9402 225.526 39.522 226.497 39.1568C227.459 38.7906 228.457 38.436 229.427 38.1516L229.348 38.163L229.362 38.1634C229.387 38.1641 229.411 38.161 229.434 38.1541L229.453 38.1482C234.579 36.5393 239.901 35.6423 245.271 35.4823C247.947 35.403 250.625 35.4884 253.291 35.7382L261.37 36.4213C266.758 36.8562 272.156 37.1672 277.552 37.5109C282.949 37.8381 288.343 38.1929 293.73 38.6419L293.615 38.229C292.662 38.9221 291.79 39.7207 291.016 40.6095C290.249 41.5088 289.597 42.4988 289.071 43.5573C288.563 44.6228 288.161 45.7355 287.869 46.8794C287.593 48.0258 287.416 49.1938 287.339 50.3705C287.208 52.7223 287.366 55.0813 287.81 57.3945C288.23 59.7179 288.888 61.9916 289.775 64.1795L290.416 63.3532C286.626 62.6367 282.837 61.9138 279.042 61.2251L267.66 59.1342L268.282 59.6951L268.2 59.4506L268.225 59.5171C267.674 57.7738 266.54 56.2735 265.013 55.2688C263.496 54.2667 261.697 53.7807 259.881 53.8828C258.059 54 256.329 54.7315 254.975 55.9582C254.798 56.1001 254.639 56.2621 254.499 56.4411L254.06 56.9583C253.796 57.3227 253.553 57.7016 253.331 58.0932C253.121 58.4816 252.977 58.881 252.798 59.2747C252.715 59.4728 252.624 59.6688 252.548 59.8686L252.36 60.479C251.454 63.7074 251.106 67.0668 251.33 70.4125C251.479 73.713 251.942 76.9917 252.713 80.2043L253.282 79.633L245.631 78.0321L237.964 76.4982C237.945 76.4943 237.925 76.4981 237.908 76.5088C237.892 76.5195 237.88 76.5362 237.876 76.5554C237.871 76.5746 237.875 76.5948 237.885 76.6116C237.895 76.6284 237.912 76.6406 237.931 76.6455L245.492 78.6301L253.067 80.5576C253.143 80.5769 253.223 80.5767 253.299 80.5571C253.375 80.5374 253.445 80.4988 253.503 80.445C253.56 80.3911 253.603 80.3237 253.627 80.2489C253.651 80.1741 253.657 80.0943 253.642 80.017L253.636 79.9861C253.025 76.8157 252.675 73.6002 252.592 70.3724C252.455 67.1866 252.859 64.0006 253.789 60.9506L253.969 60.3935C254.04 60.2138 254.125 60.0404 254.202 59.8635C254.365 59.5177 254.502 59.1453 254.684 58.8205C254.89 58.5189 255.052 58.1835 255.286 57.9057L255.645 57.4955C255.755 57.3514 255.884 57.2229 256.029 57.1135C257.126 56.1465 258.516 55.5776 259.976 55.499C261.442 55.4148 262.897 55.8049 264.124 56.6117C265.347 57.4188 266.262 58.6151 266.721 60.007L266.746 60.0738C266.75 60.0929 266.756 60.1114 266.764 60.1292L266.815 60.2446C266.866 60.36 266.945 60.461 267.045 60.5387C267.144 60.6164 267.262 60.6685 267.386 60.6903L278.795 62.6231C282.597 63.2756 286.404 63.894 290.211 64.5187C290.317 64.536 290.425 64.5246 290.525 64.4854C290.624 64.4463 290.712 64.381 290.777 64.2964C290.843 64.2118 290.885 64.111 290.898 64.0047C290.911 63.8984 290.895 63.7905 290.853 63.6923C289.948 61.6008 289.243 59.4285 288.746 57.2043C288.229 54.9769 287.997 52.6928 288.054 50.4068C288.092 49.2674 288.227 48.1332 288.458 47.0169C288.703 45.9047 289.071 44.8234 289.556 43.7929C290.05 42.7675 290.668 41.8066 291.395 40.9316C292.134 40.0632 292.969 39.2808 293.883 38.5993L293.889 38.5944C293.926 38.5661 293.953 38.5275 293.967 38.4837C293.981 38.4399 293.981 38.3928 293.968 38.3487C293.955 38.3046 293.929 38.2655 293.893 38.2365C293.857 38.2075 293.814 38.19 293.768 38.1863C288.38 37.7483 283 37.2195 277.622 36.657C272.243 36.1119 266.867 35.5341 261.481 35.0803L253.399 34.4302C250.678 34.198 247.945 34.1561 245.218 34.3049C242.493 34.4559 239.784 34.8121 237.112 35.3706C234.443 35.9111 231.821 36.664 229.272 37.6222L229.362 37.6071L229.348 37.6075L229.327 37.6081C229.307 37.6087 229.288 37.6124 229.269 37.6189C228.259 37.98 227.314 38.3813 226.352 38.8114C225.395 39.2388 224.468 39.7287 223.575 40.278L223.613 40.268L223.606 40.2682C223.586 40.269 223.568 40.2773 223.554 40.2914C223.541 40.3055 223.533 40.3243 223.533 40.3438C223.533 40.3633 223.541 40.3821 223.554 40.3962C223.568 40.4103 223.586 40.4186 223.606 40.4193L223.606 40.4193Z" fill="black"/>
<path d="M190.566 60.5697C190.997 58.4112 191.861 56.3628 193.106 54.5486C193.728 53.6789 194.443 52.8799 195.238 52.166C196.044 51.4617 196.907 50.8265 197.819 50.2673C199.693 49.1711 201.691 48.3053 203.772 47.6888C205.883 47.0493 208.04 46.579 210.225 46.2824L210.267 46.2783C211.014 46.07 211.758 45.8476 212.5 45.6111C211.722 45.6493 210.948 45.7048 210.176 45.7729L210.217 45.7688C207.936 45.6691 205.652 45.8866 203.43 46.4153C201.174 46.9238 199.015 47.797 197.04 49.0004C195.025 50.215 193.348 51.9167 192.163 53.9491C191.022 55.9633 190.469 58.2569 190.566 60.5697V60.5697Z" fill="black"/>
<path d="M262.081 54.3448C260.765 53.8351 259.434 53.3914 258.095 52.9889C256.756 52.581 255.411 52.2043 254.058 51.8588C252.71 51.4951 251.347 51.1985 249.989 50.8779C248.623 50.5912 247.261 50.2915 245.885 50.0507L245.567 49.9951L245.367 50.1478C244.803 50.5838 244.282 51.0736 243.813 51.6102C243.347 52.1208 242.919 52.6647 242.532 53.2377C242.144 53.8036 241.796 54.3958 241.491 55.0101C241.183 55.6177 240.922 56.2483 240.712 56.8962C241.106 56.3444 241.511 55.8102 241.929 55.2937C242.352 54.7779 242.78 54.2633 243.225 53.7963C243.68 53.3229 244.146 52.8648 244.63 52.4335C245.102 52.0177 245.597 51.628 246.112 51.2662L245.595 51.3632C246.943 51.725 248.304 52.0285 249.662 52.3501C251.028 52.6363 252.388 52.9465 253.763 53.1897C255.133 53.4532 256.511 53.6834 257.897 53.8801C259.28 54.0845 260.673 54.2476 262.081 54.3448Z" fill="black"/>
<path d="M281.236 37.3843C279.623 38.877 278.354 40.7028 277.517 42.7353C276.641 44.7673 276.088 46.924 275.879 49.127C275.704 51.3246 275.839 53.5359 276.279 55.696C276.333 55.9645 276.373 56.2349 276.437 56.5005L276.662 57.2894L277.135 58.8534C277.517 59.8728 277.964 60.8668 278.433 61.8367C278.281 60.7548 278.029 59.7176 277.853 58.6682L277.632 57.0911L277.51 56.3093C277.477 56.0479 277.467 55.7834 277.445 55.5213C277.408 54.9957 277.366 54.4728 277.311 53.9522C277.272 53.4302 277.293 52.9054 277.28 52.3838C277.256 51.3424 277.291 50.3005 277.382 49.2628C277.574 47.1879 277.987 45.1396 278.614 43.1526C279.245 41.1285 280.126 39.1908 281.236 37.3843V37.3843Z" fill="black"/>
<path d="M240.304 53.1082C239.176 52.6865 238.04 52.272 236.897 51.8789C236.961 52.3456 236.994 52.8159 236.997 53.2868C237.976 53.5942 238.961 53.8872 239.954 54.1731C240.626 54.3661 241.297 54.559 241.975 54.752C242.068 54.609 242.161 54.4732 242.254 54.3446C242.347 54.2088 242.447 54.0802 242.532 53.9587C241.79 53.6657 241.047 53.3869 240.304 53.1082Z" fill="black"/>
<path d="M229.048 50.6928C229.92 50.9929 230.777 51.2931 231.648 51.5861H231.655C231.927 51.1562 232.243 50.7561 232.598 50.3926L232.277 50.2854C231.312 49.9709 230.348 49.6564 229.384 49.3491C229.27 49.8351 229.148 50.2854 229.048 50.6928Z" fill="black"/>
<path d="M233.955 45.9829C232.519 45.5183 231.084 45.0538 229.641 44.6035C229.797 45.0833 229.872 45.5857 229.862 46.0901C231.069 46.5189 232.291 46.9263 233.505 47.3408C236.197 48.2199 238.904 49.0847 241.633 49.8637C242.897 50.2353 244.168 50.5903 245.447 50.9286C246.918 51.3217 248.389 51.6934 249.882 52.015C249.289 51.7505 248.696 51.4861 248.096 51.2288C248.089 51.2288 248.089 51.2288 248.082 51.2216C246.068 50.364 244.025 49.5707 241.983 48.8059C239.326 47.8054 236.64 46.8906 233.955 45.9829Z" fill="black"/>
<path d="M222.72 43.4528C222.842 43.5028 222.963 43.5529 223.084 43.5957C223.397 43.3343 223.749 43.1244 224.127 42.974C223.742 42.8667 223.356 42.7595 222.97 42.6523C222.877 42.9525 222.792 43.2241 222.72 43.4528Z" fill="black"/>
<path d="M290.312 63.9332C306.437 49.2062 293.746 38.417 293.746 38.417C282.476 46.5831 290.312 63.9332 290.312 63.9332Z" fill="black"/>
<path d="M253.176 80.0926C266.481 84.0642 267.522 59.9111 267.522 59.9111C267.507 59.8616 267.491 59.8124 267.475 59.7635C265.475 53.614 256.899 52.8186 253.941 58.5684C249.932 66.3601 253.176 80.0926 253.176 80.0926Z" fill="black"/>
<path d="M243.139 77.2079C245.343 82.6416 247.597 88.0193 249.672 93.4466C251.792 98.8071 253.579 104.294 255.022 109.875C255.362 111.245 255.624 112.633 255.805 114.033C256.002 115.388 255.996 116.765 255.787 118.118C255.677 118.754 255.461 119.368 255.148 119.933C254.829 120.47 254.387 120.923 253.858 121.254C252.65 121.866 251.277 122.072 249.944 121.84C247.111 121.348 244.385 120.366 241.889 118.937C241.255 118.586 240.621 118.239 239.995 117.872L238.144 116.72C236.895 115.979 235.725 115.112 234.527 114.297C233.334 113.474 232.198 112.567 231.034 111.709L229.344 110.346C228.781 109.892 228.203 109.46 227.66 108.981C226.569 108.032 225.433 107.142 224.372 106.161L222.754 104.724L221.178 103.241C219.085 101.257 217.071 99.1937 215.138 97.0523C213.19 94.927 211.321 92.7311 209.497 90.4986C205.838 86.0228 202.431 81.3466 199.292 76.4916C197.718 74.0593 196.206 71.5818 194.759 69.0589C193.31 66.5384 191.922 63.9707 190.659 61.3389L190.374 61.44C192.084 67.0901 194.387 72.5427 197.247 77.7061C200.07 82.9096 203.328 87.8645 206.986 92.5178C210.684 97.1532 214.789 101.448 219.253 105.35L220.928 106.807L222.651 108.209C223.791 109.151 224.985 110.029 226.179 110.901C227.374 111.771 228.616 112.579 229.846 113.394C231.113 114.158 232.346 114.967 233.634 115.689C234.92 116.413 236.189 117.158 237.501 117.829C238.801 118.516 240.097 119.21 241.426 119.853C244.072 121.221 246.894 122.216 249.812 122.811C251.368 123.14 252.988 122.976 254.448 122.344C255.201 121.965 255.853 121.412 256.349 120.73C256.815 120.055 257.171 119.31 257.403 118.523C257.815 117.015 257.996 115.453 257.939 113.891C257.898 112.375 257.746 110.865 257.485 109.372C256.951 106.438 256.169 103.555 255.147 100.753C254.167 97.9578 253.047 95.2265 251.832 92.5435C251.236 91.1969 250.589 89.8747 249.937 88.5567C249.291 87.2361 248.61 85.9333 247.908 84.6422C246.51 82.0576 245.037 79.5157 243.405 77.0649L243.139 77.2079Z" fill="black"/>
<path d="M278.637 41.5472C274.524 40.9278 270.4 40.457 266.272 40.0386C262.144 39.6108 258.01 39.2711 253.875 38.9485C249.738 38.654 245.599 38.3785 241.454 38.1906C237.309 37.9934 233.161 37.8496 229.001 37.8557C233.114 38.4769 237.238 38.9484 241.366 39.3664C245.494 39.7939 249.628 40.1335 253.763 40.4543C257.901 40.747 262.04 41.0225 266.185 41.2099C270.329 41.4067 274.478 41.5513 278.637 41.5472Z" fill="black"/>
<path d="M228.12 110.884C228.711 105.635 229.28 100.377 229.789 95.114L229.985 93.1405L230.082 92.1536C230.092 92.0766 230.095 91.9773 230.11 91.9187C230.128 91.8719 230.142 91.8239 230.154 91.7751C230.203 91.6433 230.259 91.5141 230.322 91.3881C230.905 90.2829 231.67 89.1774 232.379 88.074C233.828 85.8653 235.224 83.6007 236.473 81.2432C237.09 80.0604 237.672 78.8545 238.181 77.61C238.684 76.3498 239.106 75.0948 239.543 73.8558C240.421 71.3677 241.291 68.8773 242.128 66.3756L243.399 62.6279L243.717 61.691C243.84 61.3364 243.923 60.9688 243.964 60.5954C244.052 59.836 243.945 59.0664 243.653 58.36C243.362 57.6081 242.809 56.9871 242.095 56.6119C241.358 56.2879 240.526 56.2545 239.765 56.5184C238.456 57.0098 237.262 57.7641 236.256 58.735L237.041 59.1763C237.223 57.9018 237.339 56.6189 237.39 55.3325C237.415 54.6906 237.419 54.0415 237.393 53.3989C237.339 52.7511 237.313 52.0927 237.204 51.4499C237.11 50.7651 236.866 50.1097 236.488 49.5307C236.264 49.2055 235.932 48.9697 235.551 48.8645C235.185 48.7893 234.806 48.8103 234.45 48.9252C233.167 49.3616 232.091 50.2568 231.427 51.4388L231.655 51.3145H231.648L231.5 51.3154L231.422 51.4363C230.983 52.14 230.586 52.8688 230.232 53.619C230.068 53.9757 229.876 54.3186 229.657 54.6444C229.521 54.8046 229.523 54.8024 229.331 54.8136C229.271 54.8197 229.21 54.8072 229.157 54.7777C229.104 54.7483 229.061 54.7033 229.034 54.6489C228.901 54.3066 228.848 53.9385 228.878 53.5725C228.889 53.1711 228.92 52.7706 228.973 52.3725C229.075 51.5679 229.233 50.7714 229.446 49.9888C229.664 49.192 229.839 48.3843 229.971 47.569C230.121 46.7352 230.133 45.8823 230.005 45.0447C229.925 44.6105 229.764 44.1953 229.53 43.8209C229.284 43.4425 228.949 43.1306 228.554 42.9132C227.773 42.531 226.905 42.3635 226.038 42.428L226.083 42.4301C225.713 42.3945 225.341 42.4068 224.974 42.4667C224.612 42.5253 224.257 42.6257 223.917 42.7659C223.231 43.0538 222.635 43.5238 222.196 44.1253L222.224 44.0932C222.166 44.1538 222.133 44.233 222.13 44.3163L222.135 45.5349L222.694 44.4504L222.701 44.4363L222.708 44.4228L222.72 44.3885C223.72 41.7353 224.394 38.9701 224.727 36.154C224.797 35.4244 224.787 34.6893 224.697 33.9619C224.629 33.1507 224.278 32.3895 223.705 31.8118C223.371 31.5221 222.962 31.332 222.525 31.2629C222.101 31.2134 221.672 31.2572 221.267 31.3911C220.544 31.6625 219.883 32.0774 219.324 32.6109C218.274 33.6092 217.352 34.7333 216.577 35.9578C215.797 37.1475 215.079 38.3776 214.428 39.6429C213.072 42.1521 212.002 44.8058 211.239 47.554C210.511 50.2752 209.824 52.9714 208.891 55.5734C207.949 58.1431 206.813 60.7288 205.005 62.6029C204.167 63.5224 203.043 64.1319 201.815 64.333C201.185 64.3987 200.548 64.3728 199.925 64.2562C199.261 64.1646 198.604 64.0297 197.958 63.8523C196.661 63.5008 195.411 62.9965 194.234 62.3498C193.069 61.7131 191.993 60.926 191.034 60.0085L190.262 59.2424L189.852 60.1799C189.406 61.233 189.136 62.3518 189.051 63.4921C188.958 64.5978 188.998 65.7105 189.169 66.8068C189.532 68.9757 190.316 71.0525 191.478 72.9196C192.054 73.8679 192.755 74.7344 193.563 75.4956C194.384 76.2258 195.281 76.8658 196.239 77.4048C197.181 77.9348 198.147 78.3746 199.032 78.8685C199.896 79.287 200.635 79.9252 201.175 80.7193C201.626 81.5797 201.864 82.5355 201.87 83.5069C201.939 84.5405 201.978 85.5829 201.991 86.6286C202.017 88.7198 201.977 90.818 201.902 92.9147C201.822 95.0114 201.74 97.1101 201.604 99.2056C201.456 101.297 201.34 103.404 200.989 105.465L201.128 105.497C201.576 103.429 201.784 101.333 202.027 99.2418C202.248 97.1483 202.45 95.0518 202.588 92.9498C202.728 90.848 202.833 88.7431 202.872 86.63C202.892 85.5735 202.884 84.5128 202.847 83.448C202.865 82.3115 202.609 81.1874 202.099 80.1716C201.479 79.2029 200.616 78.4143 199.596 77.885C198.655 77.3382 197.713 76.8884 196.834 76.3705C195.969 75.8618 195.16 75.2627 194.421 74.5831C193.711 73.8868 193.098 73.0983 192.599 72.2386C191.566 70.5058 190.881 68.5884 190.582 66.5935C190.432 65.6105 190.4 64.6131 190.487 63.6225C190.563 62.6631 190.788 61.7213 191.152 60.8307L189.971 61.002C192.101 63.0495 194.714 64.5244 197.567 65.2895C198.271 65.4857 198.988 65.6358 199.712 65.7389C200.082 65.7789 200.421 65.8484 200.817 65.8629L201.41 65.8808C201.609 65.869 201.808 65.846 202.007 65.8273C203.574 65.595 205.012 64.8285 206.079 63.6574C208.158 61.4355 209.267 58.7137 210.226 56.0451C211.159 53.3541 211.828 50.5992 212.521 47.8962C212.698 47.2228 212.874 46.5523 213.087 45.9169C213.304 45.2689 213.549 44.6234 213.805 43.9814C214.318 42.6974 214.884 41.4291 215.501 40.1892C216.11 38.9488 216.785 37.7414 217.521 36.5721C218.229 35.4125 219.07 34.3399 220.027 33.3761C220.471 32.9245 220.999 32.5653 221.583 32.3194C221.843 32.2248 222.119 32.1859 222.395 32.2052C222.655 32.2399 222.9 32.3452 223.103 32.5096C223.526 32.9369 223.787 33.4968 223.845 34.0948C223.945 34.7581 223.972 35.4303 223.926 36.0994C223.666 38.8676 223.069 41.5937 222.149 44.2173L222.168 44.1698L222.161 44.184L222.725 44.3182C222.726 44.3544 222.719 44.3903 222.706 44.4238C222.692 44.4573 222.672 44.4876 222.646 44.5129L222.673 44.4806C223.039 43.9494 223.544 43.5293 224.133 43.2663C224.724 43.0064 225.37 42.8962 226.014 42.9454L226.042 42.9481L226.059 42.9476C226.832 42.8806 227.61 43.019 228.313 43.3487C228.639 43.5349 228.918 43.7925 229.131 44.1023C229.343 44.412 229.483 44.7659 229.539 45.1373C229.662 45.9216 229.657 46.7209 229.522 47.5035C229.399 48.3064 229.234 49.1024 229.027 49.8879C228.808 50.6857 228.64 51.4964 228.523 52.3152C228.463 52.7285 228.426 53.1447 228.41 53.5621C228.368 54.0146 228.438 54.4706 228.615 54.8893C228.688 55.011 228.79 55.1127 228.912 55.1854C229.034 55.2581 229.172 55.2995 229.314 55.3059C229.455 55.3123 229.596 55.2835 229.724 55.2221C229.852 55.1607 229.963 55.0686 230.047 54.954C230.292 54.6051 230.507 54.236 230.69 53.8507C231.043 53.1231 231.439 52.4168 231.874 51.7354L231.648 51.8571L231.655 51.8571L231.802 51.858L231.883 51.7327C232.476 50.6758 233.45 49.8847 234.605 49.5203C234.84 49.4187 235.104 49.4037 235.349 49.4779C235.594 49.5521 235.805 49.7108 235.945 49.9257C236.24 50.4282 236.424 50.9884 236.484 51.5684C236.568 52.1805 236.571 52.7966 236.606 53.4139C236.612 54.0408 236.59 54.6623 236.547 55.2882C236.459 56.5383 236.309 57.7831 236.097 59.0181L235.878 60.291L236.882 59.4595C237.804 58.6166 238.886 57.9672 240.063 57.5498C240.564 57.3814 241.111 57.4084 241.593 57.6254C242.044 57.8977 242.387 58.3175 242.564 58.8137C242.773 59.3358 242.845 59.9026 242.773 60.4604C242.74 60.7435 242.674 61.0219 242.578 61.29L242.251 62.2251L240.944 65.9656C240.063 68.456 239.214 70.9577 238.373 73.4618C237.947 74.7172 237.54 75.9702 237.078 77.1666C236.601 78.3717 236.049 79.5521 235.458 80.7157C234.27 83.0433 232.892 85.2769 231.509 87.5219C230.825 88.658 230.107 89.7454 229.492 90.9936C229.412 91.1646 229.343 91.3405 229.285 91.5203C229.258 91.6324 229.234 91.7458 229.214 91.8583C229.198 91.9614 229.2 92.0285 229.192 92.1153L229.122 93.1013L228.983 95.0736C228.6 100.333 228.277 105.598 227.977 110.871L228.12 110.884Z" fill="black"/>
<path d="M219.514 52.0143L222.76 44.4457L222.092 44.1926L219.514 52.0143Z" fill="black"/>
<path d="M113.761 26.1587C116.394 27.275 119.138 28.2136 121.886 29.0747C124.648 29.927 127.455 30.6256 130.295 31.1671C133.149 31.752 136.057 32.0419 138.971 32.0322C140.449 32.0187 141.924 31.8674 143.374 31.5801C144.868 31.2952 146.299 30.7412 147.595 29.945L147.532 29.9813C149.712 28.8927 151.904 27.8271 154.072 26.7145L154.796 26.3432L154.36 25.7162C154.308 25.6321 154.242 25.5569 154.166 25.4935C154.13 25.4591 154.09 25.4275 154.049 25.3992C153.983 25.354 153.906 25.2949 153.848 25.2643C153.727 25.1981 153.598 25.1164 153.484 25.0674C153.248 24.9508 153.016 24.851 152.786 24.7638C152.325 24.5841 151.868 24.4247 151.409 24.2884C150.493 23.9977 149.571 23.7779 148.649 23.5622C146.806 23.1368 144.957 22.7771 143.101 22.4828C141.247 22.171 139.39 21.8973 137.531 21.6448C135.674 21.3814 133.812 21.162 131.952 20.9289L132.204 21.0677L128.399 16.711C127.129 15.2569 125.906 13.7807 124.592 12.3428C121.94 9.49765 118.867 7.07661 115.481 5.16418C113.782 4.21875 112.017 3.39809 110.199 2.70867C108.374 2.03805 106.506 1.48959 104.607 1.06689C100.804 0.0988883 96.863 -0.213685 92.9544 0.142582C88.9982 0.631848 85.2269 2.10283 81.9833 4.4218C78.7569 6.77496 76.1286 9.85423 74.3104 13.4111C73.4102 15.1881 72.7083 17.059 72.2174 18.9898L71.8991 20.4493C71.8106 20.9327 71.7254 21.4125 71.6518 21.8971C71.4977 22.8637 71.3724 23.8357 71.2761 24.8132C71.0668 26.7753 71.019 28.7513 71.133 30.7212C71.2392 32.7213 71.6037 34.6992 72.2173 36.6057L72.464 37.347L73.2097 37.1227L83.2856 34.0917L93.389 31.1484C96.7569 30.1675 100.133 29.2156 103.524 28.3269C105.216 27.8694 106.915 27.4382 108.619 27.033C109.474 26.8555 110.325 26.6265 111.186 26.4908L112.477 26.2594L113.761 26.1587ZM113.796 26.0042L112.451 26.0181L111.136 26.1684C110.256 26.2612 109.398 26.4456 108.526 26.58C106.796 26.8978 105.069 27.2379 103.353 27.6173C99.9202 28.3796 96.5037 29.205 93.0954 30.0594C89.686 30.9115 86.2962 31.8337 82.9048 32.7496C79.516 33.6769 76.1262 34.5931 72.7512 35.5798L73.7434 36.0967C72.6112 32.5825 72.6192 28.73 72.96 24.9791C73.0504 24.037 73.1701 23.0968 73.3191 22.1584C73.3894 21.6897 73.4722 21.2199 73.5565 20.7551L73.8526 19.3884C74.2921 17.5743 74.9278 15.8133 75.7483 14.1369C77.4129 10.7753 79.8436 7.8521 82.8442 5.60292C85.8717 3.37142 89.3983 1.91428 93.1171 1.35839C96.892 0.912083 100.715 1.09554 104.429 1.90127C108.199 2.57365 111.838 3.84089 115.21 5.65566C118.581 7.48455 121.627 9.85992 124.222 12.6853C126.746 15.5681 129.152 18.6059 131.59 21.586L131.682 21.6989L131.842 21.725C133.688 22.0258 135.536 22.3153 137.376 22.6436C139.217 22.9613 141.055 23.2999 142.881 23.675C144.709 24.0458 146.53 24.4425 148.328 24.8879C149.226 25.1128 150.119 25.3581 150.989 25.631C151.426 25.7624 151.853 25.9145 152.263 26.0758C152.472 26.1556 152.668 26.2415 152.852 26.3335C152.953 26.3768 153.02 26.4261 153.105 26.4707C153.137 26.4892 153.167 26.5093 153.196 26.5311C153.212 26.5415 153.225 26.5509 153.216 26.5451C153.206 26.5282 153.242 26.5866 153.146 26.4464L153.434 25.4484C151.252 26.5333 149.093 27.6655 146.923 28.7745L146.889 28.7921L146.86 28.8108C144.608 30.2791 141.729 30.7022 138.943 30.8022C137.529 30.8368 136.114 30.795 134.704 30.6769C133.288 30.5747 131.872 30.4035 130.463 30.1836C127.64 29.761 124.847 29.1198 122.066 28.4305C119.281 27.7307 116.543 26.9171 113.796 26.0042Z" fill="black"/>
<path d="M96.3569 4.40076C97.7095 5.99073 99.0948 7.53617 100.487 9.07326L104.659 13.6773C106.049 15.2092 107.428 16.7507 108.796 18.3017C110.155 19.8623 111.498 21.4321 112.833 23.0386C111.842 21.1985 110.706 19.4405 109.436 17.7815C108.186 16.1081 106.828 14.5237 105.441 12.9683C104.035 11.4293 102.586 9.93287 101.074 8.49977C99.5739 7.05251 97.9993 5.68431 96.3569 4.40076Z" fill="black"/>
<path d="M89.135 5.16138C88.0164 7.19236 87.0272 9.29208 86.1734 11.448C85.3055 13.598 84.5473 15.7899 83.8989 18.0238C83.2559 20.259 82.7546 22.5326 82.3979 24.831C82.043 27.1316 81.9441 29.4644 82.1031 31.7868C82.3533 29.4997 82.7223 27.2272 83.2086 24.9785C83.7023 22.7395 84.2826 20.5213 84.913 18.3156C85.5356 16.1067 86.2411 13.9201 86.9446 11.7292C87.6691 9.54523 88.3831 7.35268 89.135 5.16138Z" fill="black"/>
<path d="M131.897 21.3269C130.649 21.3442 129.403 21.4315 128.165 21.5885C126.93 21.7275 125.707 21.9272 124.486 22.1387C123.268 22.3697 122.052 22.6137 120.848 22.9182C119.633 23.2071 118.437 23.5648 117.263 23.9894C118.511 23.9735 119.757 23.8867 120.995 23.7294C122.23 23.5902 123.453 23.3904 124.674 23.1776C125.892 22.9454 127.107 22.7014 128.312 22.3966C129.526 22.1074 130.723 21.7503 131.897 21.3269V21.3269Z" fill="black"/>
<path d="M131.897 30.9189C131.877 31.9795 131.933 33.0383 132.009 34.0986C132.077 35.1689 132.229 36.2321 132.465 37.2783C132.581 37.8435 132.794 38.3844 133.094 38.8773C133.364 39.2807 133.627 39.7521 133.889 40.2011C134.416 41.1079 134.926 42.0305 135.435 42.9525C136.463 44.7909 137.473 46.6384 138.467 48.495C138.955 49.4267 139.46 50.3498 139.927 51.287C140.162 51.7547 140.384 52.2267 140.602 52.6953C140.709 52.9301 140.81 53.1658 140.898 53.3981C140.937 53.5119 140.984 53.6316 141.007 53.7333C141.022 53.7762 141.032 53.8206 141.036 53.8656C141.038 53.8742 141.045 53.9167 141.045 53.898C141.045 53.8802 141.05 53.8627 141.058 53.8472C141.067 53.8317 141.079 53.8186 141.094 53.8093L141.288 53.6731C140.928 53.7588 140.557 53.7937 140.187 53.7769C139.792 53.7612 139.399 53.7082 139.014 53.6187C138.621 53.5267 138.235 53.4104 137.857 53.2705C137.475 53.1248 137.102 52.9584 136.739 52.7719L136.685 52.745L136.65 52.752C136.279 52.8223 135.931 52.9834 135.638 53.2209C135.357 53.4572 135.157 53.7746 135.064 54.1295C135.203 53.8083 135.438 53.538 135.736 53.3555C136.02 53.1762 136.343 53.0686 136.678 53.0422L136.589 53.0223C137.29 53.5084 138.055 53.8937 138.863 54.1667C139.278 54.3006 139.704 54.395 140.136 54.4487C140.594 54.512 141.058 54.4967 141.511 54.4032L141.641 54.3744L141.705 54.267C141.755 54.1807 141.79 54.0862 141.809 53.9879C141.815 53.9333 141.815 53.8782 141.81 53.8235C141.808 53.7367 141.796 53.6504 141.776 53.5659C141.747 53.4222 141.711 53.2801 141.667 53.1402C141.584 52.8727 141.492 52.6169 141.395 52.3642C141.203 51.8596 140.986 51.3712 140.766 50.8858C140.322 49.9171 139.864 48.9599 139.373 48.0199C138.408 46.1316 137.376 44.2825 136.313 42.4504C135.774 41.5387 135.224 40.6335 134.657 39.7338C134.368 39.2822 134.085 38.8479 133.742 38.3917C133.476 37.9899 133.275 37.5487 133.147 37.0843C132.583 35.062 132.165 33.0015 131.897 30.9189V30.9189Z" fill="black"/>
<path d="M129.236 56.7639C132.277 52.0728 136.664 54.1293 136.664 54.1293C136.664 54.1293 138.359 77.4303 127.969 78.0643C120.062 78.5467 113.259 73.7421 108.475 68.5681C105.997 65.875 104.43 62.4699 103.993 58.8354C103.344 53.5282 102.37 45.5105 102.122 43.1976C101.742 39.6476 100.304 30.3523 95.1532 30.9187C95.1532 30.9187 84.3836 31.026 89.9585 49.6638C89.9585 49.6638 91.4789 61.3283 81.5961 59.9336C81.5961 59.9336 83.6233 54.1014 80.9626 49.6638C78.3019 45.2262 74.8038 39.6161 74.9691 35.7648C74.9691 35.7648 109.851 25.4473 113.778 26.0813C111.361 27.3583 109.417 29.3774 108.231 31.8421C107.045 34.3067 106.68 37.0869 107.19 39.7744C108.349 47.3111 113.923 57.4253 116.509 61.811C116.919 62.5105 117.511 63.0858 118.222 63.4756C118.933 63.8654 119.736 64.0552 120.546 64.0248C122.043 63.9646 123.762 63.7451 124.58 63.1033C126.195 61.8354 129.236 56.7639 129.236 56.7639Z" fill="black"/>
<path d="M129.609 34.4116C128.869 33.841 128.021 33.4251 127.117 33.1885C126.197 32.9295 125.235 32.8493 124.285 32.9521C123.314 33.0684 122.39 33.4369 121.605 34.021C120.842 34.5912 120.256 35.3663 119.916 36.2563C120.556 35.6541 121.272 35.1371 122.045 34.718C122.786 34.3393 123.589 34.0961 124.416 33.9999C125.263 33.906 126.117 33.9045 126.963 33.9953C127.829 34.0859 128.704 34.228 129.609 34.4116Z" fill="black"/>
<path d="M99.7146 47.3819C98.016 48.0485 96.0504 47.9732 94.7925 46.8574C94.1582 46.2947 93.6517 45.6026 93.3072 44.8275C92.9364 44.0307 92.6393 43.2015 92.4197 42.3504C91.9298 40.6342 91.6402 38.867 91.5567 37.0842C91.5176 36.1893 91.5401 35.2928 91.6239 34.401C91.6658 33.9527 91.7308 33.5068 91.8185 33.0651C91.8581 32.8418 91.9145 32.6243 91.9737 32.4052C92.0201 32.1835 92.1104 31.9734 92.2391 31.7871C91.9208 32.1288 91.6816 32.5363 91.5382 32.9808C91.3685 33.4151 91.2265 33.8597 91.1131 34.312C90.8974 35.2214 90.77 36.1495 90.7327 37.0834C90.6649 38.9574 90.8912 40.8304 91.4033 42.6342C91.9112 44.3866 92.6497 46.3261 94.2964 47.5116C95.1061 48.092 96.0923 48.3724 97.086 48.305C98.0298 48.2425 98.9387 47.9234 99.7146 47.3819V47.3819Z" fill="black"/>
<path d="M112.006 71.9517C111.385 72.3312 110.81 72.7828 110.295 73.297C109.777 73.7969 109.299 74.3373 108.866 74.9131C108.427 75.4942 108.049 76.1189 107.737 76.7773C107.374 77.4405 107.227 78.2008 107.317 78.9517C107.621 78.3247 108 77.7366 108.445 77.2001C108.863 76.6493 109.301 76.1083 109.712 75.5453C110.13 74.9864 110.537 74.4141 110.926 73.8225C111.331 73.2261 111.692 72.6009 112.006 71.9517V71.9517Z" fill="black"/>
<path d="M81.596 59.9336C80.9248 60.9728 80.3132 62.0494 79.7643 63.1582C79.487 63.6884 79.2125 64.2117 78.9037 64.7104C78.5985 65.2355 78.2258 65.7183 77.795 66.1462C78.4654 66.0527 79.0827 65.7297 79.5418 65.232C80.0111 64.7713 80.4019 64.2367 80.6986 63.6497C80.9966 63.0795 81.2261 62.476 81.3822 61.8518C81.5529 61.2275 81.6251 60.5802 81.596 59.9336V59.9336Z" fill="black"/>
<path d="M66.1356 57.2677C66.1356 57.2677 78.3558 58.1611 80.4199 63.0425L80.0485 63.7429L78.6843 63.0425C72.1278 59.7763 68.421 64.1146 72.9777 64.8793C77.5416 65.6369 104.718 78.0941 104.718 78.0941C116.502 81.4317 123.409 99.3635 123.409 99.3635C121.509 98.5488 119.573 97.8198 117.652 97.0408C115.681 96.4047 113.724 95.7185 111.731 95.1539C107.73 94.0235 103.65 93.1945 99.5252 92.6739C95.3931 92.1417 91.2192 92.0125 87.0621 92.288C86.0265 92.4023 84.9909 92.4667 83.9553 92.6168C82.9339 92.7954 81.8983 92.9169 80.8841 93.1599C78.8442 93.561 76.8575 94.1966 74.9633 95.0539C76.9331 94.4645 78.9536 94.0601 80.9984 93.846C82.0126 93.6888 83.0411 93.6388 84.0552 93.5459C85.0766 93.4815 86.0979 93.4458 87.1192 93.3958C91.2087 93.3337 95.2974 93.5653 99.3538 94.089L102.396 94.4821L105.425 95.0182L106.939 95.2683L108.439 95.5971C109.446 95.8186 110.446 96.033 111.453 96.2403C113.452 96.7049 115.438 97.2337 117.445 97.7126C119.43 98.2557 121.402 98.8561 123.409 99.3636C154.32 104.438 184.481 123.456 186.502 122.949C188.531 122.441 190.309 106.468 190.309 102.358C190.309 98.2557 191.066 90.487 197.151 90.487C203.229 90.487 202.472 95.8115 202.472 95.8115C191.066 98.8561 217.421 101.143 225.277 102.151C233.134 103.166 228.827 100.128 228.827 100.128C228.827 100.128 231.105 97.6911 233.548 100.721C234.31 101.699 234.824 102.847 235.045 104.067C235.267 105.287 235.189 106.542 234.819 107.726C234.041 110.327 232.891 114.272 232.119 117.367C230.848 122.441 226.291 158.955 224.77 162.507C223.249 166.052 191.83 175.436 124.93 170.619C119.509 169.769 114.109 168.868 108.71 167.968C103.318 167.046 97.9253 166.102 92.5758 165.009C89.8975 164.473 87.2192 163.915 84.5695 163.279C81.9054 162.672 79.2628 161.997 76.6417 161.256C74.0191 160.519 71.4351 159.651 68.8996 158.655C66.332 157.73 63.9408 156.374 61.8288 154.646C62.7594 155.665 63.8266 156.55 65 157.276C66.1606 158.026 67.3676 158.701 68.6139 159.298C71.1156 160.464 73.6869 161.473 76.3131 162.321C81.5563 163.989 86.8908 165.354 92.2902 166.409C97.6825 167.482 103.101 168.368 108.546 169.068C113.988 169.79 119.452 170.319 124.93 170.619C124.93 170.619 127.365 185.435 128.637 198.764H33.3459C33.4459 185.749 33.4673 168.504 33.0673 152.995C32.3103 123.077 33.0673 108.998 33.0673 108.998C34.4374 108.846 35.7906 108.569 37.1098 108.169C38.4311 107.79 39.7239 107.34 41.0166 106.875C43.5949 105.946 46.1089 104.86 48.6087 103.745C51.0942 102.608 53.551 101.422 55.9722 100.143C58.3934 98.8776 60.7861 97.5411 63.1002 96.0688C60.5218 97.0122 58.0007 98.0629 55.4937 99.142C52.9868 100.207 50.5085 101.336 48.0159 102.444L40.5952 105.846C38.1026 106.947 35.6671 108.133 33.0673 108.998C33.0673 108.998 20.5257 114.708 19.383 100.25C18.2474 85.7985 31.9318 54.609 66.1356 57.2677ZM60.8718 104.223C59.6113 105.414 58.5117 106.764 57.6007 108.24C57.1508 108.976 56.7651 109.755 56.358 110.527C56.008 111.32 55.7223 112.135 55.3938 112.943C55.2387 113.347 55.1145 113.763 55.0224 114.186L54.6939 115.444C54.4723 116.28 54.31 117.13 54.2082 117.989L54.0368 119.275L53.9511 119.918L53.9225 120.561L53.8368 123.142L53.8154 123.785L53.8583 124.428L53.9511 125.714C54.0082 126.572 54.0653 127.423 54.1582 128.273C54.4439 129.96 54.7153 131.646 55.0795 133.312C55.5437 134.956 55.9937 136.592 56.508 138.207C56.3009 136.514 56.0366 134.848 55.7723 133.183C55.5723 131.511 55.4581 129.831 55.2652 128.166L55.201 125.657L55.1652 124.407L55.1438 123.785L55.1867 123.163L55.3152 120.669L55.3438 120.047L55.4366 119.432L55.6223 118.203C56.0413 114.917 57.0349 111.731 58.5578 108.79C59.3463 107.333 60.2898 105.965 61.3718 104.709C62.4512 103.425 63.7148 102.307 65.1214 101.393C63.5439 102.069 62.1035 103.028 60.8718 104.223V104.223ZM42.8664 75.2782C43.3777 76.3547 44.2531 77.2154 45.3376 77.7081C45.8744 77.9531 46.4376 78.1354 47.016 78.2513C47.5937 78.3332 48.1755 78.3833 48.7587 78.4014C49.3372 78.3728 49.9229 78.3728 50.4943 78.3013L52.1941 78.0226C52.7583 77.9083 53.3011 77.7439 53.8582 77.6009L55.4652 77.165C56.5129 76.8913 57.5803 76.7001 58.6577 76.5932C60.8406 76.3895 63.0373 76.3823 65.2214 76.5718C69.6352 76.9705 74.009 77.7306 78.2987 78.8445C80.4556 79.3877 82.6125 79.9737 84.7481 80.6098C86.8978 81.2173 89.0119 81.9177 91.1403 82.6252C87.0939 80.6742 82.8975 79.0514 78.5915 77.7725C74.2759 76.4399 69.8333 75.5609 65.3356 75.1495C63.0592 74.9686 60.7708 75.0021 58.5006 75.2496C57.3578 75.3966 56.2282 75.6332 55.1224 75.9571L51.9441 76.9362L50.3514 77.2793C49.8157 77.3722 49.2801 77.3936 48.7444 77.4651C48.2087 77.5008 47.6731 77.4579 47.1446 77.4436C46.6205 77.3733 46.1057 77.2463 45.609 77.0649C44.5985 76.7172 43.7451 76.0203 43.2021 75.0994C42.9215 74.632 42.7098 74.1265 42.5736 73.5985C42.4129 73.065 42.3264 72.5119 42.3165 71.9547C42.1922 73.092 42.3824 74.2417 42.8664 75.2782H42.8664Z" fill="black"/>
<path d="M168.767 198.766C154.703 198.358 140.639 198.084 126.575 197.945C119.543 197.848 112.511 197.826 105.479 197.769L84.3835 197.71L63.2876 197.766C56.2557 197.825 49.2237 197.844 42.1918 197.942C28.1278 198.08 14.0638 198.355 -4.80975e-05 198.766C14.0639 199.177 28.1278 199.452 42.1918 199.591C49.2237 199.689 56.2557 199.708 63.2876 199.767L84.3835 199.822L105.479 199.764C112.511 199.707 119.543 199.685 126.575 199.588C140.639 199.449 154.703 199.175 168.767 198.766Z" fill="black"/>
<path d="M127.241 42.0653C124.483 42.0653 124.479 37.7771 127.241 37.7771C129.998 37.7771 130.002 42.0653 127.241 42.0653Z" fill="black"/>
</svg>
