<svg width="308" height="177" viewBox="0 0 308 177" fill="none" xmlns="http://www.w3.org/2000/svg">
<path d="M280.919 101.801C280.54 101.305 280.207 100.779 279.875 100.248C273.47 90.163 245.481 94.943 245.481 94.943C242.316 119.257 236.808 116.392 235.788 114.862C234.768 113.333 232.926 98.3164 231.708 96.2737C228.187 95.9643 220.995 96.0168 220.995 96.0168C214.053 96.1804 207.525 102.297 201.102 112.259C194.679 122.216 183.354 130.644 183.354 130.644C183.354 130.644 186.717 130.953 187.941 138.307C188.693 138.541 190.949 137.543 192.592 136.737C194.059 136.019 195.694 135.718 197.319 135.868C199.965 136.113 203.772 136.959 206.814 139.842C207.188 140.191 207.585 140.515 208.003 140.811C208.388 140.595 208.603 140.449 208.603 140.449C214.875 137.846 218.547 128.806 218.547 128.806C218.038 127.669 217.742 126.448 217.673 125.205C217.573 123.966 217.591 122.722 217.725 121.487C217.859 120.279 217.952 119.082 217.987 117.88C218.048 116.668 217.996 115.452 217.83 114.25C218.33 115.392 218.614 116.617 218.669 117.862C218.755 119.099 218.73 120.342 218.594 121.574C218.46 122.777 218.384 123.973 218.355 125.181C218.311 126.393 218.376 127.606 218.547 128.806C218.899 132.031 219.661 135.199 220.814 138.231C222.471 138.781 224.18 139.159 225.914 139.358C226.767 139.455 227.627 139.482 228.485 139.439C229.363 139.39 230.239 139.297 231.108 139.159C230.323 139.63 229.46 139.954 228.56 140.116C228.11 140.204 227.655 140.258 227.197 140.28C226.737 140.286 226.278 140.268 225.821 140.227C224.911 140.128 224.018 139.913 223.163 139.585C222.311 139.268 221.517 138.81 220.814 138.231C221.305 139.581 221.957 140.866 222.755 142.06C227.078 142.309 231.316 143.373 235.246 145.194C236.243 145.655 237.158 146.274 238.079 146.729C239.016 147.197 239.998 147.571 241.01 147.844C243.048 148.399 245.147 148.697 247.259 148.731C248.331 148.766 249.351 148.708 250.458 148.673C251.547 148.66 252.635 148.713 253.717 148.83C255.862 149.052 258.001 149.297 260.122 149.671C260.932 149.811 261.737 149.962 262.541 150.12C262.168 149.613 261.848 149.069 261.585 148.497C261.176 147.636 260.868 146.729 260.67 145.795C260.466 144.862 260.343 143.913 260.303 142.959C260.25 141.996 260.287 141.031 260.414 140.076L260.419 140.046L260.431 140.006C260.751 138.97 260.948 137.9 261.02 136.819C261.11 135.722 261.122 134.62 261.055 133.521C260.979 132.422 260.845 131.327 260.653 130.241C260.443 129.173 260.163 128.058 260.011 126.932C259.706 124.687 259.636 122.416 259.802 120.156C259.86 119.03 259.977 117.903 260.145 116.794C260.301 115.681 260.513 114.577 260.781 113.485C260.505 115.704 260.353 117.937 260.326 120.174C260.294 122.394 260.456 124.612 260.81 126.804C260.886 127.352 261.02 127.889 261.131 128.426L261.492 130.084C261.707 131.204 261.849 132.336 261.917 133.475C262.09 135.756 261.827 138.05 261.142 140.233C260.998 141.131 260.924 142.038 260.921 142.947C260.914 143.872 260.986 144.795 261.136 145.708C261.283 146.623 261.517 147.522 261.836 148.392C262.06 149.004 262.343 149.592 262.681 150.149C263.946 150.406 265.199 150.698 266.44 151.042C268.528 151.588 270.534 152.407 272.409 153.476C270.472 152.563 268.433 151.885 266.336 151.457C265.257 151.205 264.171 150.988 263.077 150.803C263.074 150.8 263.07 150.798 263.066 150.797C262.057 150.622 261.043 150.47 260.023 150.336C257.902 150.062 255.774 149.822 253.647 149.653C252.593 149.554 251.534 149.513 250.476 149.531C249.444 149.565 248.314 149.641 247.241 149.606C245.056 149.561 242.885 149.236 240.783 148.638C239.728 148.329 238.705 147.918 237.729 147.412C237.239 147.173 236.761 146.852 236.313 146.589C235.864 146.315 235.415 146.029 234.943 145.795C233.058 144.804 231.073 144.018 229.021 143.449C226.969 142.833 224.875 142.369 222.755 142.06L217.935 142.521C218.084 142.726 218.193 142.958 218.256 143.204C219.497 147.225 217.708 162.978 217.708 162.978C224.591 168.032 262.693 175.847 262.693 175.847C287.254 179.985 287.482 158.145 287.482 158.145C291.876 118.954 283.238 104.812 280.919 101.801ZM250.184 141.751C249.734 141.838 249.279 141.892 248.821 141.914C248.361 141.92 247.902 141.902 247.445 141.862C246.535 141.763 245.642 141.547 244.787 141.22C243.935 140.902 243.141 140.444 242.438 139.865C244.095 140.415 245.804 140.793 247.538 140.992C248.391 141.089 249.251 141.117 250.109 141.074C250.987 141.025 251.862 140.931 252.731 140.793C251.947 141.264 251.084 141.588 250.184 141.751V141.751Z" fill="black"/>
<path d="M231.657 96.3012C231.489 96.0478 231.302 95.8074 231.098 95.5822C230.895 95.3606 230.672 95.1583 230.431 94.9777C230.193 94.8012 229.935 94.6519 229.664 94.5324C229.402 94.415 229.124 94.3396 228.839 94.309L228.93 94.2912C228.345 94.5731 227.726 94.78 227.09 94.9068C226.443 95.0463 225.777 95.0682 225.122 94.9713C224.443 94.8706 223.802 94.5904 223.267 94.1596C222.774 93.7181 222.342 93.2135 221.982 92.6589C221.279 91.5911 220.653 90.4739 220.11 89.3159C219.563 88.166 219.071 87.0035 218.612 85.809L219.083 86.1204C218.54 86.1757 217.992 86.0923 217.49 85.8781C217.197 85.7406 216.951 85.5216 216.779 85.2474C216.621 84.9824 216.527 84.6842 216.504 84.3764C216.477 83.8487 216.552 83.3208 216.725 82.8217C216.877 82.3455 217.077 81.8862 217.323 81.4511C217.783 80.7761 218 79.9636 217.935 79.1486C217.898 78.7518 217.789 78.3651 217.613 78.0077L217.296 77.4121C217.186 77.2009 217.079 76.9862 216.98 76.7666C216.774 76.3271 216.609 75.8692 216.489 75.3988C216.358 74.9409 216.251 74.4761 216.17 74.0066C216.069 73.5406 216.038 73.0631 215.979 72.5911C215.961 72.1146 215.932 71.6392 215.957 71.1633C215.997 69.2494 216.465 67.3687 217.326 65.6598C217.356 65.6023 217.402 65.5545 217.458 65.5219C217.513 65.4893 217.578 65.4734 217.642 65.4758C217.707 65.4783 217.77 65.4992 217.823 65.5359C217.876 65.5727 217.918 65.6238 217.943 65.6835L217.949 65.6964C218.66 67.3413 219.568 68.8936 220.653 70.3195C221.733 71.7593 223.03 73.022 224.498 74.0623C225.962 75.105 227.634 75.8178 229.399 76.1517C231.161 76.477 232.972 76.4285 234.715 76.0091L234.727 76.0063C234.768 75.997 234.811 75.9995 234.851 76.0137C234.89 76.0279 234.925 76.053 234.951 76.0862C235.654 77.0554 236.144 78.1629 236.388 79.3357C236.648 80.4813 236.78 81.6521 236.783 82.8268C236.79 83.996 236.706 85.1639 236.534 86.3204C236.329 87.4183 236.252 88.5363 236.304 89.652C236.357 90.7303 236.648 91.7835 237.157 92.7352C237.665 93.6521 238.441 94.3914 239.38 94.8535C240.338 95.301 241.397 95.4894 242.45 95.4001C243.529 95.3128 244.586 95.0405 245.573 94.5951C245.668 94.5538 245.772 94.5383 245.875 94.5503C245.978 94.5622 246.076 94.6012 246.159 94.6632C246.242 94.7252 246.308 94.8081 246.349 94.9035C246.39 94.9988 246.405 95.1033 246.392 95.2064L246.391 95.214C245.963 98.9338 245.298 102.622 244.399 106.257C243.933 108.092 243.321 109.886 242.569 111.622C242.182 112.509 241.707 113.355 241.151 114.147C240.861 114.555 240.531 114.934 240.167 115.277C239.789 115.649 239.345 115.945 238.857 116.152C238.335 116.376 237.758 116.44 237.199 116.335C236.646 116.221 236.138 115.95 235.736 115.553C235.521 115.349 235.35 115.104 235.232 114.832C235.138 114.597 235.058 114.357 234.993 114.112C234.862 113.645 234.763 113.186 234.665 112.726C234.28 110.888 234.016 109.048 233.722 107.21L232.859 101.703C232.711 100.787 232.556 99.8716 232.377 98.9624C232.232 98.0522 231.99 97.1601 231.657 96.3011L231.653 96.2929C231.647 96.2792 231.646 96.2636 231.651 96.2494C231.656 96.2352 231.666 96.2235 231.68 96.2168C231.693 96.21 231.709 96.2088 231.723 96.2133C231.737 96.2178 231.749 96.2278 231.757 96.241C232.163 97.0875 232.468 97.9788 232.667 98.8966C232.898 99.8002 233.105 100.709 233.305 101.618C233.709 103.436 234.049 105.265 234.414 107.088C234.773 108.91 235.144 110.733 235.553 112.528C235.66 112.974 235.769 113.421 235.9 113.846C235.959 114.05 236.03 114.249 236.113 114.444C236.185 114.598 236.288 114.734 236.415 114.846C236.679 115.103 237.016 115.273 237.379 115.333C237.743 115.393 238.116 115.341 238.449 115.183C239.183 114.791 239.8 114.21 240.237 113.5C240.726 112.754 241.147 111.966 241.493 111.144C242.199 109.459 242.769 107.721 243.198 105.946C244.065 102.356 244.74 98.7227 245.221 95.0613L246.04 95.6802C244.923 96.1644 243.731 96.4526 242.517 96.532C241.27 96.6172 240.023 96.374 238.899 95.8266C237.769 95.2571 236.845 94.3491 236.255 93.2291C235.699 92.1355 235.394 90.9318 235.361 89.7053C235.33 88.5228 235.44 87.3408 235.689 86.1844C235.897 85.0743 236.02 83.9499 236.056 82.8211C236.097 81.6964 236.011 80.5707 235.798 79.4656C235.607 78.3753 235.193 77.3363 234.583 76.4131L234.819 76.49C233.008 76.8657 231.141 76.8814 229.324 76.5363C228.419 76.3594 227.538 76.0793 226.697 75.7015C225.854 75.3342 225.048 74.8864 224.29 74.3644C222.781 73.3127 221.431 72.0497 220.281 70.6139C219.105 69.191 218.107 67.6295 217.308 65.9641L217.931 66.0007C217.2 67.6258 216.837 69.3926 216.867 71.1748C216.871 72.0639 216.964 72.9504 217.145 73.8209C217.229 74.257 217.337 74.6881 217.469 75.1122C217.586 75.5318 217.737 75.9408 217.922 76.335C218.013 76.5341 218.112 76.7314 218.216 76.9278C218.319 77.1294 218.426 77.3015 218.55 77.5489C218.783 78.0185 218.928 78.5268 218.979 79.0487C219.058 80.0865 218.783 81.1205 218.198 81.9813C217.768 82.6771 217.526 83.4732 217.496 84.2912C217.494 84.4386 217.533 84.5838 217.609 84.7099C217.686 84.8361 217.796 84.9382 217.927 85.0045C218.276 85.1497 218.655 85.208 219.031 85.1743L219.037 85.1741C219.137 85.1696 219.237 85.1975 219.32 85.2536C219.404 85.3098 219.468 85.3912 219.502 85.4861C219.919 86.6518 220.39 87.8172 220.892 88.9556C221.375 90.0973 221.94 91.2027 222.582 92.2632C222.889 92.7777 223.261 93.25 223.689 93.6683C224.127 94.045 224.657 94.2987 225.224 94.4034C226.424 94.5943 227.654 94.4408 228.77 93.9608L228.794 93.9511C228.816 93.9426 228.839 93.9397 228.862 93.9428C229.188 93.9929 229.503 94.0964 229.795 94.2492C230.08 94.3944 230.347 94.5709 230.591 94.7755C230.83 94.9821 231.048 95.2115 231.242 95.4603C231.433 95.7072 231.605 95.9682 231.757 96.2411C231.76 96.2477 231.763 96.255 231.764 96.2626C231.765 96.2702 231.764 96.2779 231.762 96.2853C231.76 96.2927 231.757 96.2997 231.752 96.3057C231.748 96.3118 231.742 96.3169 231.735 96.3207C231.722 96.3277 231.707 96.3295 231.692 96.3259C231.678 96.3223 231.665 96.3135 231.657 96.3012V96.3012Z" fill="black"/>
<path d="M217.862 85.5098C217.743 86.4381 217.618 87.3588 217.521 88.281C217.43 89.2035 217.342 90.1239 217.314 91.0441C217.268 91.9589 217.306 92.8759 217.427 93.7838C217.486 94.2335 217.607 94.673 217.785 95.09C217.953 95.5181 218.231 95.8936 218.592 96.1776C218.165 95.9577 217.813 95.6157 217.579 95.1952C217.348 94.7741 217.177 94.3228 217.071 93.8544C216.871 92.9261 216.795 91.9755 216.842 91.0272C216.881 90.0877 216.988 89.1523 217.164 88.2287C217.328 87.3062 217.561 86.3973 217.862 85.5098V85.5098Z" fill="black"/>
<path d="M217.581 65.864C217.461 65.6544 217.385 65.4225 217.357 65.1824C217.33 64.9424 217.351 64.6992 217.421 64.4678L217.517 64.1204L217.668 63.7984C217.72 63.6919 217.768 63.5811 217.825 63.4774L218.023 63.1853C218.286 62.7955 218.584 62.4307 218.913 62.0955C219.247 61.7711 219.602 61.472 219.95 61.1612C221.42 60.0481 222.995 59.0805 224.651 58.2719C225.478 57.8791 226.313 57.5034 227.149 57.1298C227.993 56.7825 228.843 56.4472 229.695 56.1177C230.549 55.8046 231.416 55.5343 232.278 55.2476C232.715 55.1162 233.135 54.9671 233.602 54.838C234.054 54.7164 234.512 54.6188 234.974 54.5456C236.81 54.2431 238.688 54.3197 240.494 54.7707C242.292 55.2244 243.954 56.1062 245.339 57.341C246.705 58.5948 247.831 60.0883 248.661 61.7478C249.494 63.4004 250.131 65.1452 250.558 66.9463L250.566 66.9947C251.017 69.4665 251.809 71.8635 252.92 74.1163C253.468 75.2404 254.103 76.32 254.819 77.3453C255.523 78.3726 256.318 79.3346 257.194 80.2196L258.58 81.5051C259.079 81.9419 259.547 82.4119 259.983 82.9119C260.874 83.8981 261.61 85.0152 262.164 86.2242C263.311 88.6131 263.598 91.3262 262.976 93.9029C262.972 93.9173 262.963 93.9296 262.951 93.9375C262.938 93.9453 262.923 93.9481 262.909 93.9452C262.894 93.9423 262.881 93.9339 262.873 93.9218C262.864 93.9097 262.86 93.8948 262.862 93.8802L262.863 93.8736C263.027 92.6155 262.977 91.3386 262.714 90.0975C262.475 88.8681 262.043 87.6845 261.434 86.5909C261.134 86.0474 260.801 85.5232 260.436 85.0215C260.061 84.5268 259.655 84.0571 259.22 83.6152C258.795 83.163 258.339 82.7403 257.856 82.35L256.376 81.0662C254.473 79.2266 252.929 77.049 251.822 74.6445C251.27 73.4539 250.803 72.2257 250.425 70.9691C250.033 69.7118 249.747 68.4234 249.572 67.1178L249.58 67.1659C249.232 65.4136 248.712 63.7 248.027 62.05C247.342 60.3974 246.336 58.8973 245.068 57.6365C244.416 57.0269 243.69 56.5016 242.907 56.0729C242.118 55.6537 241.275 55.3467 240.402 55.1605C238.653 54.8115 236.849 54.8545 235.12 55.2865C234.691 55.3857 234.268 55.5074 233.852 55.6512C233.453 55.7922 233.028 55.9757 232.605 56.1365L230.06 57.0904C229.224 57.4275 228.386 57.7589 227.544 58.0784L225.066 59.1449C223.434 59.8779 221.86 60.7353 220.359 61.7094C220.009 61.9767 219.646 62.2358 219.306 62.5173C218.972 62.8022 218.661 63.1128 218.375 63.4462L218.162 63.6971C218.1 63.7858 218.048 63.88 217.99 63.9716L217.821 64.2503L217.703 64.5497C217.535 64.9465 217.525 65.3929 217.676 65.7966L217.682 65.8088C217.688 65.8221 217.689 65.8372 217.684 65.851C217.679 65.8648 217.67 65.8764 217.657 65.8834C217.644 65.8904 217.629 65.8923 217.615 65.8887C217.601 65.8851 217.589 65.8763 217.581 65.864V65.864Z" fill="black"/>
<path d="M219.023 77.1406C219.829 76.5601 220.709 76.0895 221.639 75.7411C222.104 75.5621 222.581 75.4185 223.068 75.3116C223.557 75.1874 224.067 75.1639 224.565 75.2425C224.089 75.3456 223.622 75.4873 223.168 75.6661L221.807 76.182C220.895 76.5247 219.986 76.878 219.023 77.1406Z" fill="black"/>
<path d="M221.573 80.4029C221.757 80.3965 221.93 80.3191 222.058 80.1869C222.185 80.0547 222.257 79.8781 222.257 79.6944C222.257 79.5106 222.185 79.334 222.058 79.2018C221.93 79.0696 221.757 78.9922 221.573 78.9858C221.39 78.9922 221.216 79.0696 221.088 79.2018C220.961 79.334 220.89 79.5106 220.89 79.6944C220.89 79.8781 220.961 80.0547 221.088 80.1869C221.216 80.3191 221.39 80.3965 221.573 80.4029Z" fill="black"/>
<path d="M220.432 88.9863C220.787 88.9974 221.142 88.9875 221.495 88.9568C221.84 88.9253 222.18 88.8836 222.518 88.8191C222.854 88.7535 223.191 88.6781 223.528 88.5856C223.866 88.4944 224.205 88.3938 224.565 88.3035C224.297 88.5584 223.991 88.77 223.658 88.9306C223.323 89.0937 222.969 89.2123 222.603 89.2834C221.867 89.4423 221.099 89.3372 220.432 88.9863V88.9863Z" fill="black"/>
<path d="M217.807 160.885C216.054 160.239 214.252 159.736 212.419 159.38C210.614 159.012 208.76 158.953 206.935 159.205L206.263 159.319L205.607 159.497C205.172 159.619 204.744 159.766 204.326 159.939C203.491 160.299 202.69 160.734 201.934 161.24C201.163 161.746 200.432 162.325 199.571 162.826C198.709 163.31 197.782 163.667 196.818 163.885C195.861 164.112 194.877 164.211 193.894 164.18C192.864 164.181 191.849 163.934 190.934 163.461C190.681 163.306 190.456 163.111 190.267 162.883C190.098 162.675 189.994 162.523 189.846 162.353C189.569 162.033 189.247 161.754 188.892 161.524C188.11 161.069 187.285 160.694 186.428 160.405C185.504 160.111 184.617 159.708 183.787 159.205C183.367 158.921 182.998 158.568 182.695 158.16C182.546 157.968 182.412 157.784 182.269 157.615C182.199 157.526 182.125 157.451 182.05 157.366C181.968 157.268 181.873 157.171 181.803 157.073C181.246 156.3 180.735 155.494 180.273 154.661C179.804 153.843 179.338 153.027 178.891 152.196L179.028 152.297L177.828 152.035C177.413 151.964 177.006 151.852 176.613 151.702C175.825 151.372 175.133 150.848 174.601 150.178C174.311 149.843 174.111 149.438 174.022 149.003C173.988 148.774 174.002 148.54 174.065 148.317C174.127 148.094 174.236 147.886 174.384 147.708C174.667 147.374 175.014 147.099 175.404 146.899C175.794 146.7 176.22 146.58 176.656 146.546C177.079 146.522 177.502 146.539 177.921 146.598L179.142 146.686C179.957 146.737 180.773 146.776 181.588 146.801C183.219 146.851 184.851 146.839 186.471 146.738C188.081 146.654 189.68 146.43 191.25 146.067C192.01 145.887 192.745 145.617 193.441 145.264C193.768 145.094 194.071 144.883 194.345 144.636C194.62 144.384 194.87 144.105 195.091 143.804C195.276 143.595 195.391 143.333 195.421 143.055C195.411 142.995 195.402 142.972 195.325 142.906C195.21 142.832 195.085 142.777 194.954 142.741C194.225 142.593 193.475 142.583 192.743 142.711C192.368 142.763 191.998 142.844 191.636 142.954C191.489 142.998 191.346 143.058 191.212 143.133L191.086 143.215C191.031 143.253 190.976 143.284 190.92 143.315C190.812 143.376 190.7 143.43 190.585 143.477C190.158 143.648 189.711 143.764 189.254 143.824C189.035 143.855 188.817 143.877 188.6 143.892C188.348 143.914 188.095 143.905 187.845 143.864C187.318 143.774 186.83 143.527 186.445 143.155C186.078 142.787 185.813 142.331 185.673 141.831C185.429 140.871 185.558 139.854 186.033 138.986C186.27 138.502 186.643 138.099 187.106 137.826C187.261 137.744 187.429 137.69 187.602 137.665C187.703 137.652 187.806 137.651 187.907 137.663C187.96 137.669 188.012 137.678 188.064 137.691L188.129 137.709L188.137 137.708C188.256 137.72 188.376 137.712 188.493 137.685C189.243 137.513 189.974 137.266 190.675 136.95C191.044 136.793 191.411 136.629 191.777 136.458L192.325 136.198C192.521 136.104 192.721 136.015 192.924 135.933C193.737 135.606 194.59 135.396 195.461 135.307C196.322 135.229 197.189 135.259 198.042 135.397C198.876 135.511 199.702 135.679 200.515 135.898C202.152 136.33 203.709 137.024 205.124 137.954C205.827 138.425 206.484 138.96 207.088 139.552C207.671 140.09 208.295 140.581 208.954 141.023C211.764 142.663 215.008 143.404 218.25 143.145L218.255 143.145C218.27 143.144 218.285 143.149 218.297 143.159C218.308 143.169 218.315 143.183 218.317 143.198C218.318 143.213 218.314 143.228 218.304 143.239C218.295 143.251 218.282 143.259 218.267 143.261C214.952 143.771 211.561 143.191 208.602 141.61C207.878 141.172 207.19 140.677 206.544 140.13C204.754 138.539 202.593 137.426 200.259 136.894C199.484 136.707 198.699 136.57 197.907 136.484C197.138 136.379 196.359 136.372 195.588 136.463C194.827 136.553 194.083 136.747 193.375 137.04C193.2 137.115 193.026 137.194 192.855 137.279L192.295 137.553C191.921 137.733 191.543 137.908 191.16 138.077C190.373 138.448 189.547 138.73 188.698 138.918C188.413 138.978 188.119 138.978 187.834 138.919L187.766 138.903C187.744 138.898 187.762 138.903 187.758 138.902L187.764 138.903C187.767 138.903 187.768 138.902 187.763 138.903C187.733 138.909 187.704 138.92 187.678 138.935C187.441 139.095 187.251 139.317 187.129 139.575C186.806 140.16 186.712 140.845 186.866 141.495C186.946 141.789 187.096 142.059 187.303 142.282C187.509 142.487 187.772 142.624 188.057 142.677C188.212 142.705 188.37 142.712 188.527 142.697C188.718 142.687 188.908 142.671 189.095 142.647C189.452 142.607 189.804 142.523 190.141 142.397C190.216 142.368 190.289 142.334 190.36 142.295C190.394 142.278 190.427 142.259 190.458 142.238L190.591 142.155C190.813 142.026 191.049 141.926 191.295 141.856C191.719 141.734 192.152 141.645 192.59 141.59C193.478 141.45 194.385 141.485 195.26 141.691C195.523 141.768 195.771 141.89 195.992 142.052C196.13 142.159 196.245 142.293 196.33 142.445C196.415 142.598 196.469 142.766 196.488 142.939C196.511 143.239 196.453 143.539 196.319 143.808C196.217 144.029 196.091 144.237 195.941 144.429C195.671 144.785 195.365 145.112 195.026 145.403C194.683 145.697 194.304 145.947 193.898 146.146C193.123 146.516 192.306 146.792 191.465 146.97C189.832 147.306 188.17 147.482 186.503 147.493C184.85 147.528 183.203 147.472 181.561 147.366C180.741 147.313 179.921 147.245 179.104 147.163L177.878 147.032C177.486 146.971 177.089 146.948 176.693 146.965C176.311 146.989 175.937 147.088 175.592 147.257C175.248 147.426 174.941 147.662 174.687 147.95C174.57 148.085 174.482 148.244 174.431 148.416C174.379 148.588 174.365 148.77 174.389 148.948C174.465 149.32 174.633 149.667 174.88 149.956C175.369 150.58 176.014 151.064 176.749 151.36C177.123 151.499 177.51 151.6 177.904 151.663L179.11 151.898C179.137 151.903 179.163 151.915 179.186 151.931C179.209 151.947 179.228 151.968 179.243 151.992L179.247 151.999C180.149 153.628 181.163 155.193 182.28 156.683C182.351 156.774 182.426 156.84 182.497 156.92C182.581 157.007 182.675 157.096 182.755 157.188C182.923 157.37 183.074 157.56 183.221 157.733C183.493 158.07 183.821 158.358 184.19 158.585C184.988 159.019 185.835 159.358 186.712 159.594C187.647 159.864 188.551 160.235 189.406 160.702C189.846 160.972 190.246 161.303 190.594 161.686C190.759 161.865 190.93 162.095 191.063 162.246C191.18 162.375 191.315 162.485 191.465 162.574C192.232 162.949 193.076 163.141 193.929 163.133C194.824 163.161 195.718 163.077 196.592 162.883C197.463 162.697 198.302 162.385 199.084 161.958C199.85 161.521 200.619 160.961 201.426 160.452C202.243 159.933 203.106 159.49 204.004 159.129C204.461 158.961 204.927 158.821 205.4 158.71L206.11 158.548L206.83 158.456C208.738 158.261 210.666 158.405 212.524 158.882C214.355 159.346 216.138 159.98 217.851 160.777C217.865 160.783 217.876 160.794 217.882 160.808C217.888 160.822 217.888 160.837 217.882 160.851C217.877 160.865 217.867 160.877 217.853 160.883C217.84 160.89 217.824 160.891 217.81 160.886L217.807 160.885Z" fill="black"/>
<path d="M179.067 152.097C180.202 151.999 181.337 151.954 182.472 151.916C183.607 151.873 184.742 151.867 185.877 151.861L187.58 151.873C188.165 151.873 188.747 151.953 189.31 152.112C190.388 152.495 191.439 152.951 192.456 153.476C191.909 153.319 191.372 153.133 190.829 152.962C190.305 152.761 189.769 152.595 189.223 152.465C188.683 152.353 188.131 152.305 187.58 152.32L185.877 152.333C184.742 152.327 183.607 152.321 182.472 152.278C181.337 152.24 180.202 152.194 179.067 152.097Z" fill="black"/>
<path d="M179.644 153.113C180.407 153.702 181.136 154.331 181.861 154.965C182.235 155.27 182.568 155.63 182.933 155.884C183.301 156.149 183.713 156.346 184.151 156.466C184.572 156.592 185.06 156.611 185.54 156.701C186.02 156.78 186.494 156.884 186.963 157.012C187.921 157.213 188.811 157.658 189.549 158.302C189.153 158.038 188.717 157.838 188.259 157.708C187.808 157.563 187.347 157.449 186.88 157.366C186.413 157.285 185.946 157.201 185.474 157.143C184.986 157.097 184.502 157.022 184.024 156.92C183.534 156.78 183.075 156.551 182.669 156.243C182.295 155.926 181.941 155.586 181.61 155.225C180.94 154.538 180.275 153.845 179.644 153.113Z" fill="black"/>
<path d="M168.917 138.003C168.541 137.24 168.082 136.521 167.548 135.859L167.638 135.918C166.743 135.777 165.91 135.377 165.241 134.767C164.892 134.413 164.677 133.949 164.633 133.454C164.612 133.209 164.623 132.961 164.666 132.719C164.725 132.488 164.798 132.26 164.882 132.036C165.291 131.166 166.009 130.48 166.897 130.113C167.341 129.902 167.825 129.786 168.316 129.773C168.846 129.77 169.363 129.933 169.796 130.239L169.029 130.484C169.146 130.166 169.306 129.866 169.505 129.592C169.694 129.323 169.915 129.079 170.164 128.865C170.665 128.435 171.261 128.13 171.902 127.974C172.521 127.826 173.162 127.792 173.793 127.876L174.244 127.934C174.419 127.96 174.592 128.003 174.76 128.062C175.071 128.168 175.369 128.309 175.649 128.482C176.705 129.166 177.55 130.131 178.088 131.269C178.616 132.347 179.001 133.49 179.232 134.668L178.132 134.735C178.227 133.985 178.452 133.258 178.798 132.587C179.142 131.895 179.654 131.3 180.288 130.859C180.936 130.434 181.69 130.2 182.463 130.184C182.648 130.176 182.834 130.182 183.018 130.2L183.293 130.218C183.401 130.222 183.508 130.24 183.611 130.27C183.984 130.38 184.335 130.552 184.651 130.778C185.786 131.671 186.626 132.886 187.059 134.265C187.516 135.571 187.813 136.927 187.942 138.305C187.639 136.977 187.205 135.682 186.646 134.44C186.137 133.229 185.299 132.185 184.227 131.427C183.974 131.272 183.699 131.155 183.412 131.08C183.35 131.065 183.287 131.059 183.224 131.062L182.986 131.06C182.227 131.022 181.476 131.237 180.851 131.671C180.384 132.061 180 132.541 179.723 133.084C179.446 133.626 179.282 134.22 179.241 134.827L179.241 134.831C179.227 134.963 179.166 135.085 179.071 135.176C178.975 135.268 178.85 135.322 178.718 135.33C178.586 135.337 178.456 135.298 178.35 135.218C178.245 135.138 178.171 135.024 178.142 134.895C177.919 133.821 177.558 132.782 177.068 131.801C176.611 130.858 175.915 130.052 175.05 129.462C174.844 129.33 174.624 129.223 174.393 129.141C174.291 129.102 174.186 129.074 174.078 129.057L173.677 129.001C173.171 128.928 172.655 128.944 172.155 129.05C171.675 129.15 171.226 129.362 170.843 129.669C170.469 129.973 170.172 130.362 169.976 130.803L169.952 130.859C169.902 130.977 169.807 131.07 169.689 131.118C169.57 131.166 169.437 131.164 169.32 131.114C169.28 131.097 169.243 131.075 169.209 131.048C168.922 130.853 168.589 130.739 168.243 130.717C167.897 130.695 167.551 130.767 167.243 130.924C166.523 131.179 165.92 131.686 165.545 132.352C165.351 132.664 165.256 133.028 165.275 133.395C165.293 133.762 165.423 134.115 165.648 134.406C166.2 135.001 166.911 135.426 167.697 135.628L167.717 135.634C167.746 135.643 167.771 135.662 167.787 135.687C168.268 136.404 168.648 137.183 168.917 138.003V138.003Z" fill="black"/>
<path d="M164.985 137.606C164.672 136.962 164.118 136.468 163.442 136.232C162.786 136.044 162.085 136.097 161.464 136.381C161.165 136.473 160.897 136.644 160.687 136.876C160.478 137.109 160.334 137.393 160.273 137.7C160.244 138.342 160.419 138.977 160.772 139.514C161.127 140.108 161.549 140.658 162.031 141.154C162.148 141.283 162.271 141.4 162.393 141.52L162.788 141.865C163.07 142.11 163.342 142.358 163.612 142.609C164.694 143.611 165.704 144.663 166.712 145.73C166.787 145.81 166.837 145.911 166.855 146.02L166.861 146.057C166.927 146.397 167.038 146.726 167.19 147.037C167.509 147.704 167.963 148.297 168.522 148.779C168.807 149.037 169.091 149.21 169.471 149.502C170.168 150.049 170.755 150.723 171.203 151.487C171.655 152.239 171.989 153.055 172.195 153.907L172.168 153.823C172.434 154.56 172.933 155.189 173.589 155.616C174.289 156.025 175.085 156.244 175.896 156.25C176.746 156.269 177.596 156.181 178.425 155.988C179.273 155.803 180.105 155.55 180.912 155.232C180.154 155.678 179.352 156.046 178.52 156.33C177.675 156.627 176.794 156.808 175.9 156.867C174.961 156.935 174.021 156.747 173.179 156.324C172.754 156.088 172.371 155.781 172.049 155.416C171.737 155.048 171.477 154.639 171.276 154.201L171.265 154.174L171.249 154.117C171.034 153.386 170.715 152.69 170.303 152.049C169.896 151.415 169.383 150.857 168.787 150.397C168.519 150.192 168.103 149.934 167.779 149.644C167.436 149.356 167.125 149.033 166.85 148.681C166.569 148.327 166.33 147.941 166.137 147.533C165.933 147.106 165.792 146.652 165.719 146.184L165.868 146.511C164.892 145.448 163.885 144.4 162.874 143.377C162.62 143.123 162.363 142.872 162.103 142.631L161.69 142.243C161.557 142.103 161.422 141.964 161.299 141.819C160.795 141.241 160.362 140.605 160.009 139.925C159.597 139.21 159.441 138.377 159.568 137.561C159.613 137.347 159.694 137.142 159.806 136.954C159.926 136.776 160.063 136.61 160.214 136.458L160.72 136.109L161.264 135.885C162.007 135.622 162.822 135.646 163.549 135.951C163.889 136.113 164.192 136.344 164.439 136.629C164.686 136.913 164.872 137.246 164.985 137.606V137.606Z" fill="black"/>
<path d="M166.29 146.121C166.112 145.475 166.124 144.791 166.326 144.152C166.422 143.819 166.593 143.512 166.826 143.254C166.94 143.122 167.081 143.016 167.239 142.942C167.397 142.869 167.569 142.829 167.744 142.827C167.485 142.989 167.27 143.213 167.118 143.479C166.971 143.736 166.855 144.01 166.775 144.295C166.588 144.872 166.475 145.484 166.29 146.121Z" fill="black"/>
<path d="M167.667 135.774C168.068 135.676 168.395 135.607 168.742 135.539C169.106 135.457 169.475 135.409 169.848 135.395C169.595 135.715 169.233 135.932 168.832 136.002C168.633 136.049 168.426 136.053 168.225 136.014C168.024 135.975 167.834 135.893 167.667 135.774V135.774Z" fill="black"/>
<path d="M169.795 130.643C169.788 131.15 169.854 131.655 169.992 132.143C170.114 132.63 170.374 133.071 170.74 133.415C170.933 133.578 171.158 133.7 171.4 133.773C171.642 133.847 171.897 133.87 172.148 133.841C172.41 133.82 172.669 133.777 172.923 133.713L173.673 133.442L172.946 133.782C172.691 133.872 172.429 133.94 172.163 133.986C171.887 134.041 171.602 134.039 171.327 133.98C171.052 133.922 170.791 133.808 170.561 133.645C170.11 133.296 169.769 132.824 169.579 132.285C169.377 131.76 169.253 131.209 169.212 130.648C169.208 130.609 169.213 130.57 169.224 130.533C169.236 130.496 169.255 130.462 169.28 130.432C169.305 130.403 169.335 130.378 169.37 130.361C169.404 130.343 169.442 130.332 169.48 130.329C169.519 130.326 169.557 130.331 169.594 130.343C169.631 130.355 169.665 130.375 169.694 130.4C169.723 130.425 169.747 130.456 169.764 130.491C169.782 130.526 169.792 130.564 169.794 130.602C169.795 130.611 169.795 130.62 169.795 130.629L169.795 130.643Z" fill="black"/>
<path d="M172.143 133.94C172.547 134.557 172.905 135.203 173.212 135.874C173.555 136.55 173.791 137.275 173.908 138.024C173.942 138.163 174.008 138.292 174.102 138.4C174.196 138.508 174.314 138.592 174.447 138.644C174.752 138.798 175.079 138.903 175.416 138.955C175.761 139.018 176.114 139.021 176.46 138.964C176.816 138.934 177.147 138.767 177.384 138.498C177.295 138.667 177.171 138.816 177.022 138.935C176.872 139.054 176.699 139.14 176.514 139.189C176.146 139.298 175.762 139.341 175.378 139.316C174.987 139.299 174.602 139.206 174.246 139.043C174.038 138.962 173.854 138.828 173.713 138.655C173.571 138.482 173.477 138.275 173.438 138.055C173.321 137.356 173.133 136.671 172.877 136.01L172.143 133.94Z" fill="black"/>
<path d="M179.26 134.687C179.389 135.599 179.678 136.48 180.113 137.291C180.223 137.484 180.347 137.669 180.484 137.844C180.659 138.054 180.814 138.28 180.947 138.519C181.081 138.762 181.187 139.018 181.266 139.283C181.346 139.562 181.384 139.794 181.439 140.025C181.467 140.231 181.523 140.432 181.606 140.623C181.72 140.795 181.864 140.945 182.031 141.066C182.195 141.195 182.384 141.29 182.585 141.345C182.787 141.401 182.997 141.416 183.204 141.389C183.641 141.298 184.034 141.061 184.317 140.717C184.636 140.362 184.908 139.967 185.126 139.543L185.113 139.58C185.259 138.893 185.356 138.197 185.403 137.496C185.467 136.793 185.42 136.084 185.265 135.395C185.471 136.077 185.57 136.787 185.557 137.5C185.56 138.215 185.513 138.929 185.416 139.637C185.414 139.648 185.411 139.658 185.407 139.668L185.404 139.675C185.204 140.146 184.943 140.588 184.629 140.991C184.305 141.436 183.84 141.757 183.309 141.901C183.03 141.96 182.742 141.962 182.461 141.908C182.181 141.854 181.914 141.745 181.677 141.587C181.432 141.434 181.217 141.239 181.042 141.009C180.947 140.881 180.877 140.737 180.837 140.583L180.728 140.218C180.63 139.771 180.458 139.342 180.221 138.951C180.1 138.766 179.962 138.594 179.808 138.435C179.625 138.235 179.457 138.021 179.307 137.795C178.735 136.903 178.33 135.914 178.11 134.877C178.092 134.802 178.09 134.724 178.103 134.649C178.116 134.573 178.143 134.501 178.184 134.436C178.224 134.371 178.277 134.314 178.34 134.27C178.402 134.225 178.473 134.193 178.548 134.176C178.622 134.159 178.7 134.157 178.775 134.169C178.851 134.182 178.923 134.21 178.988 134.25C179.053 134.291 179.109 134.344 179.154 134.407C179.198 134.469 179.23 134.54 179.247 134.615C179.25 134.629 179.253 134.643 179.255 134.657L179.26 134.687Z" fill="black"/>
<path d="M178.184 144.914C178.207 144.914 178.225 144.92 178.248 144.92L178.301 144.955L178.184 144.914Z" fill="black"/>
<path d="M190.01 144.126C179.997 142.603 170.56 138.716 168.217 137.706C167.811 137.528 167.377 137.423 166.935 137.397C164.802 137.286 164.067 137.98 163.869 138.698C163.78 139.045 163.805 139.411 163.941 139.742C164.076 140.073 164.315 140.352 164.621 140.537L175.037 147.097L175.042 147.091C175.567 146.459 176.175 145.902 176.849 145.433C176.603 145.952 176.3 146.441 175.946 146.892C176.915 146.626 177.939 146.63 178.907 146.904C190.966 148.048 193.997 145.527 193.997 145.527C192.703 144.319 190.01 144.126 190.01 144.126ZM181.215 143.128L183.663 144.914L178.05 144.073L172.997 140.683L181.215 143.128ZM184.362 146.157C182.276 145.964 180.195 145.725 178.114 145.492C178.073 145.484 178.034 145.471 177.997 145.451C176.074 144.289 174.156 143.116 172.256 141.914L169.406 140.099C168.474 139.475 167.524 138.873 166.597 138.231C167.593 138.757 168.573 139.311 169.558 139.848L172.489 141.523C174.425 142.626 176.336 143.77 178.248 144.92C180.3 145.171 182.363 145.428 184.415 145.719C186.484 146.011 188.559 146.315 190.622 146.677C188.53 146.548 186.443 146.355 184.362 146.157H184.362Z" fill="black"/>
<path d="M178.301 144.955L178.184 144.914C178.207 144.914 178.225 144.92 178.248 144.92L178.301 144.955Z" fill="white"/>
<path d="M107.297 61.232C107.297 61.232 105.8 60.3329 104.403 61.9314C104.403 61.9314 101.909 58.3824 91.3325 61.4557C91.3325 61.4557 92.7293 64.1294 93.7271 64.1294C94.7248 64.1294 91.8313 68.7252 89.1374 68.5254C89.1374 68.5254 84.5477 75.2193 88.0399 81.7134C91.4818 88.1141 93.9544 90.1473 97.3684 85.9955C97.4731 85.8667 97.59 85.7483 97.7173 85.6419C98.6992 84.8311 103.046 81.4602 104.586 83.9738C104.914 84.5322 105.008 85.1979 104.847 85.8255C104.144 88.7744 100.856 99.6358 91.3324 95.301C91.3324 95.301 80.2338 91.1335 82.8516 81.2605C83.1315 80.2564 83.5374 79.2918 84.0597 78.3899C84.5633 77.4685 84.8736 76.4539 84.9717 75.4083C85.0698 74.3626 84.9536 73.3079 84.6302 72.3087C84.229 70.8844 83.3239 69.6549 82.0839 68.8496C80.8816 68.0987 79.2968 67.763 78.0963 69.8627C77.5994 70.7362 77.3375 71.7239 77.3361 72.7292C77.3339 73.6493 77.5048 74.7777 78.2618 75.3192L77.3361 77.1176C76.8327 76.0918 76.1889 75.1413 75.4232 74.2936C74.1412 72.9934 73.3176 71.31 73.0774 69.4987C72.7385 66.6254 73.1466 62.3352 76.5656 57.3356C76.5656 57.3356 81.1553 48.144 89.736 48.3438C98.3167 48.5436 105.7 50.8415 107.297 61.232Z" fill="black"/>
<path d="M92.9287 73.2209C94.4191 72.8796 95.9506 72.7533 97.4767 72.8457C98.2454 72.884 99.0083 72.9999 99.7538 73.1916C100.515 73.355 101.222 73.7088 101.809 74.22C101.131 73.9048 100.407 73.7006 99.6644 73.6153C98.9309 73.5097 98.1907 73.4329 97.4442 73.3994C95.9522 73.3068 94.4524 73.2997 92.9287 73.2209Z" fill="black"/>
<path d="M107.296 73.0784C106.751 73.2445 106.246 73.5231 105.814 73.8964C105.609 74.0655 105.442 74.2759 105.324 74.514C105.206 74.752 105.14 75.0122 105.129 75.2777C105.169 75.8224 105.312 76.3545 105.549 76.8462L106.202 78.4524C106.689 79.5391 106.971 80.7063 107.036 81.8956C107.035 82.2089 106.978 82.5195 106.867 82.8124C106.747 83.1089 106.552 83.3688 106.301 83.5657C105.79 83.8878 105.187 84.0313 104.586 83.9737C105.149 83.9256 105.686 83.7108 106.127 83.3566C106.308 83.1633 106.444 82.9326 106.527 82.6808C106.609 82.429 106.635 82.1621 106.604 81.8991C106.561 81.3428 106.448 80.7941 106.268 80.266C106.1 79.7251 105.9 79.1892 105.686 78.6551C105.481 78.1172 105.259 77.5823 105.06 77.0315C104.964 76.7533 104.867 76.476 104.792 76.1828C104.699 75.8796 104.668 75.5608 104.7 75.2452C104.733 74.9313 104.835 74.6287 104.999 74.3589C105.162 74.0891 105.383 73.8588 105.646 73.6844C106.14 73.3536 106.706 73.1458 107.296 73.0784V73.0784Z" fill="black"/>
<path d="M107.297 61.2319C107.483 62.3518 107.622 63.4777 107.713 64.6096C107.817 65.7397 107.882 66.8732 107.906 68.01C107.924 69.1466 107.907 70.2854 107.818 71.425C107.766 72.5867 107.507 73.7296 107.053 74.7999C107.046 74.8132 107.038 74.8255 107.028 74.8364C106.678 75.2139 106.349 75.6109 106.043 76.0255C105.892 76.233 105.757 76.4524 105.64 76.6815C105.51 76.9045 105.458 77.1646 105.492 77.4205C105.412 77.163 105.426 76.8853 105.533 76.6376C105.625 76.3876 105.736 76.1454 105.867 75.9133C106.127 75.4506 106.428 75.0121 106.767 74.6029L106.742 74.6393C106.935 74.1281 107.064 73.5948 107.125 73.0517C107.212 72.5038 107.246 71.9442 107.288 71.3867C107.354 70.2674 107.365 69.1415 107.372 68.015C107.371 65.7601 107.322 63.5011 107.297 61.2319Z" fill="black"/>
<path d="M101.31 80.8142C101.205 81.0311 101.119 81.2572 101.056 81.4898C100.991 81.7046 100.976 81.9315 101.014 82.1528C101.045 82.372 101.141 82.5769 101.289 82.7414C101.446 82.9229 101.62 83.0886 101.809 83.2361C101.688 83.2002 101.569 83.1576 101.453 83.1084C101.34 83.0462 101.233 82.9727 101.135 82.8892C100.929 82.7106 100.79 82.4672 100.741 82.1989C100.706 81.9332 100.746 81.663 100.856 81.4187C100.958 81.1846 101.114 80.9777 101.31 80.8142V80.8142Z" fill="black"/>
<path d="M78.2617 75.3191C78.6071 75.7531 78.8826 76.2385 79.0784 76.7577C79.1833 77.0227 79.2592 77.2983 79.3047 77.5797C79.3292 77.7272 79.339 77.8768 79.3338 78.0263L79.331 78.1412L79.3377 78.2036C79.3352 78.2443 79.344 78.2848 79.3633 78.3206C79.449 78.5034 79.6001 78.6471 79.7867 78.7234C80.0084 78.8368 80.2418 78.9254 80.4828 78.9875C80.9953 79.1258 81.5225 79.2024 82.0532 79.2156C81.529 79.4213 80.961 79.4893 80.4032 79.4132C80.1121 79.3835 79.827 79.3104 79.5575 79.1962C79.3989 79.1346 79.2541 79.0422 79.1314 78.9243C79.0087 78.8064 78.9104 78.6654 78.8424 78.5093C78.8066 78.4214 78.7891 78.3271 78.7909 78.2321L78.7889 78.0919L78.7932 78.0044C78.7994 77.8836 78.7967 77.7624 78.7851 77.6419C78.763 77.386 78.7231 77.1319 78.6656 76.8815C78.5525 76.3681 78.4035 75.852 78.2617 75.3191Z" fill="black"/>
<path d="M77.336 77.1177C77.1134 77.9258 76.7994 78.7058 76.4003 79.4427C76.0096 80.1904 75.5379 80.8928 74.9938 81.5373C74.4494 82.1939 73.8037 82.7591 73.0811 83.2117C72.3567 83.6614 71.5276 83.9139 70.6758 83.9442C71.4554 83.7097 72.1878 83.3401 72.8399 82.8522C73.478 82.3607 74.0589 81.799 74.5719 81.1776C75.0987 80.5571 75.5858 79.9038 76.0302 79.2217C76.4775 78.5364 76.9216 77.8415 77.336 77.1177Z" fill="black"/>
<path d="M84.6475 100.496C85.2779 100.219 85.8741 99.8699 86.4239 99.4551C86.9695 99.0472 87.487 98.603 87.973 98.1255C88.4741 97.6621 88.9234 97.144 89.3901 96.6369L90.0695 95.8515C90.2907 95.5835 90.5113 95.3134 90.7547 95.0547C90.6158 95.3787 90.4542 95.6918 90.2931 96.0068C90.1107 96.3075 89.9312 96.6128 89.7306 96.9039C89.326 97.4874 88.8661 98.0303 88.3571 98.5252C87.8457 99.024 87.275 99.458 86.6578 99.8174C86.0459 100.189 85.3594 100.421 84.6475 100.496V100.496Z" fill="black"/>
<path d="M74.6654 81.3571C74.169 80.6203 73.5548 79.9703 72.8476 79.4332C72.7004 79.3029 72.5221 79.213 72.3299 79.1722C72.1378 79.1314 71.9384 79.141 71.751 79.2002C71.4201 79.4254 71.1826 79.7637 71.083 80.1517C70.9467 80.5655 70.8485 80.9908 70.7896 81.4225C70.7599 81.6372 70.7336 81.8606 70.7142 82.0671C70.7154 82.2637 70.7326 82.4947 70.7523 82.7096C70.8382 83.5906 71.0013 84.4624 71.2397 85.3148C71.6789 87.0493 72.3611 88.7127 73.266 90.2557C74.1829 91.798 75.2797 93.2256 76.5333 94.5085C77.1619 95.1452 77.8153 95.7582 78.4783 96.3555C79.167 96.9245 79.825 97.5354 80.5418 98.0578C80.8877 98.3375 81.2689 98.5645 81.63 98.8204C82.0123 99.0406 82.3794 99.2905 82.7776 99.4774C83.5471 99.8961 84.3656 100.217 85.2143 100.434C86.9092 100.884 88.7103 100.695 90.2749 99.9018C91.8472 99.0614 93.1679 97.8172 94.1014 96.2969C94.1047 96.2904 94.1106 96.2854 94.1176 96.2832C94.1246 96.2809 94.1322 96.2816 94.1388 96.285C94.1448 96.2887 94.1494 96.2945 94.1516 96.3013C94.1538 96.3082 94.1535 96.3155 94.1507 96.3221C93.3388 97.973 92.0627 99.3501 90.4794 100.284C89.6685 100.745 88.7765 101.044 87.8523 101.166C86.9251 101.276 85.9857 101.216 85.0799 100.99C84.1805 100.776 83.3149 100.439 82.5073 99.9887C82.095 99.7836 81.7207 99.5182 81.3295 99.2811C80.9624 99.0101 80.5739 98.7663 80.2256 98.4727C79.4954 97.9236 78.8562 97.2821 78.1805 96.6795C77.836 96.386 77.5439 96.0356 77.2276 95.7127C76.9228 95.378 76.5928 95.068 76.3097 94.714C75.1284 93.3468 74.0557 91.8891 73.1014 90.3544C72.1296 88.82 71.3555 87.1687 70.7978 85.4397C70.5255 84.5649 70.3477 83.6634 70.2674 82.7506C70.2522 82.5168 70.2384 82.2986 70.2435 82.045C70.27 81.8046 70.3024 81.5811 70.3393 81.3509C70.4127 80.892 70.5282 80.4408 70.6844 80.0031C70.7548 79.7616 70.8724 79.5365 71.0305 79.341C71.1886 79.1454 71.384 78.9833 71.6053 78.8642C71.8541 78.7665 72.1296 78.7609 72.3821 78.8484C72.6118 78.9271 72.8262 79.0447 73.0161 79.1961C73.7134 79.7909 74.2895 80.5149 74.7129 81.3283C74.7147 81.3314 74.7159 81.3349 74.7163 81.3385C74.7168 81.3421 74.7165 81.3458 74.7155 81.3493C74.7146 81.3528 74.7129 81.3561 74.7107 81.359C74.7085 81.3618 74.7057 81.3642 74.7025 81.366C74.6963 81.3692 74.6891 81.3701 74.6823 81.3684C74.6755 81.3668 74.6695 81.3627 74.6654 81.3571V81.3571Z" fill="black"/>
<path d="M76.351 79.0041C75.4602 78.4549 74.4665 78.094 73.4312 77.9437C72.4112 77.7571 71.3583 77.946 70.4664 78.4755C70.0458 78.7681 69.6922 79.1469 69.429 79.5867L68.5237 80.8886C67.9246 81.7735 67.2537 82.6074 66.5179 83.3819C66.5007 83.3989 66.4802 83.4121 66.4577 83.4206C66.4351 83.4292 66.411 83.4329 66.387 83.4315L66.3735 83.4307C62.6448 83.2095 58.9034 83.1209 55.1717 83.1461C53.3055 83.1617 51.4413 83.2366 49.5878 83.3824C47.7485 83.4843 45.9275 83.8008 44.1615 84.3255L44.1303 84.3341L44.0876 84.3432C43.1102 84.5937 42.1792 84.9995 41.3301 85.5451C40.8884 85.813 40.4634 86.1076 40.0574 86.4271L39.4422 86.9012C39.2437 87.0677 39.0566 87.2493 38.8632 87.4224C37.3226 88.8323 35.9538 90.4196 34.7854 92.1513C32.4404 95.6439 30.5237 99.4063 29.0767 103.358C28.719 104.349 28.3273 105.328 27.9973 106.329L27.0529 109.35C26.7333 110.344 26.4475 111.398 26.0752 112.405C25.7133 113.423 25.2897 114.406 24.8843 115.383L23.6361 118.317L22.9861 119.779C22.7645 120.285 22.5176 120.779 22.2462 121.26C22.1911 121.35 22.1286 121.435 22.0593 121.514C22.0988 121.516 22.1022 121.424 22.1044 121.461C22.0981 121.518 22.1005 121.576 22.1116 121.632C22.1531 121.838 22.2242 122.038 22.3227 122.224C22.5406 122.641 22.8314 123.014 23.1813 123.328C23.896 123.971 24.7897 124.38 25.743 124.501L25.3683 125.411C24.7804 124.951 24.2239 124.453 23.7026 123.918C23.4169 123.63 23.1678 123.308 22.9609 122.959C22.8986 122.845 22.8491 122.725 22.8134 122.601C22.7946 122.518 22.7818 122.435 22.7753 122.351C22.7753 122.241 22.794 122.132 22.8307 122.028C22.8725 121.917 22.9397 121.816 23.0269 121.735C23.0674 121.697 23.11 121.662 23.1545 121.629C23.1931 121.607 23.2307 121.589 23.2699 121.57C23.4011 121.51 23.5411 121.471 23.6846 121.455C24.0947 121.425 24.5069 121.455 24.9087 121.541C25.2843 121.61 25.6437 121.701 26.0018 121.795L27.0693 122.135L28.1018 122.549C30.7988 123.768 33.1908 125.386 35.6808 126.809C38.1546 128.256 40.7131 129.552 43.3424 130.691C45.9805 131.816 48.6767 132.798 51.4196 133.635L51.4229 133.636C51.4981 133.659 51.5631 133.708 51.6071 133.773C51.6512 133.838 51.6716 133.917 51.6652 133.995C51.4276 136.679 51.3314 139.373 51.3769 142.067C51.3955 143.407 51.5098 144.743 51.7189 146.066C51.8184 146.712 52.0036 147.341 52.2698 147.938C52.3936 148.206 52.5789 148.442 52.8107 148.625C52.8701 148.651 52.9276 148.679 52.9851 148.709C53.0457 148.728 53.1103 148.727 53.1722 148.741C53.3116 148.758 53.5019 148.748 53.6642 148.752L69.879 148.797C75.2839 148.823 80.6885 148.794 86.0933 148.787L102.308 148.733L102.121 148.815C103.225 147.651 104.433 146.59 105.731 145.647C107.025 144.69 108.432 143.894 109.919 143.278C111.421 142.645 113.036 142.32 114.666 142.323C115.494 142.338 116.316 142.458 117.113 142.679L119.36 143.433C120.11 143.677 120.863 143.914 121.617 144.135C122.343 144.379 123.094 144.542 123.855 144.618C124.701 144.714 125.519 144.98 126.26 145.4C126.649 145.608 127.001 145.88 127.301 146.205C127.469 146.385 127.599 146.596 127.683 146.827C127.767 147.058 127.804 147.304 127.792 147.549C127.813 147.968 127.798 148.387 127.749 148.803C127.697 149.286 127.494 149.741 127.167 150.1C126.815 150.447 126.352 150.659 125.86 150.697C125.426 150.744 124.989 150.73 124.559 150.657C124.149 150.592 123.745 150.5 123.347 150.38L122.214 150.037C121.852 149.933 121.483 149.852 121.11 149.796C120.802 149.732 120.483 149.735 120.176 149.805L120.288 149.032C121.788 150.084 123.549 150.699 125.377 150.81C126.301 150.86 127.227 150.806 128.139 150.652C129.081 150.523 130.015 150.364 130.965 150.206C131.442 150.13 131.917 150.047 132.443 150.013C132.731 149.989 133.02 150.006 133.304 150.064C133.645 150.137 133.954 150.32 134.184 150.584C134.381 150.819 134.533 151.089 134.63 151.381C134.908 152.163 134.95 153.01 134.749 153.816C134.608 154.351 134.357 154.85 134.012 155.282C133.666 155.714 133.235 156.069 132.744 156.324C131.826 156.797 130.826 157.09 129.797 157.19L130.246 156.852C130.006 157.4 129.708 157.921 129.358 158.407C129.009 158.896 128.604 159.343 128.149 159.736C127.672 160.137 127.129 160.451 126.545 160.666C125.943 160.869 125.307 160.95 124.674 160.903L125.154 160.706C124.18 161.843 123.224 162.958 122.127 164.032C121.987 164.166 121.839 164.3 121.674 164.434C121.505 164.563 121.327 164.681 121.143 164.788C120.796 164.983 120.436 165.154 120.066 165.298C119.343 165.579 118.596 165.793 117.835 165.938C116.326 166.219 114.786 166.29 113.258 166.149C112.877 166.122 112.501 166.06 112.122 166.017L110.999 165.82L109.947 165.648L108.876 165.536C105.961 165.386 103.039 165.48 100.139 165.819C97.2198 166.115 94.3085 166.556 91.4116 167.07C89.9743 167.325 88.5507 167.664 87.1006 167.984C85.6566 168.305 84.2076 168.618 82.7548 168.911C79.8477 169.493 76.928 170.022 73.991 170.444C68.1182 171.317 62.1926 171.786 56.2558 171.848C55.5138 171.851 54.772 171.879 54.0301 171.861L51.8044 171.811C50.3201 171.801 48.8389 171.695 47.3575 171.607C45.8742 171.544 44.3989 171.372 42.9219 171.227C42.1801 171.145 41.4535 171.1 40.697 170.982C39.9478 170.866 39.2062 170.706 38.4759 170.502C35.5261 169.705 32.8505 168.115 30.7389 165.905C28.6244 163.681 27.2874 160.831 26.9284 157.782C26.2786 151.873 26.0176 145.955 25.8696 140.035C25.7405 134.114 25.7244 128.195 25.8211 122.276C25.8212 122.26 25.8275 122.245 25.8386 122.235C25.8496 122.224 25.8645 122.218 25.8799 122.218C25.8954 122.218 25.9102 122.224 25.921 122.235C25.9318 122.246 25.9378 122.261 25.9377 122.277C25.9624 128.193 26.0985 134.107 26.3459 140.019C26.6073 145.924 26.9299 151.84 27.663 157.687C28.0393 160.561 29.3384 163.236 31.3644 165.307C33.3832 167.379 35.9285 168.86 38.726 169.59C39.421 169.778 40.1265 169.924 40.8386 170.028C41.5435 170.132 42.2937 170.175 43.0209 170.249C44.486 170.379 45.9485 170.537 47.4195 170.587C48.8884 170.661 50.3564 170.754 51.8281 170.751L54.0341 170.782C54.7694 170.793 55.5049 170.759 56.2402 170.75L58.446 170.705L60.6496 170.591C62.1196 170.533 63.5853 170.404 65.0517 170.286C66.5199 170.19 67.9795 169.994 69.4436 169.852C70.9035 169.67 72.3642 169.489 73.8194 169.271C76.7323 168.848 79.629 168.317 82.5156 167.734C83.9587 167.439 85.3978 167.126 86.8377 166.803C88.2725 166.484 89.7248 166.136 91.1968 165.871C94.1176 165.348 97.0531 164.897 100.013 164.591C102.986 164.238 105.985 164.15 108.974 164.327L110.107 164.451L111.241 164.643L112.3 164.833C112.655 164.875 113.008 164.935 113.364 164.962C114.782 165.101 116.213 165.042 117.615 164.788C118.306 164.661 118.984 164.47 119.641 164.219C119.96 164.097 120.27 163.953 120.568 163.787C120.704 163.709 120.835 163.623 120.961 163.53C121.084 163.432 121.21 163.319 121.338 163.198C122.36 162.208 123.34 161.081 124.294 159.977C124.35 159.913 124.419 159.861 124.497 159.827C124.575 159.793 124.66 159.776 124.745 159.779L124.773 159.78C125.248 159.815 125.726 159.756 126.178 159.608C126.636 159.44 127.061 159.195 127.437 158.884C127.822 158.552 128.167 158.175 128.463 157.761C128.764 157.348 129.022 156.905 129.232 156.439L129.234 156.436C129.273 156.346 129.335 156.268 129.414 156.209C129.492 156.15 129.584 156.113 129.681 156.1C130.564 156.02 131.423 155.776 132.216 155.38C132.581 155.199 132.903 154.942 133.161 154.627C133.42 154.312 133.609 153.945 133.715 153.552C133.82 153.154 133.842 152.74 133.78 152.334C133.741 151.958 133.61 151.598 133.398 151.286C133.315 151.181 133.196 151.111 133.064 151.087C132.877 151.051 132.686 151.041 132.496 151.056C132.065 151.079 131.594 151.153 131.126 151.223C130.184 151.37 129.228 151.522 128.271 151.642C127.291 151.796 126.297 151.841 125.308 151.777C123.289 151.636 121.351 150.929 119.714 149.738L119.706 149.731C119.642 149.684 119.592 149.619 119.561 149.545C119.531 149.471 119.522 149.391 119.534 149.312C119.546 149.233 119.58 149.158 119.632 149.097C119.683 149.036 119.751 148.991 119.827 148.965C120.286 148.828 120.773 148.808 121.242 148.908C121.652 148.975 122.057 149.068 122.455 149.186L123.592 149.543C123.952 149.656 124.319 149.744 124.691 149.807C125.408 149.929 126.188 149.916 126.571 149.515C126.976 149.121 127.001 148.34 126.982 147.56C126.986 147.471 126.982 147.382 126.971 147.294C126.971 147.23 126.957 147.166 126.93 147.107C126.878 146.967 126.8 146.838 126.699 146.728C126.461 146.469 126.182 146.251 125.873 146.083C125.234 145.714 124.529 145.474 123.798 145.377C122.984 145.289 122.182 145.109 121.409 144.84C120.645 144.609 119.889 144.362 119.137 144.108L116.886 143.327C116.158 143.122 115.407 143.007 114.65 142.985C113.106 142.968 111.575 143.26 110.145 143.845C107.257 145.069 104.652 146.877 102.494 149.155L102.486 149.163C102.463 149.187 102.435 149.206 102.404 149.219C102.374 149.232 102.341 149.238 102.307 149.238L86.0944 149.183C80.6901 149.177 75.2857 149.148 69.8815 149.174L53.669 149.218C53.494 149.216 53.3449 149.229 53.1487 149.213C53.044 149.204 52.9401 149.187 52.838 149.162L52.5539 149.03C52.2449 148.805 51.9963 148.506 51.8301 148.162C51.5332 147.526 51.3235 146.853 51.2066 146.162C50.9739 144.814 50.8381 143.452 50.8002 142.085C50.7167 139.368 50.7764 136.647 50.9791 133.936L51.2246 134.296C48.4434 133.489 45.7075 132.533 43.0289 131.432C40.3535 130.316 37.7476 129.039 35.2253 127.609C32.6919 126.215 30.2804 124.596 27.7109 123.453L26.7367 123.066L25.7438 122.754C25.405 122.667 25.0654 122.582 24.7317 122.524C24.4286 122.459 24.1182 122.434 23.8086 122.45C23.7672 122.46 23.6949 122.469 23.7049 122.475L23.6982 122.473C23.7085 122.47 23.7178 122.465 23.7248 122.457C23.7297 122.441 23.7637 122.418 23.7697 122.383C23.7872 122.245 23.769 122.374 23.846 122.48C24.0126 122.748 24.2096 122.996 24.4333 123.219C24.9216 123.714 25.442 124.177 25.9913 124.603L25.996 124.607C26.0836 124.676 26.1462 124.772 26.1742 124.88C26.2022 124.988 26.194 125.102 26.151 125.205C26.1079 125.308 26.0323 125.394 25.9358 125.45C25.8392 125.505 25.7271 125.528 25.6165 125.514C24.4521 125.371 23.3591 124.875 22.4846 124.092C22.0421 123.697 21.6741 123.226 21.3982 122.701C21.2478 122.418 21.1411 122.114 21.0817 121.799C21.0429 121.594 21.0483 121.384 21.0975 121.182C21.1378 121.031 21.2129 120.893 21.3167 120.777C21.3282 120.744 21.3206 120.774 21.358 120.706C21.5869 120.31 21.819 119.809 22.0379 119.341L22.6877 117.9L23.9453 114.986C24.358 114.007 24.7786 113.043 25.1327 112.063C25.5011 111.081 25.7752 110.087 26.109 109.064L27.0794 106.017C27.4185 105.006 27.8203 104.016 28.1877 103.014C29.6822 99.0006 31.6542 95.1815 34.061 91.64C34.6743 90.7574 35.332 89.9066 36.0315 89.0908C36.7441 88.281 37.5069 87.5168 38.3154 86.8029C38.5189 86.6252 38.7156 86.44 38.9249 86.269L39.5749 85.7807C40.0063 85.4505 40.4571 85.1467 40.9251 84.871C41.8685 84.2799 42.9043 83.8516 43.9893 83.6038L43.9156 83.6215C45.7468 83.0978 47.6333 82.7921 49.5359 82.7106C51.4146 82.5869 53.293 82.536 55.1691 82.5443C58.9221 82.5523 62.6653 82.7426 66.403 83.0412L66.2588 83.0897C66.9903 82.3481 67.6608 81.5484 68.2637 80.6986L69.1928 79.4222C69.4853 78.9608 69.8715 78.5662 70.3263 78.2641C70.7862 77.9671 71.3098 77.7837 71.8542 77.7287C72.3876 77.6653 72.9272 77.676 73.4577 77.7604C74.5119 77.9361 75.5189 78.3266 76.4164 78.9076C76.4293 78.9158 76.4385 78.9288 76.4419 78.9438C76.4453 78.9588 76.4426 78.9745 76.4345 78.9875C76.4264 79.0006 76.4135 79.0099 76.3985 79.0134C76.3836 79.017 76.3679 79.0145 76.3548 79.0064L76.351 79.0041Z" fill="black"/>
<path d="M48.9795 88.9067C49.7061 89.1131 50.3655 89.5078 50.8911 90.0511C51.4326 90.5857 51.8657 91.2203 52.1666 91.9197C52.468 92.6151 52.6375 93.3607 52.6663 94.1183C52.6808 94.4911 52.6617 94.8645 52.6093 95.234C52.5459 95.6005 52.4491 95.9605 52.3202 96.3095C52.1908 95.9484 52.1325 95.6 52.0375 95.2595C51.9355 94.9211 51.8744 94.5842 51.7611 94.2622C51.5803 93.6227 51.3586 92.9954 51.0975 92.3843C50.8356 91.7767 50.5293 91.1893 50.1812 90.6267C49.8166 90.029 49.4152 89.4546 48.9795 88.9067V88.9067Z" fill="black"/>
<path d="M51.5219 102.894C51.7465 105.485 51.8561 108.075 51.9251 110.665C52.0015 113.255 52.0097 115.844 52.0047 118.434C51.9779 121.023 51.9364 123.612 51.8271 126.201C51.7251 128.789 51.5816 131.378 51.3223 133.966C51.0964 131.375 50.9862 128.785 50.9174 126.195C50.8414 123.605 50.8332 121.015 50.8397 118.426C50.8679 115.837 50.9093 113.248 51.019 110.659C51.1213 108.07 51.2641 105.482 51.5219 102.894Z" fill="black"/>
<path d="M104.882 85.7782C107.016 87.1156 109.112 88.5086 111.168 89.9571C112.197 90.6804 113.218 91.4167 114.23 92.1661L115.737 93.3184C116.001 93.5168 116.25 93.7349 116.481 93.9709L116.839 94.3452L117.141 94.7278C117.922 95.736 118.634 96.7957 119.273 97.8997C119.917 98.9875 120.543 100.082 121.153 101.185C122.357 103.399 123.597 105.588 124.873 107.753C125.511 108.836 126.162 109.912 126.824 110.981L127.815 112.584C128.109 113.108 128.458 113.599 128.857 114.048C129.279 114.463 129.782 114.874 130.219 115.39C130.738 115.931 131.05 116.636 131.101 117.384C131.062 118.15 130.728 118.872 130.17 119.398C129.932 119.639 129.681 119.868 129.419 120.084C129.184 120.273 128.957 120.472 128.733 120.677C128.285 121.089 127.872 121.523 127.452 121.989C127.025 122.462 126.583 122.92 126.134 123.374C125.228 124.28 124.265 125.128 123.253 125.914C122.22 126.714 121.096 127.389 119.904 127.923C119.279 128.188 118.623 128.37 117.95 128.465C117.245 128.569 116.524 128.507 115.847 128.281C115.739 128.249 115.647 128.177 115.589 128.081L115.585 128.074C115.147 127.349 114.669 126.625 114.184 125.917C113.7 125.205 113.193 124.511 112.663 123.833C112.131 123.161 111.563 122.519 110.961 121.909C110.381 121.282 109.67 120.79 108.88 120.468L108.875 120.467C108.862 120.462 108.85 120.452 108.843 120.439C108.836 120.426 108.835 120.411 108.839 120.396C108.843 120.382 108.852 120.37 108.864 120.362C108.877 120.354 108.892 120.352 108.906 120.355C109.77 120.578 110.569 121.003 111.237 121.595C111.922 122.15 112.564 122.756 113.157 123.408C114.35 124.701 115.445 126.081 116.435 127.535L116.174 127.328C117.283 127.555 118.438 127.387 119.437 126.853C120.528 126.332 121.554 125.683 122.493 124.921C123.465 124.165 124.395 123.355 125.278 122.496C125.725 122.068 126.167 121.634 126.595 121.185C127.028 120.729 127.495 120.263 127.984 119.838C128.229 119.625 128.481 119.417 128.74 119.219C128.976 119.022 129.199 118.854 129.396 118.654C129.778 118.324 130.027 117.867 130.098 117.368C130.067 116.849 129.861 116.357 129.513 115.972C129.156 115.512 128.705 115.096 128.267 114.595C128.152 114.465 128.044 114.327 127.944 114.185L127.691 113.757L127.236 112.921L126.348 111.255C125.761 110.141 125.162 109.036 124.551 107.938C123.325 105.745 122.032 103.588 120.632 101.501C119.243 99.4178 117.835 97.3086 116.331 95.3837L116.047 95.0279L115.751 94.7244C115.547 94.5066 115.327 94.3056 115.091 94.1232L113.626 92.9575L110.667 90.6314C108.69 89.0824 106.739 87.4962 104.813 85.8727C104.802 85.8632 104.794 85.8497 104.793 85.835C104.791 85.8203 104.795 85.8054 104.803 85.7934C104.812 85.7814 104.825 85.7732 104.84 85.7704C104.854 85.7675 104.869 85.7703 104.882 85.7782L104.882 85.7782Z" fill="black"/>
<path d="M112.684 104.626C111.664 108.465 110.701 112.314 109.896 116.178C109.482 118.094 109.193 120.034 109.03 121.987C108.975 122.926 108.97 123.963 108.887 124.968C108.807 125.992 108.636 127.008 108.376 128.002C107.763 129.968 106.782 131.798 105.484 133.395C104.884 134.196 104.249 134.97 103.654 135.748C103.368 136.134 103.078 136.518 102.821 136.931C102.545 137.33 102.296 137.749 102.048 138.17C101.072 139.878 100.199 141.644 99.4346 143.457C98.6279 145.263 97.9323 147.118 97.2524 148.986C98.118 145.083 99.4617 141.301 101.253 137.728C101.715 136.825 102.245 135.958 102.838 135.134C103.425 134.32 104.027 133.544 104.595 132.741C105.788 131.238 106.69 129.525 107.253 127.689C107.503 126.765 107.671 125.821 107.754 124.867C107.847 123.895 107.844 122.945 107.933 121.905C108.141 119.905 108.502 117.924 109.012 115.979C109.99 112.119 111.217 108.327 112.684 104.626Z" fill="black"/>
<path d="M129.74 119.079C131.022 120.077 132.237 121.139 133.472 122.129C133.784 122.369 134.095 122.606 134.4 122.814L134.908 123.117C135.095 123.236 135.273 123.36 135.442 123.49C136.096 124.018 136.699 124.608 137.24 125.252C138.315 126.527 139.161 127.979 139.739 129.544C140.344 131.094 140.515 132.78 140.233 134.42C140.063 132.844 139.614 131.312 138.906 129.895C138.217 128.497 137.358 127.19 136.35 126.003C135.865 125.407 135.327 124.855 134.744 124.355C134.603 124.229 134.457 124.114 134.311 124.006L133.806 123.655C133.474 123.398 133.159 123.118 132.864 122.819C131.709 121.672 130.663 120.42 129.74 119.079V119.079Z" fill="black"/>
<path d="M116.871 127.979C118.017 129.518 118.8 131.298 119.162 133.183C119.203 133.424 119.237 133.667 119.269 133.91C119.292 134.146 119.295 134.424 119.324 134.626C119.369 135.039 119.467 135.444 119.616 135.831C119.941 136.659 120.358 137.447 120.859 138.181C121.354 138.942 121.9 139.668 122.491 140.357C122.777 140.711 123.092 141.041 123.396 141.381C123.725 141.695 124.025 142.044 124.365 142.348C125.657 143.663 127.206 144.698 128.915 145.389C127.963 145.292 127.037 145.022 126.183 144.592C125.329 144.156 124.521 143.636 123.771 143.038C122.261 141.847 120.949 140.423 119.884 138.82C119.343 138 118.903 137.117 118.575 136.19C118.417 135.694 118.327 135.178 118.306 134.658C118.291 134.394 118.297 134.205 118.297 133.973L118.264 133.305C118.055 131.472 117.586 129.679 116.871 127.979V127.979Z" fill="black"/>
<path d="M129.74 142.958C129.856 142.206 130.116 141.483 130.506 140.83C130.889 140.17 131.353 139.561 131.889 139.017C132.431 138.484 133.032 138.014 133.681 137.618C134.003 137.422 134.336 137.243 134.678 137.084C135.028 136.94 135.377 136.8 135.733 136.684C135.114 137.113 134.504 137.526 133.926 137.975C133.349 138.419 132.799 138.898 132.281 139.409C131.77 139.925 131.298 140.478 130.869 141.063C130.431 141.656 130.053 142.29 129.74 142.958Z" fill="black"/>
<path d="M131.843 144.29C133.138 142.217 134.557 140.224 136.091 138.321C136.859 137.368 137.656 136.437 138.484 135.528C139.326 134.624 140.217 133.767 141.154 132.962C142.11 132.122 143.185 131.43 144.344 130.908C144.971 130.643 145.646 130.514 146.326 130.528C147.023 130.546 147.704 130.741 148.305 131.094C149.424 131.816 150.28 132.881 150.746 134.129C150.989 134.723 151.165 135.343 151.27 135.976C151.4 136.632 151.386 137.307 151.231 137.957L151.044 137.548C152.356 138.218 153.619 138.943 154.871 139.699C156.12 140.454 157.354 141.238 158.542 142.09C159.757 142.918 160.882 143.871 161.899 144.932C162.414 145.48 162.851 146.096 163.197 146.763C163.578 147.474 163.668 148.305 163.449 149.081L163.455 149.06C163.29 149.702 162.935 150.28 162.437 150.717C162.166 150.934 161.851 151.09 161.514 151.172C161.177 151.254 160.826 151.262 160.486 151.193C159.855 151.065 159.254 150.814 158.719 150.455C158.205 150.118 157.719 149.74 157.266 149.323L158.047 148.986C158.025 149.786 157.854 150.575 157.542 151.312C157.237 152.057 156.78 152.73 156.201 153.287C155.621 153.837 154.941 154.27 154.198 154.564C153.883 154.7 153.577 154.854 153.28 155.025C153.144 155.103 153.013 155.191 152.888 155.286C152.841 155.322 152.797 155.362 152.756 155.405C152.725 155.432 152.734 155.464 152.761 155.36L152.564 154.801C152.927 155.117 153.227 155.499 153.449 155.926C153.685 156.365 153.809 156.856 153.809 157.354C153.809 157.853 153.685 158.344 153.449 158.783C153.234 159.2 152.951 159.578 152.612 159.901C151.93 160.544 151.064 160.957 150.136 161.081C149.705 161.133 149.271 161.153 148.837 161.142C148.37 161.141 147.906 161.067 147.462 160.923L147.874 160.924C146.517 161.345 145.122 161.633 143.709 161.784C142.299 161.928 140.878 161.92 139.47 161.761C138.737 161.691 138.017 161.521 137.33 161.255C136.949 161.107 136.603 160.879 136.318 160.585C136.032 160.292 135.813 159.94 135.676 159.554C135.474 158.781 135.567 157.961 135.937 157.253C136.101 156.91 136.315 156.593 136.571 156.311C136.843 155.97 137.234 155.746 137.665 155.682L137.617 155.688C137.82 155.657 138.025 155.64 138.231 155.636C138.433 155.632 138.635 155.639 138.836 155.658C139.247 155.692 139.649 155.799 140.022 155.976L139.722 156.327C139.536 155.998 139.391 155.647 139.29 155.283C139.186 154.921 139.139 154.544 139.152 154.167C139.165 153.787 139.273 153.415 139.465 153.086C139.659 152.769 139.924 152.501 140.238 152.302C140.251 152.293 140.267 152.29 140.282 152.293C140.297 152.296 140.311 152.305 140.319 152.318C140.327 152.33 140.33 152.345 140.328 152.36C140.325 152.374 140.318 152.387 140.306 152.397C140.033 152.609 139.812 152.881 139.66 153.192C139.517 153.497 139.449 153.833 139.463 154.171C139.479 154.51 139.548 154.845 139.667 155.163C139.784 155.48 139.937 155.783 140.125 156.064C140.153 156.106 140.167 156.156 140.166 156.207C140.164 156.257 140.146 156.306 140.115 156.346C140.083 156.386 140.04 156.415 139.991 156.429C139.943 156.442 139.891 156.44 139.843 156.423L139.824 156.415C139.495 156.295 139.148 156.228 138.797 156.218C138.618 156.212 138.439 156.216 138.26 156.23C138.085 156.244 137.912 156.268 137.74 156.304L137.716 156.307L137.691 156.309C137.447 156.394 137.235 156.554 137.087 156.765C136.893 157.007 136.735 157.275 136.617 157.561C136.369 158.1 136.326 158.712 136.499 159.28C136.608 159.54 136.771 159.772 136.978 159.963C137.184 160.153 137.43 160.297 137.697 160.384C138.304 160.589 138.936 160.711 139.576 160.748C140.909 160.85 142.249 160.809 143.573 160.625C144.895 160.461 146.199 160.171 147.466 159.759C147.595 159.716 147.734 159.715 147.864 159.756L147.878 159.761C148.563 159.912 149.269 159.94 149.964 159.846C150.635 159.759 151.261 159.464 151.756 159.002C152.242 158.579 152.546 157.985 152.607 157.344C152.609 157.037 152.538 156.733 152.398 156.46C152.254 156.172 152.061 155.912 151.828 155.692L151.786 155.653C151.716 155.589 151.664 155.506 151.636 155.415C151.609 155.323 151.607 155.226 151.63 155.133C151.675 154.94 151.774 154.763 151.914 154.623C152 154.533 152.093 154.451 152.192 154.378C152.36 154.254 152.536 154.141 152.719 154.041C153.059 153.853 153.41 153.685 153.77 153.537C154.398 153.308 154.975 152.959 155.47 152.51C155.956 152.058 156.348 151.514 156.623 150.909C156.904 150.303 157.072 149.651 157.12 148.985L157.122 148.951C157.128 148.863 157.158 148.779 157.21 148.707C157.262 148.636 157.333 148.582 157.415 148.55C157.497 148.518 157.586 148.51 157.672 148.527C157.758 148.545 157.838 148.586 157.901 148.648C158.304 149.043 158.736 149.407 159.195 149.736C159.624 150.06 160.112 150.299 160.631 150.438C160.867 150.502 161.114 150.513 161.355 150.469C161.595 150.425 161.823 150.329 162.021 150.186C162.429 149.856 162.731 149.413 162.886 148.911L162.893 148.89C163.097 148.255 163.047 147.565 162.754 146.965C162.462 146.322 162.069 145.73 161.588 145.212C160.61 144.152 159.52 143.202 158.337 142.378C155.952 140.733 153.412 139.326 150.753 138.176C150.681 138.144 150.623 138.088 150.588 138.018C150.552 137.948 150.543 137.868 150.56 137.791L150.566 137.767C150.654 137.22 150.628 136.66 150.49 136.123C150.364 135.56 150.175 135.012 149.927 134.491C149.483 133.461 148.738 132.589 147.79 131.991C147.322 131.737 146.801 131.594 146.269 131.573C145.737 131.553 145.207 131.655 144.721 131.872C143.655 132.343 142.663 132.966 141.775 133.721C140.842 134.476 139.952 135.281 139.108 136.134C138.248 136.979 137.416 137.858 136.608 138.761C135.002 140.575 133.438 142.438 131.939 144.356C131.935 144.362 131.929 144.367 131.922 144.371C131.916 144.375 131.908 144.378 131.901 144.379C131.893 144.38 131.885 144.379 131.878 144.378C131.871 144.376 131.864 144.372 131.858 144.368C131.846 144.359 131.838 144.346 131.836 144.331C131.833 144.317 131.836 144.302 131.843 144.29V144.29Z" fill="black"/>
<path d="M143.548 135.398C143.555 136.478 143.692 137.554 143.957 138.601C144.095 139.097 144.314 139.565 144.605 139.989C144.881 140.386 145.295 140.666 145.767 140.773C146.253 140.89 146.761 140.884 147.245 140.756C147.747 140.64 148.222 140.43 148.647 140.138C149.53 139.524 150.293 138.752 150.898 137.862C150.47 138.898 149.786 139.809 148.912 140.509C148.461 140.885 147.932 141.154 147.363 141.298C146.794 141.442 146.201 141.456 145.626 141.339C145.025 141.193 144.501 140.825 144.159 140.31C143.846 139.822 143.628 139.278 143.517 138.709C143.318 137.613 143.328 136.49 143.548 135.398V135.398Z" fill="black"/>
<path d="M152.129 145.722C153.237 145.762 154.315 146.094 155.253 146.686C155.726 146.973 156.164 147.313 156.559 147.7C156.954 148.083 157.299 148.515 157.583 148.985C157.169 148.626 156.77 148.269 156.346 147.945C155.929 147.618 155.492 147.316 155.038 147.042C154.586 146.765 154.116 146.517 153.633 146.3C153.144 146.075 152.642 145.882 152.129 145.722V145.722Z" fill="black"/>
<path d="M139.923 156.196C140.18 156.456 140.477 156.674 140.801 156.842C141.117 157.026 141.437 157.198 141.761 157.366C142.409 157.699 143.067 158.019 143.728 158.333C145.046 158.973 146.381 159.586 147.67 160.342C146.221 160.004 144.814 159.507 143.475 158.858C142.801 158.538 142.151 158.169 141.529 157.755C140.876 157.373 140.325 156.838 139.923 156.196V156.196Z" fill="black"/>
<path d="M150.2 148.253C150.428 148.378 150.628 148.549 150.785 148.756C150.876 148.867 150.941 148.996 150.977 149.134C151.012 149.272 151.017 149.417 150.99 149.557C150.908 149.836 150.734 150.079 150.498 150.247C150.285 150.411 150.052 150.547 149.804 150.652C149.69 150.7 149.581 150.756 149.475 150.82C149.375 150.869 149.278 150.925 149.186 150.987L148.934 151.208C148.859 151.29 148.789 151.378 148.726 151.471C148.46 151.841 148.301 152.278 148.266 152.732C148.199 153.181 148.267 153.64 148.459 154.05C148.652 154.461 148.962 154.805 149.349 155.041C149.445 155.105 149.55 155.154 149.662 155.183C149.772 155.219 149.879 155.268 149.993 155.298C150.229 155.344 150.468 155.373 150.707 155.385C150.954 155.392 151.202 155.383 151.447 155.359C151.692 155.316 151.941 155.279 152.196 155.247C151.961 155.339 151.721 155.428 151.478 155.511C151.228 155.58 150.974 155.633 150.718 155.671C150.454 155.693 150.189 155.695 149.925 155.675C149.791 155.652 149.659 155.621 149.529 155.583C149.395 155.558 149.264 155.512 149.143 155.447C148.628 155.213 148.211 154.806 147.965 154.297C147.726 153.791 147.63 153.23 147.686 152.674C147.743 152.118 147.95 151.588 148.285 151.141C148.37 151.029 148.464 150.925 148.565 150.827L148.897 150.567C149.131 150.431 149.378 150.319 149.633 150.232C150.079 150.13 150.467 149.859 150.718 149.477C150.755 149.372 150.769 149.261 150.758 149.15C150.747 149.04 150.712 148.933 150.655 148.838C150.536 148.62 150.382 148.422 150.2 148.253V148.253Z" fill="black"/>
<path d="M145.477 137.063C145.545 137.37 145.639 137.67 145.757 137.962C145.855 138.238 146.029 138.481 146.26 138.662C146.375 138.744 146.507 138.8 146.645 138.826C146.784 138.853 146.927 138.848 147.064 138.814C147.214 138.787 147.363 138.749 147.507 138.7C147.653 138.644 147.797 138.579 147.952 138.528C147.83 138.633 147.697 138.723 147.566 138.823C147.42 138.901 147.268 138.968 147.112 139.022C146.944 139.08 146.765 139.097 146.589 139.074C146.414 139.05 146.246 138.986 146.099 138.887C145.831 138.668 145.641 138.368 145.557 138.032C145.468 137.717 145.441 137.388 145.477 137.063Z" fill="black"/>
<path d="M146.01 136.684C146.322 136.595 146.646 136.552 146.971 136.555C147.302 136.556 147.631 136.609 147.947 136.71C148.275 136.818 148.562 137.026 148.766 137.305C148.943 137.594 149.004 137.94 148.936 138.273C148.899 137.968 148.781 137.678 148.596 137.433C148.396 137.213 148.139 137.054 147.854 136.971C147.255 136.79 146.635 136.694 146.01 136.684Z" fill="black"/>
<path d="M150.466 154.247C150.581 154.01 150.757 153.808 150.976 153.661C151.092 153.58 151.224 153.524 151.362 153.495C151.501 153.466 151.644 153.466 151.783 153.494C152.048 153.579 152.281 153.744 152.449 153.966C152.518 154.078 152.591 154.187 152.651 154.301C152.695 154.424 152.747 154.541 152.781 154.664C152.611 154.47 152.46 154.276 152.29 154.107C152.132 153.946 151.935 153.827 151.719 153.763C151.502 153.712 151.275 153.742 151.079 153.847C150.859 153.954 150.653 154.088 150.466 154.247V154.247Z" fill="black"/>
<path d="M140.233 155.541C140.249 155.084 140.365 154.636 140.574 154.229C140.63 154.115 140.708 154.014 140.804 153.931C140.9 153.848 141.012 153.786 141.132 153.748C141.26 153.724 141.391 153.728 141.517 153.762C141.643 153.795 141.759 153.856 141.858 153.941C142.049 154.086 142.212 154.266 142.338 154.471C142.466 154.689 142.51 154.946 142.46 155.194C142.391 155.417 142.274 155.623 142.117 155.796C141.961 155.969 141.768 156.105 141.553 156.196C141.901 155.943 142.148 155.575 142.25 155.157C142.268 154.963 142.223 154.767 142.121 154.6C142.006 154.43 141.862 154.283 141.694 154.165C141.629 154.1 141.549 154.051 141.462 154.021C141.374 153.992 141.281 153.982 141.19 153.994C141.008 154.054 140.853 154.178 140.754 154.342C140.525 154.715 140.35 155.119 140.233 155.541V155.541Z" fill="black"/>
<path d="M133.123 152.159C133.096 152.616 132.968 153.06 132.748 153.461C132.69 153.574 132.609 153.673 132.511 153.753C132.413 153.834 132.3 153.893 132.178 153.928C132.05 153.949 131.918 153.941 131.794 153.904C131.669 153.867 131.554 153.803 131.458 153.716C131.27 153.566 131.112 153.382 130.991 153.173C130.869 152.952 130.832 152.694 130.889 152.447C130.963 152.226 131.085 152.024 131.247 151.855C131.408 151.686 131.604 151.555 131.822 151.47C131.467 151.713 131.211 152.075 131.098 152.49C131.075 152.684 131.115 152.88 131.212 153.05C131.322 153.223 131.463 153.374 131.627 153.496C131.691 153.563 131.769 153.614 131.856 153.646C131.942 153.678 132.035 153.69 132.127 153.681C132.311 153.625 132.468 153.505 132.572 153.343C132.81 152.977 132.996 152.578 133.123 152.159V152.159Z" fill="black"/>
<path d="M137.296 159.709C137.415 159.394 137.582 159.099 137.792 158.836C137.899 158.696 138.027 158.574 138.172 158.474C138.255 158.412 138.352 158.371 138.455 158.355C138.557 158.339 138.662 158.349 138.76 158.382C138.934 158.481 139.065 158.641 139.127 158.832C139.189 158.994 139.228 159.165 139.244 159.338C139.285 159.673 139.27 160.012 139.2 160.342C139.164 160.017 139.108 159.694 139.034 159.376C138.999 159.224 138.952 159.076 138.895 158.931C138.828 158.803 138.749 158.666 138.648 158.636C138.459 158.532 138.164 158.767 137.949 158.979C137.719 159.211 137.501 159.455 137.296 159.709V159.709Z" fill="black"/>
<path d="M129.737 144.324L127.382 146.922C127.382 146.922 127.4 150.243 125.721 150.383C125.721 150.383 124.87 151.153 125.476 151.311C126.018 151.445 127.971 150.961 128.816 151.06C128.816 151.06 132.82 150.266 133.502 150.698C133.707 150.837 133.88 151.019 134.008 151.232C134.135 151.445 134.216 151.683 134.242 151.929L134.569 151.894L147.199 152.647L152.678 144.324L129.737 144.324ZM146.01 150.149L128.286 149.852L130.599 146.122H148.359L146.01 150.149Z" fill="black"/>
<path d="M115.212 150.384C115.895 149.886 116.668 149.523 117.487 149.317C118.32 149.102 119.183 149.028 120.041 149.096C120.118 149.102 120.189 149.139 120.239 149.197C120.29 149.256 120.314 149.332 120.309 149.409C120.303 149.486 120.267 149.558 120.209 149.609C120.15 149.659 120.074 149.684 119.997 149.679C119.985 149.678 119.973 149.676 119.961 149.674C119.165 149.517 118.349 149.493 117.545 149.603C116.724 149.711 115.932 149.976 115.212 150.384V150.384Z" fill="black"/>
<path d="M120.001 156.413C121.641 156.444 123.281 156.501 124.921 156.657C125.327 156.693 125.751 156.759 126.143 156.805C126.539 156.848 126.938 156.856 127.336 156.829C128.122 156.775 128.895 156.59 129.62 156.28L129.639 156.271C129.71 156.24 129.79 156.238 129.863 156.266C129.935 156.294 129.993 156.35 130.024 156.421C130.055 156.492 130.057 156.572 130.029 156.644C130.001 156.717 129.946 156.775 129.875 156.806L129.859 156.813C129.055 157.106 128.208 157.259 127.353 157.266C126.931 157.27 126.509 157.237 126.093 157.166C125.674 157.092 125.292 157.008 124.884 156.946C123.27 156.695 121.635 156.54 120.001 156.413Z" fill="black"/>
<path d="M121.265 160.942C121.821 160.742 122.383 160.555 122.951 160.382C123.525 160.2 124.111 160.057 124.704 159.952C124.78 159.94 124.859 159.958 124.921 160.004C124.984 160.049 125.027 160.118 125.039 160.195C125.051 160.271 125.033 160.35 124.987 160.413C124.942 160.476 124.873 160.518 124.797 160.531C124.781 160.533 124.766 160.534 124.75 160.534H124.744C124.165 160.541 123.586 160.585 123.012 160.667C122.429 160.743 121.846 160.836 121.265 160.942Z" fill="black"/>
<path d="M123.46 146.195C123.759 146.505 124.109 146.759 124.496 146.947C124.888 147.128 125.299 147.265 125.722 147.354C125.498 147.406 125.268 147.418 125.04 147.389C124.81 147.358 124.585 147.293 124.374 147.196C124.167 147.089 123.978 146.949 123.814 146.782C123.651 146.617 123.53 146.416 123.46 146.195V146.195Z" fill="black"/>
<path d="M132.357 156.515C132.202 156.516 132.054 156.455 131.944 156.346C131.834 156.237 131.772 156.089 131.771 155.934C131.771 155.78 131.831 155.631 131.94 155.521C132.049 155.411 132.197 155.349 132.352 155.348L139.735 155.279C139.812 155.276 139.889 155.29 139.96 155.318C140.032 155.346 140.097 155.388 140.152 155.442C140.207 155.496 140.25 155.561 140.28 155.632C140.309 155.703 140.324 155.779 140.323 155.857C140.324 155.933 140.31 156.009 140.281 156.08C140.252 156.152 140.21 156.216 140.156 156.271C140.103 156.326 140.039 156.369 139.969 156.399C139.898 156.429 139.822 156.445 139.746 156.446L132.362 156.515H132.357Z" fill="black"/>
<path d="M152.645 156.326C152.491 156.326 152.342 156.265 152.233 156.156C152.124 156.046 152.062 155.898 152.062 155.743C152.062 155.588 152.123 155.44 152.232 155.33C152.342 155.221 152.49 155.159 152.644 155.159L172.997 155.132H172.998C173.152 155.132 173.3 155.194 173.41 155.303C173.519 155.412 173.581 155.561 173.581 155.716C173.581 155.87 173.52 156.019 173.41 156.128C173.301 156.238 173.153 156.299 172.998 156.3L152.646 156.326H152.645Z" fill="black"/>
<path d="M287.759 156.146C287.604 156.146 287.456 156.085 287.347 155.975C287.237 155.866 287.176 155.718 287.176 155.563C287.176 155.408 287.237 155.26 287.346 155.15C287.456 155.04 287.604 154.979 287.758 154.979L306.465 154.956H306.466C306.62 154.956 306.769 155.017 306.878 155.127C306.987 155.236 307.049 155.385 307.049 155.539C307.049 155.694 306.988 155.843 306.879 155.952C306.769 156.062 306.621 156.123 306.466 156.123L287.76 156.146H287.759Z" fill="black"/>
<path d="M181.215 155.845H179.831C179.794 155.845 179.759 155.831 179.732 155.805C179.706 155.779 179.691 155.744 179.69 155.707C179.69 155.689 179.694 155.671 179.7 155.654C179.707 155.637 179.717 155.622 179.73 155.609C179.742 155.596 179.758 155.586 179.774 155.579C179.791 155.572 179.809 155.568 179.827 155.568H181.215C181.233 155.568 181.251 155.572 181.268 155.579C181.285 155.586 181.3 155.596 181.313 155.609C181.326 155.621 181.337 155.637 181.344 155.654C181.351 155.671 181.354 155.689 181.354 155.707C181.354 155.725 181.351 155.743 181.344 155.76C181.337 155.777 181.326 155.792 181.313 155.805C181.3 155.818 181.285 155.828 181.268 155.835C181.251 155.842 181.233 155.845 181.215 155.845V155.845Z" fill="black"/>
<path d="M1.5343 157.737C1.37971 157.738 1.23118 157.677 1.12136 157.568C1.01155 157.459 0.949454 157.311 0.948737 157.156C0.948019 157.001 1.00874 156.852 1.11754 156.742C1.22634 156.633 1.37431 156.57 1.52889 156.57L27.1905 156.331C27.3438 156.333 27.4903 156.395 27.5997 156.502C27.7091 156.61 27.7732 156.755 27.7788 156.909C27.7795 156.985 27.7652 157.061 27.7366 157.133C27.708 157.204 27.6656 157.268 27.612 157.323C27.5584 157.378 27.4945 157.422 27.4241 157.452C27.3536 157.482 27.2779 157.497 27.2014 157.498L1.53971 157.737H1.5343Z" fill="black"/>
<path d="M98.3167 76.951C98.5322 76.9436 98.7365 76.8526 98.8863 76.6973C99.0362 76.542 99.1199 76.3344 99.1199 76.1185C99.1199 75.9025 99.0362 75.695 98.8863 75.5397C98.7365 75.3843 98.5322 75.2933 98.3167 75.2859C98.1011 75.2933 97.8969 75.3843 97.747 75.5397C97.5972 75.695 97.5134 75.9025 97.5134 76.1185C97.5134 76.3344 97.5972 76.542 97.747 76.6973C97.8969 76.8526 98.1011 76.9436 98.3167 76.951V76.951Z" fill="black"/>
<path d="M140.348 60.802L133.541 61.0559C131.308 61.1237 129.1 61.1779 126.904 61.2189C124.712 61.2494 122.527 61.2842 120.351 61.2596C118.174 61.2433 115.997 61.1458 113.798 61.085L114.122 60.7608C114.087 62.0185 114.03 63.2764 114.013 64.5342C113.982 65.7919 113.981 67.0497 113.973 68.3076C113.972 70.8231 114.024 73.3387 114.095 75.8543L113.798 75.5565L119.23 75.4054C119.285 75.4038 119.34 75.4132 119.392 75.4332C119.444 75.4531 119.491 75.4832 119.531 75.5216L119.547 75.5369L121.622 77.5348H120.908L122.914 75.4684C122.963 75.4185 123.02 75.3786 123.084 75.3512C123.148 75.3238 123.217 75.3093 123.286 75.3087L123.3 75.3085C126.148 75.285 128.996 75.2265 131.844 75.2317C133.269 75.2246 134.693 75.2305 136.117 75.2492L140.389 75.3034L139.839 75.8543C139.878 73.4027 139.949 70.9508 140.05 68.4482L140.348 60.802ZM140.43 60.7195L140.728 68.1668C140.83 70.6955 140.9 73.2747 140.939 75.8543C140.942 75.9982 140.887 76.1371 140.786 76.2404C140.686 76.3437 140.549 76.403 140.406 76.4051H140.404L140.389 76.4053L136.117 76.4594C134.693 76.4765 133.269 76.4824 131.844 76.4769C128.996 76.4822 126.148 76.4237 123.3 76.4001L123.685 76.2404L121.622 78.2491L121.61 78.2609C121.563 78.3063 121.508 78.342 121.448 78.366C121.387 78.39 121.323 78.4019 121.258 78.401C121.193 78.4001 121.129 78.3863 121.069 78.3606C121.009 78.3349 120.955 78.2976 120.91 78.2509L120.908 78.2491L118.913 76.1719L119.23 76.3033L113.798 76.1522L113.781 76.1518C113.705 76.1496 113.632 76.1171 113.579 76.0613C113.527 76.0056 113.498 75.9311 113.5 75.8544V75.8543C113.571 73.3388 113.624 70.8231 113.623 68.3076C113.615 67.0497 113.614 65.792 113.583 64.5342C113.566 63.2765 113.509 62.0186 113.474 60.7608C113.473 60.7194 113.48 60.6783 113.495 60.6396C113.51 60.6009 113.532 60.5656 113.56 60.5355C113.589 60.5054 113.623 60.4813 113.66 60.4644C113.698 60.4475 113.739 60.4382 113.78 60.4371H113.78L113.798 60.4366C116.031 60.3758 118.286 60.2782 120.541 60.2619C122.797 60.2374 125.044 60.2722 127.283 60.3027C129.519 60.3436 131.743 60.3979 133.942 60.4657L140.43 60.7195Z" fill="black"/>
<path d="M218.55 32.882L208.532 33.0555L198.598 33.1809L178.869 33.3197L169.054 33.2851L159.244 33.1608C152.698 33.0602 146.119 33.0122 139.543 33.0287L139.731 32.8408L139.766 40.3874L139.852 47.9343L139.543 47.6245C145.338 47.5454 151.134 47.4706 156.93 47.4304L174.316 47.3344C180.112 47.2895 185.907 47.3411 191.703 47.3398C197.498 47.3327 203.294 47.4089 209.089 47.4554L209.097 47.4555C209.222 47.4566 209.34 47.507 209.428 47.5957L211.444 49.6514H210.804L212.862 47.6366L212.869 47.629C212.908 47.5916 212.953 47.5621 213.003 47.5422C213.053 47.5224 213.106 47.5125 213.159 47.5132L218.591 47.5923L218.25 47.9343C218.289 45.4574 218.322 42.9806 218.39 40.4707L218.55 32.882ZM218.632 32.7995L218.792 40.3041C218.86 42.8254 218.893 45.3798 218.933 47.9342C218.934 48.0235 218.9 48.1096 218.838 48.1737C218.776 48.2378 218.691 48.2747 218.602 48.2761H218.601L218.591 48.2762L213.159 48.3553L213.456 48.232L211.444 50.2923C211.361 50.3772 211.248 50.4257 211.129 50.427C211.011 50.4283 210.896 50.3824 210.811 50.2993L210.811 50.2986L210.804 50.2923L208.751 48.2729L209.089 48.4131C203.294 48.4596 197.498 48.5358 191.703 48.5287C185.907 48.5274 180.112 48.579 174.316 48.5341L156.929 48.4381C151.134 48.3979 145.338 48.3231 139.543 48.244H139.535C139.495 48.2435 139.455 48.2351 139.418 48.2193C139.382 48.2034 139.348 48.1805 139.32 48.1517C139.292 48.1229 139.27 48.0889 139.255 48.0516C139.24 48.0143 139.233 47.9744 139.233 47.9342L139.32 40.3874L139.355 32.8408C139.355 32.7909 139.375 32.7431 139.41 32.7078C139.445 32.6725 139.493 32.6526 139.543 32.6525C146.142 32.6692 152.737 32.6212 159.366 32.5206L169.318 32.3963L179.265 32.3616L199.06 32.5005L208.889 32.6257L218.632 32.7995Z" fill="black"/>
<path d="M163.662 0.672797C159.388 0.794625 155.187 0.879407 151.01 0.952361C146.823 1.03942 142.687 1.07832 138.553 1.11023C134.42 1.14273 130.314 1.11679 126.2 1.0246C122.083 0.954071 117.948 0.839083 113.798 0.818417L113.985 0.631618C113.983 1.88935 113.965 3.14713 113.979 4.40487L114.002 8.17828C114.005 10.6939 114.067 13.2094 114.103 15.7251L113.798 15.4196L119.23 15.3177C119.281 15.3167 119.332 15.3258 119.379 15.3444C119.427 15.3631 119.47 15.391 119.507 15.4264L119.518 15.4371L121.585 17.4419H120.945L122.954 15.3788C122.998 15.3341 123.05 15.2983 123.107 15.2737C123.164 15.2491 123.226 15.2361 123.288 15.2355L123.3 15.2353L133.401 15.1474C136.768 15.1207 140.135 15.096 143.502 15.1013C150.236 15.0981 156.97 15.1967 163.704 15.2865L163.266 15.7251L163.445 8.28572L163.662 0.672797ZM163.745 0.5903L163.963 8.07085L164.142 15.7251C164.144 15.8387 164.102 15.9487 164.023 16.0309C163.945 16.1131 163.837 16.1607 163.724 16.1634L163.72 16.1635L163.704 16.1637C156.97 16.2535 150.236 16.3521 143.502 16.3489C140.135 16.3543 136.768 16.3295 133.401 16.3029L123.3 16.2148L123.646 16.0715L121.585 18.0833L121.576 18.0923C121.492 18.1749 121.378 18.2205 121.259 18.2191C121.141 18.2176 121.028 18.1692 120.946 18.0844L120.945 18.0833L118.943 16.0132L119.23 16.1325L113.798 16.0306L113.788 16.0304C113.749 16.0298 113.71 16.0215 113.674 16.0058C113.637 15.9901 113.605 15.9674 113.577 15.9391C113.55 15.9107 113.528 15.8772 113.514 15.8405C113.499 15.8038 113.492 15.7646 113.493 15.7251C113.53 13.2094 113.591 10.6939 113.594 8.17829L113.617 4.40488C113.631 3.14715 113.613 1.88938 113.611 0.631622C113.611 0.582027 113.631 0.534472 113.666 0.499396C113.701 0.46432 113.749 0.444591 113.798 0.444533C117.966 0.423873 122.148 0.308882 126.349 0.238507C130.553 0.146176 134.765 0.120388 138.949 0.152715C143.132 0.184774 147.313 0.223675 151.445 0.310736C155.585 0.38355 159.701 0.468473 163.745 0.590296V0.5903Z" fill="black"/>
</svg>
