<svg width="322" height="286" viewBox="0 0 322 286" fill="none" xmlns="http://www.w3.org/2000/svg">
<path d="M176.518 68.2505L167.122 73.6673L167.106 73.6431L165.541 70.9227C165.311 69.2258 164.939 67.5514 164.427 65.9176C165.177 62.4302 164.992 60.2828 164.653 59.0316C164.521 58.5031 164.236 58.0252 163.834 57.6577C163.432 57.2901 162.931 57.0492 162.393 56.9649C161.982 56.9135 161.565 56.9823 161.193 57.1628C160.82 57.3433 160.508 57.6279 160.294 57.9821C159.552 55.859 160.649 53.0012 163.579 53.0012C166.921 53.0012 167.857 56.6823 166.437 58.8056C167.587 58.4977 168.806 58.5776 169.906 59.0329C171.006 59.4882 171.926 60.2935 172.522 61.3241L176.445 68.1214L176.518 68.2505Z" fill="black"/>
<path d="M154.612 91.7422C156.541 98.0874 170.73 131.977 172.135 135.319L171.61 146.177C143.465 148.227 105.263 123.25 103.374 122.007C105.626 121.706 107.843 121.184 109.993 120.449C112.169 119.709 114.282 118.796 116.313 117.72C117.346 117.212 118.307 116.566 119.291 115.977C120.228 115.307 121.196 114.677 122.084 113.934C123.853 112.563 125.488 111.028 126.967 109.349C128.154 109.535 129.324 109.704 130.503 109.849L134.248 110.374C136.742 110.729 139.22 111.181 141.73 111.504C144.239 111.806 146.766 111.946 149.293 111.924C151.823 111.904 154.349 111.694 156.848 111.295C156.86 111.291 156.872 111.283 156.88 111.273C156.889 111.263 156.894 111.251 156.896 111.238C156.895 111.223 156.889 111.209 156.879 111.199C156.868 111.189 156.854 111.182 156.84 111.181C154.313 111.173 151.811 111.141 149.309 111.036L141.803 110.624C139.3 110.503 136.782 110.382 134.296 110.035C131.81 109.68 129.332 109.196 126.903 108.598C126.835 108.582 126.763 108.591 126.701 108.622C126.486 108.513 126.295 108.362 126.14 108.178C125.984 107.993 125.868 107.779 125.797 107.549C125.58 106.963 125.436 106.353 125.369 105.732C125.227 104.47 125.197 103.198 125.281 101.93C125.099 103.197 125.034 104.478 125.087 105.757C125.113 106.409 125.216 107.057 125.393 107.686C125.494 108.019 125.65 108.333 125.854 108.614C125.964 108.761 126.094 108.891 126.241 109.002C124.725 110.462 123.116 111.821 121.422 113.07C119.611 114.395 117.716 115.6 115.748 116.679C111.81 118.891 107.632 120.644 103.294 121.902C103.28 121.906 103.268 121.915 103.259 121.926C103.25 121.938 103.246 121.952 103.246 121.967C103.246 121.973 103.249 121.978 103.254 121.983C102.164 122.362 82.744 129.426 80.9117 140.308C79.572 148.251 78.5065 157.551 78.8699 164.163L78.7971 164.453C60.4589 146.225 61.492 132.074 61.492 132.074C61.492 132.074 93.7293 89.9905 110.316 80.0773C110.316 80.0773 115.369 74.0066 131.35 75.4274C134.676 75.718 138.631 76.283 142.812 76.9935C142.831 77.2568 142.833 77.521 142.82 77.7847C142.774 79.6129 143.189 81.4233 144.025 83.0497C144.861 84.676 146.093 86.0661 147.606 87.0924C148.808 87.9077 154.612 91.7422 154.612 91.7422Z" fill="black"/>
<path d="M177.946 84.5332C174.621 89.2316 173.991 97.1429 173.991 97.1429L173.951 98.0229C170.541 92.9229 167.773 87.4215 165.71 81.6433C172.845 83.2498 177.946 84.5332 177.946 84.5332Z" fill="black"/>
<path d="M167.106 73.6431L165.799 74.4181C165.82 76.0172 165.608 77.6109 165.169 79.1487L195.784 61.7682L181.619 31.2451L145.313 50.1354L144.401 52.1536L151.964 66.0144C152.749 66.3966 153.592 66.6449 154.458 66.749C152.828 64.3675 151.399 61.8731 150.011 59.3544C148.577 56.7538 147.279 54.0809 146.12 51.3463C147.783 53.8065 149.319 56.35 150.721 58.9669C152.085 61.5098 153.401 64.0851 154.523 66.7571C155.31 66.8752 156.114 66.7274 156.807 66.3373L156.799 66.3293L150.269 52.1536L180.206 35.6691L191.288 59.3383L176.445 68.1214L167.106 73.6431Z" fill="black"/>
<path d="M14.0217 165.798C14.0217 165.798 15.3703 181.715 47.6026 159.054C47.6026 159.054 55.6944 153.928 62.3027 154.333C62.3027 154.333 64.8651 161.077 64.8651 166.742L52.0531 171.23C52.0531 171.23 53.4017 162.426 45.3099 166.608C45.3099 166.608 26.0245 186.975 1.07481 177.533C1.07481 177.533 -5.5335 174.431 14.0217 165.798Z" fill="black"/>
<path d="M14.0215 165.798C17.81 163.017 21.6537 160.323 25.5526 157.715C29.4395 155.089 33.377 152.542 37.3243 150.01C41.2879 147.504 45.2623 145.016 49.2872 142.606C53.2998 140.177 57.3685 137.837 61.4933 135.584C57.7058 138.367 53.8625 141.062 49.9635 143.669C46.0764 146.295 42.1389 148.842 38.1905 151.372C34.2259 153.876 30.2514 156.365 26.2263 158.774C22.2133 161.202 18.145 163.544 14.0215 165.798Z" fill="black"/>
<path d="M62.3027 154.333C63.2486 152.608 64.2879 150.936 65.4158 149.324C66.5174 147.703 67.6936 146.14 68.8841 144.588C70.0981 143.055 71.3281 141.535 72.6308 140.074C73.9172 138.592 75.2846 137.181 76.7268 135.849C75.7805 137.577 74.7402 139.252 73.6107 140.866C72.5094 142.486 71.3354 144.046 70.1455 145.594C68.9319 147.123 67.7041 148.641 66.4018 150.1C65.1132 151.585 63.7449 152.998 62.3027 154.333V154.333Z" fill="black"/>
<path d="M86.443 135.584C86.2266 135.688 86.0459 135.854 85.9235 136.061C85.8011 136.268 85.7425 136.506 85.7549 136.746C85.8083 137.219 86.0002 137.666 86.3066 138.031C86.8978 138.793 87.5949 139.466 88.3767 140.031C89.9409 141.183 91.5893 142.215 93.3078 143.12C96.7143 144.999 100.27 146.613 103.83 148.197C110.969 151.339 118.275 154.104 125.53 157.052L136.384 161.509C139.993 163.009 143.611 164.484 147.245 165.888C149.062 166.591 150.895 167.245 152.741 167.837C154.569 168.452 156.449 168.906 158.357 169.191C159.3 169.322 160.255 169.352 161.205 169.281C162.149 169.196 163.069 168.932 163.915 168.504C165.591 167.523 166.987 166.126 167.968 164.449C167.503 165.316 166.968 166.143 166.366 166.921C165.735 167.696 164.976 168.358 164.122 168.878C163.248 169.39 162.284 169.732 161.283 169.886C160.287 170.024 159.279 170.055 158.277 169.979C156.302 169.779 154.349 169.402 152.442 168.852C150.537 168.335 148.669 167.715 146.814 167.072C139.403 164.471 132.182 161.459 124.923 158.547L114.061 154.108C110.449 152.585 106.845 151.039 103.308 149.338C99.747 147.677 96.2766 145.828 92.9112 143.8C91.226 142.775 89.6201 141.625 88.1068 140.36C87.3368 139.729 86.6624 138.99 86.1049 138.165C85.8118 137.749 85.648 137.256 85.6338 136.747C85.6395 136.495 85.7193 136.25 85.8632 136.043C86.0071 135.837 86.2088 135.677 86.443 135.584V135.584Z" fill="black"/>
<path d="M171.609 177.601C172.027 180.187 172.286 182.777 172.489 185.37C172.702 187.962 172.821 190.558 172.921 193.154C172.992 195.751 173.041 198.348 172.997 200.949C172.964 203.55 172.872 206.152 172.621 208.759C172.201 206.174 171.941 203.583 171.738 200.99C171.526 198.398 171.407 195.802 171.309 193.206C171.241 190.609 171.191 188.011 171.235 185.411C171.269 182.81 171.36 180.208 171.609 177.601Z" fill="black"/>
<path d="M194.266 107.798C195.108 105.88 196.23 104.097 197.595 102.509C198.936 100.892 200.423 99.4003 202.036 98.0539C205.313 95.4019 208.951 93.2319 212.842 91.6098C220.654 88.4502 228.959 86.6857 237.381 86.3966C241.495 86.2385 245.587 85.7245 249.612 84.8604C253.617 83.9915 257.474 82.5451 261.062 80.5666C264.651 78.5784 267.777 75.8506 270.234 72.5638C271.471 70.917 272.503 69.1248 273.305 67.2273C274.132 65.3245 274.697 63.3177 274.982 61.2625C274.869 63.3558 274.438 65.4197 273.704 67.383C272.996 69.3694 272.049 71.2617 270.882 73.018C268.497 76.5399 265.362 79.489 261.7 81.653C259.891 82.7567 257.984 83.6918 256.003 84.4465C254.032 85.2114 252.014 85.8469 249.96 86.3491C245.852 87.2718 241.669 87.827 237.462 88.008C229.211 88.2827 221.058 89.8908 213.32 92.7703C209.475 94.2488 205.844 96.2332 202.524 98.671C200.866 99.9001 199.323 101.278 197.916 102.788C196.484 104.29 195.256 105.974 194.266 107.798Z" fill="black"/>
<path d="M183.2 77.7654C183.575 76.0138 184.201 74.3251 185.056 72.751C185.893 71.1639 186.871 69.6554 187.979 68.2441C190.219 65.4391 192.847 62.9682 195.785 60.9063C196.527 60.4068 197.26 59.8945 198.019 59.4267L200.359 58.1306L201.528 57.4879L202.738 56.9262C203.542 56.5482 204.353 56.188 205.147 55.7959C206.77 55.0852 208.417 54.4366 210.03 53.71C211.694 53.109 213.348 52.4783 214.993 51.8179C215.04 51.7991 215.091 51.7937 215.141 51.8021L215.182 51.8094C217.505 52.1948 219.858 52.3643 222.212 52.3156C224.539 52.3132 226.857 52.035 229.118 51.4867C231.32 50.9685 233.369 49.9407 235.102 48.486C235.922 47.7516 236.629 46.9002 237.201 45.9594C237.761 44.9979 238.193 43.9671 238.485 42.8932L238.505 42.8231C238.551 42.6669 238.646 42.5295 238.776 42.4309C238.905 42.3324 239.063 42.2779 239.226 42.2754C240.855 42.2807 242.478 42.4694 244.065 42.8379C245.62 43.1893 247.146 43.6567 248.631 44.2361C250.099 44.8301 251.528 45.5141 252.911 46.2842C254.276 47.0658 255.591 47.9322 256.848 48.8782C256.856 48.8846 256.863 48.8926 256.869 48.9017C256.874 48.9109 256.878 48.921 256.879 48.9315C256.881 48.942 256.88 48.9527 256.878 48.963C256.875 48.9733 256.87 48.983 256.864 48.9915C256.852 49.0067 256.835 49.0173 256.816 49.0213C256.796 49.0253 256.777 49.0224 256.759 49.0133L254.691 47.9238C253.984 47.5988 253.302 47.2288 252.58 46.9439C251.173 46.3111 249.729 45.7654 248.255 45.31C246.79 44.865 245.3 44.5122 243.791 44.2536C242.319 43.9877 240.824 43.8712 239.328 43.906L240.069 43.2884C239.766 44.5259 239.3 45.7176 238.682 46.832C238.024 47.9371 237.198 48.9323 236.232 49.7813C234.274 51.3805 231.957 52.4783 229.48 52.9795C227.087 53.4955 224.635 53.6865 222.191 53.5474C219.775 53.4169 217.376 53.0685 215.023 52.5064L215.213 52.4979C213.54 53.0291 211.874 53.588 210.214 54.1746C209.403 54.5127 208.599 54.8685 207.797 55.2266C206.996 55.5892 206.182 55.9227 205.412 56.3449C204.638 56.7611 203.882 57.2091 203.118 57.6395L201.977 58.2901L200.883 59.0167L198.7 60.4669L196.611 62.036C193.815 64.0952 191.238 66.4369 188.921 69.0243C187.776 70.3298 186.724 71.7148 185.774 73.1688C184.795 74.6161 183.984 76.1701 183.357 77.8009L183.354 77.8086C183.347 77.8275 183.333 77.8431 183.315 77.8523C183.297 77.8615 183.277 77.8636 183.257 77.8581C183.238 77.8527 183.221 77.8402 183.21 77.823C183.2 77.8059 183.196 77.7853 183.2 77.7655L183.2 77.7654Z" fill="black"/>
<path d="M217.161 52.5869C216.171 51.749 215.059 50.8377 213.823 51.1811C213.196 51.3304 212.582 51.5299 211.987 51.7775L210.12 52.4632C208.849 52.9515 207.527 53.2965 206.179 53.4916C205.478 53.5793 204.77 53.5896 204.068 53.5223C203.353 53.4327 202.654 53.2447 201.991 52.9638C200.687 52.3874 199.531 51.5214 198.611 50.4315C197.711 49.3904 196.931 48.2524 196.283 47.0384C195.63 45.8614 195.056 44.7044 194.383 43.5841C194.06 43.0222 193.727 42.4651 193.368 41.9502C193.201 41.7001 193.017 41.4612 192.818 41.2353C192.743 41.1458 192.66 41.0631 192.571 40.9883C192.532 40.9534 192.529 40.9631 192.579 40.9671C192.693 40.9839 192.809 40.959 192.906 40.8968C193.002 40.8347 193.073 40.7397 193.105 40.6293L192.641 41.0449C191.881 41.1651 191.103 40.9938 190.464 40.5653C190.129 40.3473 189.856 40.046 189.673 39.6908C189.486 39.3254 189.418 38.9102 189.48 38.5044C189.745 36.9605 191.019 36.19 191.667 35.3765C192.393 34.4838 192.897 33.4327 193.14 32.3084C193.4 31.1694 193.456 29.9931 193.304 28.8345L193.395 28.9889C192.597 28.27 191.999 27.3554 191.661 26.3354C191.318 25.3422 191.126 24.3032 191.091 23.2531C191.038 22.2143 191.07 21.1729 191.185 20.1392C191.279 19.1012 191.441 18.0705 191.671 17.054C191.685 16.9924 191.715 16.9354 191.757 16.8884C191.799 16.8413 191.853 16.8057 191.912 16.785C191.972 16.7642 192.036 16.7589 192.098 16.7695C192.161 16.7802 192.219 16.8064 192.269 16.8459L192.29 16.8632C194.714 18.8188 197.232 20.6726 199.766 22.4683C201.035 23.3627 202.322 24.2305 203.639 25.0196C204.296 25.4135 204.958 25.7931 205.628 26.1149C206.196 26.4305 206.821 26.6304 207.467 26.703L206.745 27.4453C206.783 26.6523 206.92 25.8671 207.153 25.1081C207.389 24.269 207.849 23.5101 208.484 22.9132C208.663 22.7476 208.865 22.6092 209.083 22.5027L209.417 22.3375L209.774 22.2426C209.894 22.2144 210.015 22.183 210.135 22.1629L210.489 22.1538C210.719 22.1384 210.95 22.1561 211.174 22.2063C212.055 22.344 212.871 22.7506 213.512 23.3703C214.114 23.9408 214.599 24.6232 214.94 25.3793C215.275 26.0887 215.53 26.8333 215.7 27.5992C215.869 28.3549 215.966 29.1249 215.989 29.8989C216 30.2979 215.986 30.6972 215.948 31.0945C215.92 31.3153 215.879 31.5344 215.826 31.7506L215.709 32.1171C215.621 32.2947 215.513 32.4616 215.387 32.6144L215.193 31.2934C216.87 32.1941 218.577 33.0793 220.291 33.9142C221.151 34.3232 222.015 34.7273 222.887 35.0795C223.695 35.4404 224.546 35.696 225.42 35.8401L225.496 35.8472C225.591 35.8564 225.683 35.8886 225.764 35.941C227.91 37.3473 230.073 38.7668 232.298 40.0593C233.414 40.7005 234.531 41.3412 235.679 41.9148C236.25 42.2024 236.836 42.4608 237.433 42.689C237.999 42.9544 238.625 43.0669 239.248 43.0152L239.264 43.0118C239.285 43.0074 239.306 43.011 239.323 43.0217C239.341 43.0324 239.353 43.0495 239.359 43.0694C239.364 43.0893 239.361 43.1104 239.352 43.1284C239.342 43.1465 239.325 43.16 239.306 43.1662C238.645 43.3071 237.959 43.2609 237.324 43.0327C236.694 42.8527 236.073 42.6407 235.465 42.3976C234.25 41.918 233.065 41.3734 231.904 40.7866C229.584 39.6068 227.301 38.3742 225.076 37.0143L225.42 37.1151C224.38 37.0159 223.36 36.7664 222.391 36.3745C221.462 36.0401 220.564 35.6613 219.667 35.2768C217.878 34.5008 216.135 33.6646 214.406 32.7594L214.211 31.4382C214.181 31.4336 214.162 31.4676 214.169 31.4745C214.18 31.4238 214.193 31.3737 214.208 31.3243C214.24 31.2229 214.249 31.0509 214.275 30.9186C214.298 30.5986 214.303 30.2775 214.288 29.9569C214.251 29.2919 214.159 28.6311 214.015 27.981C213.79 26.7257 213.209 25.5616 212.341 24.6273C211.947 24.2333 211.441 23.9684 210.893 23.8677C210.662 23.8077 210.42 23.8026 210.187 23.8529C209.954 23.9033 209.736 24.0076 209.55 24.1575C208.777 24.7903 208.388 26.2629 208.288 27.5026L208.283 27.5653C208.268 27.7469 208.187 27.9166 208.054 28.0419C207.922 28.1672 207.748 28.2395 207.566 28.245C207.071 28.2437 206.58 28.1497 206.119 27.9679C205.726 27.8186 205.341 27.6475 204.967 27.4554C204.25 27.0868 203.553 26.6809 202.878 26.2393C201.545 25.3692 200.272 24.4384 199.02 23.484C196.521 21.5697 194.15 19.5197 191.792 17.4475L192.411 17.2568C191.849 19.1957 191.59 21.2097 191.642 23.2277C191.656 24.2282 191.82 25.2209 192.129 26.1727C192.429 27.1084 192.98 27.9441 193.721 28.5893L193.732 28.5981C193.776 28.6351 193.804 28.6871 193.812 28.744C193.995 29.9691 193.976 31.216 193.754 32.4347C193.548 33.6798 193.061 34.8616 192.33 35.89C192.142 36.1482 191.939 36.3945 191.72 36.6272C191.521 36.8586 191.334 37.0516 191.16 37.2722C190.832 37.6545 190.615 38.1194 190.534 38.6163C190.518 38.8146 190.563 39.013 190.663 39.1852C190.762 39.3574 190.911 39.4955 191.091 39.5813C191.476 39.8024 191.927 39.8803 192.363 39.8011L191.9 40.2166C191.969 40.0316 192.103 39.878 192.277 39.7841C192.451 39.6903 192.653 39.6625 192.846 39.7059C193.007 39.7433 193.159 39.8106 193.296 39.9043C193.474 40.0232 193.638 40.1625 193.784 40.3194C194.032 40.581 194.263 40.8591 194.474 41.1518C194.89 41.7104 195.255 42.2794 195.611 42.8529C196.306 43.9995 196.932 45.2042 197.552 46.3473C198.756 48.5926 200.304 50.7617 202.503 51.7975C203.624 52.3003 204.855 52.508 206.079 52.4009C207.361 52.2877 208.627 52.0322 209.854 51.639C211.124 51.2102 212.424 50.8707 213.742 50.623C214.459 50.5256 215.187 50.6984 215.784 51.1079C216.33 51.5041 216.83 51.9615 217.273 52.4712C217.288 52.4868 217.296 52.5076 217.295 52.529C217.294 52.5504 217.285 52.5707 217.27 52.5854C217.255 52.5989 217.236 52.6065 217.216 52.6067C217.195 52.607 217.176 52.6 217.161 52.5869V52.5869Z" fill="black"/>
<path d="M212.271 34.252C212.654 33.8391 213.062 33.4492 213.492 33.0843L214.098 32.5699C214.321 32.3759 214.556 32.1944 214.799 32.0264C214.804 32.3452 214.737 32.6611 214.602 32.9501C214.467 33.239 214.268 33.4934 214.02 33.694C213.783 33.8994 213.509 34.0584 213.213 34.163C212.913 34.2781 212.587 34.3089 212.271 34.252V34.252Z" fill="black"/>
<path d="M230.43 39.4935C230.43 39.4935 235.13 42.6484 239.783 34.2518C244.435 25.8552 233.107 25.3494 233.107 25.3494C233.107 25.3494 237.76 2.9922 220.041 0.26078C202.322 -2.47064 192.041 17.1551 192.041 17.1551C192.041 17.1551 204.176 27.5424 207.517 27.4738C207.517 27.4738 207.71 20.9753 212.487 23.6254C212.487 23.6254 215.824 25.6877 214.799 32.0262C214.799 32.0262 224.523 36.664 225.42 36.4774C226.316 36.2908 230.43 39.4935 230.43 39.4935Z" fill="black"/>
<path d="M195.781 44.587C196.485 44.4697 197.182 44.3111 197.868 44.1122C198.18 44.0129 198.48 43.8788 198.763 43.7125C199.074 43.5206 199.374 43.31 199.661 43.0818C199.624 43.4958 199.451 43.8861 199.17 44.1925C198.888 44.5096 198.526 44.746 198.123 44.8776C197.73 45.003 197.315 45.0436 196.905 44.9968C196.501 44.9598 196.114 44.8186 195.781 44.587Z" fill="black"/>
<path d="M193.558 28.7889C193.873 28.3132 194.287 27.9104 194.77 27.6075C195.253 27.294 195.784 27.0634 196.343 26.9249C196.905 26.782 197.49 26.7489 198.064 26.8274C198.634 26.8945 199.18 27.0926 199.661 27.4063C199.087 27.426 198.566 27.3972 198.047 27.4571C197.536 27.496 197.03 27.5802 196.535 27.7086C195.512 27.9766 194.515 28.3382 193.558 28.7889Z" fill="black"/>
<path d="M196.222 37.4553C196.482 37.5494 196.699 37.7351 196.833 37.9776C196.981 38.2304 197.041 38.5253 197.003 38.8159C196.963 39.1201 196.804 39.3962 196.562 39.5841C196.453 39.6723 196.329 39.7381 196.195 39.7779C196.061 39.8177 195.92 39.8306 195.781 39.8159C195.896 39.5486 196.012 39.3622 196.078 39.1808C196.144 39.0286 196.187 38.8673 196.205 38.7023C196.24 38.2876 196.246 37.8709 196.222 37.4553Z" fill="black"/>
<path d="M213.535 48.9204C214.485 47.326 215.314 45.6621 216.015 43.943C216.365 43.0924 216.671 42.2247 216.934 41.3431C217.217 40.4613 217.413 39.5578 217.665 38.6355C217.755 39.5869 217.716 40.5463 217.547 41.487C217.389 42.4329 217.125 43.3582 216.762 44.2458C216.405 45.1348 215.955 45.9833 215.418 46.7771C214.897 47.5789 214.263 48.3008 213.535 48.9204V48.9204Z" fill="black"/>
<path d="M196.964 33.1897C197.291 33.1784 197.602 33.0402 197.83 32.8043C198.058 32.5684 198.185 32.2532 198.185 31.9252C198.185 31.5972 198.058 31.282 197.83 31.0461C197.602 30.8102 197.291 30.672 196.964 30.6606C196.636 30.672 196.325 30.8102 196.097 31.0461C195.87 31.282 195.742 31.5972 195.742 31.9252C195.742 32.2532 195.87 32.5684 196.097 32.8043C196.325 33.0402 196.636 33.1784 196.964 33.1897V33.1897Z" fill="black"/>
<path d="M212.27 32.0884C212.489 32.0808 212.696 31.9887 212.848 31.8314C213 31.6742 213.085 31.464 213.085 31.2454C213.085 31.0267 213 30.8166 212.848 30.6593C212.696 30.502 212.489 30.4099 212.27 30.4023C212.052 30.4099 211.845 30.502 211.693 30.6593C211.541 30.8166 211.456 31.0267 211.456 31.2454C211.456 31.464 211.541 31.6742 211.693 31.8314C211.845 31.9887 212.052 32.0808 212.27 32.0884V32.0884Z" fill="black"/>
<path d="M103.374 122.007C103.35 122.007 103.334 122.015 103.31 122.015C103.304 122.017 103.298 122.017 103.292 122.016C103.286 122.015 103.28 122.014 103.275 122.011C103.27 122.008 103.265 122.004 103.261 121.999C103.258 121.994 103.255 121.989 103.253 121.983L103.302 121.958L103.374 122.007Z" fill="white"/>
<path d="M173.932 98.1404C172.911 96.7521 171.951 95.3194 171.05 93.8423C170.151 92.3684 169.281 90.8715 168.5 89.3279C167.715 87.7864 166.982 86.2189 166.299 84.6251C165.609 83.0365 165.013 81.4049 164.451 79.7439C164.414 79.6372 164.414 79.5216 164.449 79.4145L164.462 79.3753C165.093 77.2337 165.295 74.9883 165.054 72.7685C164.959 71.6424 164.801 70.5225 164.581 69.4141C164.366 68.3099 164.087 67.2191 163.746 66.1474C163.706 66.0243 163.699 65.8932 163.724 65.7664C164.013 64.4447 164.181 63.0993 164.226 61.747C164.242 61.0921 164.196 60.4371 164.088 59.791C164.043 59.4976 163.97 59.2094 163.869 58.9303C163.766 58.6816 163.622 58.452 163.443 58.2512C163.274 58.0578 163.066 57.9016 162.833 57.7928C162.6 57.684 162.348 57.6248 162.091 57.6191C161.84 57.6242 161.595 57.6907 161.376 57.8127C161.158 57.9347 160.972 58.1084 160.836 58.3187C160.127 59.4381 159.616 60.6708 159.325 61.9632L158.756 63.9875C158.651 64.3362 158.572 64.6456 158.428 65.0323C158.285 65.4105 158.078 65.7617 157.817 66.0712C157.275 66.6823 156.525 67.0703 155.713 67.1602C154.962 67.2416 154.202 67.1737 153.478 66.9605C152.087 66.548 150.788 65.872 149.652 64.9693C149.082 64.5236 148.57 64.009 148.127 63.4371C147.698 62.8895 147.248 62.3563 146.792 61.828C144.972 59.7104 143.036 57.6885 141.062 55.7076L139.579 54.2341C139.091 53.7719 138.536 53.3847 137.934 53.0852C137.337 52.7859 136.692 52.5944 136.028 52.5192C135.429 52.3905 134.803 52.498 134.281 52.8192C134.092 53.0363 133.962 53.2977 133.902 53.5788C133.842 53.8599 133.854 54.1517 133.937 54.4269C134.001 54.7466 134.082 55.0627 134.18 55.3737C134.298 55.6844 134.435 55.992 134.563 56.3002C135.184 57.5215 135.927 58.6764 136.782 59.7469C138.5 61.9176 140.372 63.9611 142.385 65.8613C142.484 65.9563 142.55 66.0801 142.575 66.2152C142.599 66.3502 142.58 66.4895 142.52 66.613L142.515 66.6236C142.057 67.7133 141.883 68.9013 142.01 70.0765C142.055 70.6773 142.159 71.2723 142.318 71.8533C142.467 72.4381 142.702 72.9883 142.919 73.6593C143.364 74.9709 143.588 76.3471 143.583 77.732C143.545 78.9328 143.732 80.1301 144.134 81.2622C144.526 82.3987 145.114 83.458 145.871 84.3925C146.252 84.8527 146.673 85.2786 147.128 85.6653C147.598 86.0607 148.096 86.4212 148.618 86.744L155.088 91.0217C155.249 91.1283 155.37 91.2863 155.431 91.4702L155.438 91.4912C156.647 95.1472 158.108 98.843 159.519 102.503L163.799 113.509L168.089 124.519C169.522 128.186 170.924 131.872 172.321 135.552L172.323 135.556C172.33 135.576 172.33 135.597 172.322 135.617C172.313 135.636 172.298 135.651 172.279 135.659C172.26 135.667 172.238 135.668 172.218 135.66C172.199 135.653 172.183 135.638 172.174 135.619C170.519 132.037 168.898 128.444 167.312 124.841C165.735 121.23 164.128 117.632 162.604 113.998L158.033 103.094C156.562 99.4241 155.058 95.8152 153.786 91.9937L154.136 92.4629L147.666 88.1528C147.093 87.7848 146.548 87.3762 146.034 86.9302C144.451 85.5526 143.273 83.7684 142.63 81.7703C142.184 80.449 141.989 79.0562 142.054 77.6632C142.068 76.4538 141.885 75.2502 141.512 74.0996C141.344 73.5356 141.075 72.8877 140.923 72.2112C140.757 71.5385 140.656 70.8515 140.621 70.1595C140.51 68.7437 140.766 67.3232 141.364 66.0353L141.494 66.7974C139.478 64.8032 137.63 62.646 135.968 60.3479C135.12 59.1926 134.389 57.9556 133.787 56.6552C133.656 56.3131 133.52 55.9749 133.402 55.6275C133.301 55.2676 133.22 54.9022 133.161 54.533C133.103 54.1444 133.111 53.7488 133.185 53.3629C133.262 52.9315 133.492 52.5421 133.832 52.2656C134.168 52.0537 134.542 51.9107 134.934 51.845C135.326 51.7793 135.726 51.7921 136.113 51.8829C136.84 51.9951 137.544 52.2223 138.199 52.5559C138.849 52.8889 139.445 53.3163 139.97 53.8242L141.448 55.3292C143.392 57.3497 145.318 59.3874 147.183 61.4876L148.555 63.0902C148.984 63.6163 149.477 64.0868 150.022 64.4909C151.105 65.3105 152.343 65.9018 153.662 66.2291C154.937 66.5431 156.379 66.4195 157.101 65.4783C157.452 64.9502 157.681 64.3512 157.774 63.7241L158.26 61.6823C158.53 60.2258 159.058 58.8291 159.818 57.5578C160.066 57.1995 160.383 56.8941 160.75 56.6591C161.151 56.4119 161.611 56.2793 162.082 56.2755C162.527 56.2732 162.968 56.3632 163.377 56.5399C163.786 56.7165 164.154 56.9759 164.458 57.3017C164.754 57.6165 164.995 57.9797 165.169 58.3756C165.322 58.7495 165.432 59.1395 165.497 59.5382C165.624 60.2734 165.681 61.0191 165.666 61.7651C165.634 63.2142 165.454 64.6563 165.129 66.0689L165.108 65.6881C165.459 66.8241 165.743 67.98 165.957 69.1496C166.177 70.3128 166.33 71.4878 166.414 72.6686C166.618 75.0688 166.342 77.4856 165.602 79.778L165.613 79.4098C166.098 81.0267 166.615 82.6526 167.237 84.2466C167.845 85.8435 168.509 87.4192 169.229 88.9738C169.951 90.5252 170.689 92.0727 171.502 93.5834C172.312 95.095 173.172 96.5809 174.067 98.0508C174.078 98.0686 174.081 98.0899 174.077 98.1103C174.072 98.1307 174.06 98.1486 174.043 98.1602C174.025 98.1718 174.004 98.1762 173.983 98.1725C173.963 98.1688 173.945 98.1573 173.932 98.1404H173.932Z" fill="black"/>
<path d="M154.612 66.975C154.563 66.9025 154.507 66.8216 154.458 66.749C154.478 66.7591 154.501 66.762 154.523 66.7571C154.547 66.8297 154.579 66.9025 154.612 66.975Z" fill="white"/>
<path d="M101.916 185.281C102.441 186.247 102.774 187.306 102.896 188.398C103.053 189.526 102.971 190.674 102.653 191.768C102.487 192.367 102.194 192.923 101.794 193.4C101.395 193.876 100.897 194.26 100.335 194.527C99.7959 194.746 99.2161 194.848 98.6344 194.825C98.0528 194.802 97.4827 194.655 96.9624 194.394C97.9456 194.284 98.891 193.952 99.7276 193.423C100.404 192.873 100.89 192.123 101.115 191.28C101.381 190.346 101.557 189.387 101.641 188.419L101.916 185.281Z" fill="black"/>
<path d="M118.204 193.18C118.495 193.92 118.711 194.688 118.849 195.472C118.991 196.228 119.086 196.978 119.155 197.724C119.226 198.469 119.264 199.21 119.306 199.943C119.329 200.309 119.339 200.676 119.388 201.033C119.399 201.406 119.512 201.769 119.714 202.082C119.496 202.038 119.29 201.95 119.108 201.822C118.926 201.694 118.773 201.53 118.657 201.34C118.415 200.993 118.217 200.618 118.068 200.222C117.789 199.466 117.614 198.675 117.548 197.871C117.477 197.085 117.49 196.293 117.585 195.51C117.673 194.706 117.881 193.921 118.204 193.18Z" fill="black"/>
<path d="M84.9448 191.635L80.2358 205.697C70.5369 202.128 68.5083 192.371 68.5083 192.371C68.5083 192.371 70.6043 187.745 84.9448 191.635Z" fill="black"/>
<path d="M120.7 220.022L111.395 223.125L103.168 220.022L106.135 215.436C106.135 215.436 102.629 209.979 92.3735 207.759L95.9137 198.126C98.4648 199.896 107.208 205.859 109.507 205.859C109.507 205.859 114.901 199.25 120.7 202.757C120.7 202.757 123.937 215.436 120.7 220.022Z" fill="black"/>
<path d="M100.847 184.711C99.7916 188.224 98.682 191.718 97.5463 195.202C96.4147 198.688 95.2579 202.164 94.076 205.631C92.8869 209.096 91.7132 212.566 90.4831 216.016C89.2695 219.471 88.053 222.926 86.7932 226.364C86.7107 226.589 86.5613 226.784 86.3651 226.922C86.1689 227.06 85.9352 227.135 85.6953 227.137L85.6864 227.137L79.702 227.163C79.5351 227.163 79.3699 227.129 79.2171 227.062C79.0643 226.994 78.927 226.896 78.8142 226.773L74.2436 221.769L74.2395 221.764C74.0973 221.608 73.9994 221.417 73.956 221.211C73.9126 221.004 73.9252 220.79 73.9925 220.59C75.1959 217.027 76.422 213.472 77.6709 209.924C78.9027 206.371 80.173 202.831 81.4517 199.293C82.7239 195.754 84.0268 192.224 85.3603 188.705C86.6913 185.185 88.042 181.672 89.457 178.18C88.4806 181.819 87.4399 185.436 86.3795 189.047C85.3123 192.655 84.2379 196.261 83.121 199.853C82.0118 203.447 80.8937 207.038 79.734 210.616C78.5982 214.201 77.4337 217.777 76.2407 221.344L75.9896 220.164L80.5895 225.141L79.702 224.752L85.6864 224.778L84.5798 225.55C85.8461 222.114 87.1557 218.694 88.4683 215.275C89.7643 211.85 91.1164 208.445 92.454 205.035C93.8038 201.63 95.1739 198.232 96.5644 194.841C97.9568 191.451 99.3752 188.071 100.847 184.711Z" fill="black"/>
<path d="M96.0493 182.065C94.9999 185.839 93.8012 189.558 92.55 193.257C91.3082 196.96 89.978 200.629 88.6307 204.293C87.255 207.945 85.8604 211.591 84.3777 215.204C82.9045 218.82 81.3775 222.417 79.7002 225.957C80.7477 222.182 81.9457 218.463 83.1973 214.764C84.4395 211.061 85.7696 207.392 87.1189 203.729C88.4963 200.077 89.891 196.432 91.3741 192.819C92.8477 189.203 94.3739 185.606 96.0493 182.065Z" fill="black"/>
<path d="M177.278 218.846C177.779 223.827 178.163 228.814 178.597 233.798C179.024 238.783 179.385 243.771 179.753 248.759C180.098 253.748 180.466 258.736 180.77 263.727C181.089 268.718 181.414 273.708 181.686 278.701L181.246 277.845L188.344 283.487L187.183 283.294L195.079 280.479L194.294 281.647C194.086 276.417 193.885 271.187 193.729 265.955C193.548 260.724 193.397 255.492 193.276 250.259C193.137 245.026 193.034 239.792 192.965 234.556C192.921 229.32 192.817 224.086 192.842 218.846C193.306 224.065 193.642 229.289 194.037 234.511C194.403 239.734 194.739 244.959 195.046 250.184C195.358 255.41 195.647 260.636 195.912 265.863C196.196 271.09 196.435 276.318 196.667 281.547C196.678 281.799 196.609 282.048 196.468 282.258C196.328 282.467 196.125 282.627 195.888 282.713L195.881 282.715L187.998 285.565C187.804 285.635 187.596 285.654 187.392 285.62C187.189 285.587 186.998 285.501 186.837 285.372L179.775 279.684L179.771 279.681C179.643 279.577 179.538 279.448 179.463 279.301C179.388 279.154 179.344 278.993 179.335 278.828C179.068 273.835 178.854 268.838 178.634 263.842C178.399 258.847 178.229 253.849 178.036 248.851C177.864 243.853 177.687 238.855 177.575 233.853C177.47 228.851 177.316 223.852 177.278 218.846Z" fill="black"/>
<path d="M186.379 219.335C186.791 224.754 187.102 230.175 187.309 235.597C187.539 241.019 187.674 246.443 187.791 251.867C187.878 257.292 187.945 262.717 187.917 268.144C187.913 273.571 187.804 278.999 187.59 284.43C187.176 279.011 186.865 273.59 186.658 268.168C186.428 262.746 186.293 257.322 186.178 251.897C186.093 246.473 186.026 241.047 186.054 235.62C186.059 230.194 186.168 224.766 186.379 219.335Z" fill="black"/>
<path d="M258.402 180.438C260.328 184.522 262.162 188.643 263.996 192.764C265.809 196.894 267.616 201.025 269.375 205.177C271.16 209.317 272.878 213.485 274.618 217.644L279.741 230.16C279.854 230.441 279.858 230.754 279.75 231.037C279.643 231.321 279.433 231.553 279.162 231.689L272.68 234.909L272.673 234.913C272.533 234.982 272.38 235.023 272.223 235.033C272.067 235.042 271.91 235.021 271.762 234.969L266.51 233.127L266.496 233.122C266.35 233.07 266.216 232.99 266.102 232.885C265.988 232.78 265.896 232.653 265.833 232.512C262.853 225.878 259.922 219.221 257.037 212.543C255.62 209.192 254.176 205.854 252.791 202.489C251.385 199.133 250.016 195.76 248.684 192.371C250.382 195.592 252.047 198.829 253.68 202.081C255.329 205.325 256.919 208.596 258.536 211.854C261.724 218.393 264.861 224.956 267.948 231.541L267.271 230.927L272.538 232.726L271.619 232.786L278.084 229.532L277.505 231.061L272.518 218.491C270.888 214.287 269.236 210.093 267.651 205.872C266.039 201.661 264.476 197.431 262.919 193.198C261.383 188.957 259.846 184.716 258.402 180.438Z" fill="black"/>
<path d="M252.461 188.894C254.408 192.506 256.208 196.182 257.958 199.881C259.717 203.575 261.389 207.307 263.044 211.047C264.672 214.799 266.281 218.559 267.805 222.356C269.337 226.15 270.817 229.967 272.15 233.848C270.201 230.236 268.4 226.561 266.651 222.862C264.893 219.167 263.22 215.435 261.567 211.695C259.941 207.942 258.331 204.182 256.809 200.384C255.276 196.59 253.796 192.774 252.461 188.894Z" fill="black"/>
<path d="M287.902 129.441C288.167 132.087 288.406 134.725 288.618 137.354C288.832 139.987 289.066 142.613 289.216 145.248C289.342 147.885 289.417 150.538 289.741 153.164C290.074 155.788 290.593 158.385 291.294 160.935C292.003 163.481 292.73 166.012 293.536 168.509C294.356 171.002 295.28 173.447 296.31 175.845C298.39 180.604 300.916 185.232 304.835 188.829C304.85 188.843 304.859 188.861 304.861 188.881C304.863 188.901 304.858 188.921 304.846 188.938C304.834 188.954 304.816 188.965 304.796 188.969C304.777 188.973 304.756 188.969 304.739 188.959C302.451 187.52 300.452 185.669 298.842 183.498C297.221 181.337 295.844 179.003 294.734 176.539C293.667 174.076 292.781 171.539 292.082 168.947C291.36 166.376 290.808 163.761 290.429 161.118C290.008 158.488 289.67 155.855 289.223 153.239C288.999 151.931 288.763 150.623 288.514 149.315C288.289 148.004 288.063 146.691 287.878 145.373C287.557 142.731 287.387 140.074 287.369 137.413C287.319 134.749 287.443 132.085 287.74 129.438C287.742 129.427 287.745 129.417 287.75 129.408C287.755 129.399 287.762 129.39 287.771 129.384C287.779 129.377 287.789 129.372 287.799 129.369C287.809 129.367 287.82 129.366 287.83 129.367C287.849 129.37 287.866 129.378 287.879 129.392C287.892 129.405 287.9 129.422 287.902 129.441V129.441Z" fill="black"/>
<path d="M276.765 129.436C277.127 132.003 277.314 134.592 277.325 137.184C277.369 139.773 277.259 142.362 276.996 144.938C276.693 147.511 276.215 150.061 275.826 152.614C275.434 155.166 275.147 157.731 274.789 160.298C274.136 165.473 272.801 170.539 270.818 175.363C269.776 177.776 268.469 180.066 266.923 182.19C265.39 184.322 263.502 186.174 261.34 187.664C261.332 187.67 261.322 187.674 261.311 187.676C261.301 187.678 261.29 187.678 261.28 187.676C261.269 187.674 261.259 187.67 261.25 187.664C261.242 187.658 261.234 187.65 261.228 187.641C261.218 187.626 261.213 187.607 261.215 187.588C261.217 187.57 261.225 187.552 261.238 187.539C264.869 183.857 267.29 179.36 269.233 174.69C270.191 172.344 271.078 169.96 271.844 167.525C272.573 165.08 273.266 162.615 273.921 160.13C274.563 157.639 275.026 155.105 275.306 152.548C275.577 149.989 275.585 147.406 275.656 144.84C275.748 142.275 275.922 139.718 276.075 137.153C276.225 134.59 276.402 132.019 276.603 129.443C276.605 129.422 276.614 129.402 276.63 129.387C276.647 129.373 276.668 129.366 276.689 129.367C276.708 129.368 276.725 129.376 276.739 129.388C276.753 129.401 276.762 129.418 276.765 129.436V129.436Z" fill="black"/>
<path d="M307.499 188.815C308.705 188.884 309.866 189.298 310.843 190.009C311.392 190.423 311.775 191.019 311.925 191.69C312.05 192.369 311.964 193.07 311.676 193.698C311.148 194.814 310.395 195.808 309.463 196.618C308.6 197.419 307.663 198.135 306.663 198.755C304.59 199.818 302.418 200.676 300.178 201.318C299.642 201.524 299.08 201.651 298.539 201.841C297.996 202.026 297.448 202.195 296.895 202.35C296.344 202.507 295.794 202.673 295.245 202.852C294.692 203.008 294.132 203.141 293.574 203.287C291.339 203.892 289.05 204.276 286.74 204.433C285.586 204.556 284.425 204.515 283.265 204.563C282.685 204.587 282.104 204.57 281.526 204.512L279.791 204.386C275.186 203.9 270.696 202.648 266.504 200.683C266.484 200.673 266.469 200.657 266.462 200.637C266.455 200.616 266.456 200.594 266.465 200.575C266.473 200.558 266.487 200.545 266.504 200.537C266.52 200.529 266.539 200.526 266.558 200.53C270.963 201.557 275.436 202.272 279.942 202.671C282.177 202.867 284.421 202.949 286.665 202.917C288.907 202.826 291.16 202.715 293.406 202.419C295.661 202.157 297.876 201.621 300.003 200.825C300.528 200.611 301.052 200.394 301.569 200.164L303.08 199.39C304.06 198.867 305.006 198.283 305.912 197.641C306.796 196.972 307.674 196.279 308.498 195.563C308.907 195.212 309.29 194.831 309.644 194.424C309.996 194.051 310.296 193.632 310.537 193.179C310.763 192.78 310.873 192.326 310.855 191.868C310.798 191.405 310.589 190.974 310.261 190.642C309.464 189.888 308.51 189.319 307.469 188.973L307.463 188.971C307.445 188.964 307.43 188.951 307.42 188.934C307.411 188.916 307.408 188.896 307.413 188.877C307.417 188.858 307.428 188.841 307.444 188.83C307.46 188.818 307.479 188.813 307.499 188.815V188.815Z" fill="black"/>
<path d="M103.329 122.04C100.919 122.958 98.5666 124.019 96.2833 125.217C93.9955 126.397 91.7976 127.744 89.7072 129.246C87.6137 130.72 85.7295 132.471 84.1059 134.451C82.4776 136.398 81.4536 138.779 81.1597 141.301C80.3335 146.386 79.7636 151.51 79.4522 156.653C79.2953 159.211 79.2881 161.776 79.4308 164.335C79.503 165.598 79.6621 166.855 79.9069 168.096C80.0352 168.698 80.2088 169.29 80.4264 169.865C80.6083 170.415 80.9049 170.92 81.2965 171.346C82.1535 172.258 83.0968 173.085 84.1131 173.816C85.124 174.586 86.1891 175.299 87.251 176.015C89.3924 177.425 91.5988 178.751 93.8281 180.039C98.2896 182.61 102.842 185.038 107.43 187.395C116.607 192.111 125.938 196.535 135.288 200.913C144.64 205.295 154.051 209.531 163.495 213.738C172.572 218.724 183.184 219.557 193.332 218.292C203.533 217.023 213.39 213.548 222.594 208.953C231.779 204.244 240.464 198.617 248.516 192.159L248.538 192.144C250.082 190.987 251.484 189.651 252.713 188.164C253.37 187.452 253.926 186.651 254.535 185.897C255.102 185.11 255.651 184.308 256.2 183.508C258.3 180.233 260.085 176.766 261.529 173.153C262.982 169.542 264.196 165.839 265.164 162.069C265.626 160.179 266.035 158.275 266.465 156.377L267.468 150.624L267.469 150.619C267.473 150.596 267.478 150.574 267.485 150.552C270.61 140.852 273.57 131.097 276.368 121.288C279.164 111.486 281.813 101.64 284.096 91.7169C284.634 89.23 285.252 86.7584 285.735 84.2622L286.498 80.5254C286.749 79.2793 286.945 78.0253 287.171 76.7757C287.651 74.2784 287.952 71.7645 288.296 69.255C288.797 65.5748 288.456 61.8288 287.299 58.2995C286.141 54.7702 284.198 51.5497 281.616 48.8809C280.752 48.0174 279.815 47.231 278.814 46.5305C277.812 45.8579 276.74 45.2969 275.616 44.8574C274.491 44.4447 273.319 44.1713 272.127 44.0434C270.928 43.9417 269.722 43.9823 268.532 44.1646C266.116 44.5555 263.788 45.3746 261.659 46.5833C260.586 47.1861 259.559 47.8685 258.588 48.6249C257.628 49.3669 256.677 50.2449 255.67 51.0576C251.688 54.3181 247.467 57.2743 243.041 59.9012C238.621 62.5417 234 64.8298 229.221 66.7444C224.422 68.6399 219.449 70.0594 214.373 70.9826C213.097 71.1723 211.833 71.449 210.547 71.5644L206.69 71.9133C205.403 72.0035 204.108 71.9652 202.818 71.9966L200.89 72.014C200.271 71.9998 199.652 72.0107 199.033 72.0357C194.05 72.2228 189.25 73.9623 185.303 77.0111C181.362 80.0961 178.367 84.226 176.658 88.9305C175.803 91.2853 175.193 93.7222 174.839 96.2025C174.505 98.699 174.359 101.217 174.402 103.736L174.402 103.759L174.402 103.776C173.9 113.525 173.352 123.271 172.759 133.013C172.444 137.884 172.104 142.753 171.74 147.621C171.553 150.054 171.355 152.487 171.129 154.918C171.018 156.134 170.893 157.348 170.756 158.562C170.651 159.787 170.443 161.002 170.134 162.193C170.128 162.214 170.114 162.231 170.094 162.242C170.075 162.252 170.052 162.255 170.031 162.248C170.01 162.242 169.992 162.228 169.982 162.208C169.971 162.189 169.969 162.166 169.975 162.145L169.982 162.12C170.258 160.942 170.437 159.744 170.518 158.536C170.633 157.323 170.733 156.109 170.82 154.892C170.998 152.46 171.149 150.026 171.289 147.591C171.566 142.72 171.811 137.848 172.024 132.973C172.484 123.226 172.898 113.478 173.267 103.726L173.267 103.767C173.188 101.184 173.303 98.5994 173.613 96.0343C173.948 93.4577 174.557 90.9241 175.429 88.4766C177.188 83.519 180.302 79.1546 184.418 75.8799C188.583 72.6097 193.663 70.7206 198.952 70.4761C199.607 70.4441 200.263 70.4274 200.918 70.437L202.815 70.4036C204.072 70.3618 205.333 70.3908 206.587 70.2923L210.346 69.921C211.599 69.7995 212.831 69.5159 214.075 69.3229C219.038 68.4109 223.9 67.0136 228.591 65.1512C233.28 63.2625 237.814 61.0075 242.149 58.4071C246.494 55.8179 250.638 52.9054 254.546 49.6942C255.523 48.9047 256.444 48.0461 257.5 47.2242C258.54 46.4115 259.639 45.678 260.789 45.0298C261.366 44.7061 261.956 44.4062 262.56 44.1299C263.165 43.8597 263.786 43.6325 264.399 43.383C265.026 43.1663 265.665 42.9759 266.303 42.7887C266.959 42.6592 267.601 42.4686 268.27 42.3993C269.605 42.2014 270.958 42.163 272.301 42.2849C273.646 42.4338 274.968 42.7484 276.237 43.2216C277.487 43.7155 278.68 44.3459 279.793 45.1014C280.88 45.8681 281.897 46.7288 282.833 47.6737C286.552 51.4727 288.989 56.341 289.8 61.5955C290.218 64.1922 290.249 66.8363 289.894 69.4422C289.534 71.9842 289.216 74.5351 288.721 77.0469C288.488 78.3056 288.284 79.5715 288.026 80.8242L287.241 84.5797C286.743 87.0898 286.116 89.5669 285.545 92.0582C283.154 101.996 280.403 111.832 277.505 121.619C274.598 131.405 271.535 141.142 268.318 150.83L268.335 150.759L267.264 156.541C266.811 158.449 266.379 160.362 265.894 162.261C264.878 166.051 263.614 169.77 262.111 173.394C260.639 177.036 258.823 180.53 256.689 183.828C256.131 184.637 255.572 185.445 254.995 186.241C254.374 187.004 253.809 187.81 253.138 188.533C251.87 190.055 250.423 191.42 248.83 192.597L248.851 192.582L245.767 194.937L244.225 196.114L242.647 197.243L239.494 199.505L236.272 201.669C231.954 204.526 227.481 207.144 222.875 209.509C213.633 214.139 203.784 217.822 193.456 219.235C190.879 219.603 188.282 219.814 185.679 219.865C183.07 219.932 180.46 219.811 177.869 219.503C175.265 219.204 172.693 218.674 170.183 217.92C168.919 217.533 167.685 217.057 166.489 216.495L162.944 214.967C153.472 210.854 144.043 206.622 134.655 202.272C125.28 197.913 115.993 193.364 106.794 188.625C102.204 186.238 97.6486 183.779 93.1712 181.168C90.9334 179.861 88.7162 178.514 86.5501 177.072C85.4715 176.342 84.3982 175.603 83.3642 174.795C82.2915 174.002 81.2988 173.107 80.4003 172.122C79.9265 171.585 79.566 170.958 79.3407 170.278C79.1088 169.643 78.9257 168.991 78.7929 168.327C78.5526 167.031 78.4021 165.719 78.3426 164.401C78.2287 161.799 78.2674 159.192 78.4585 156.594C78.8347 151.424 79.4708 146.276 80.3644 141.17L80.5306 140.213L80.758 139.234C80.9451 138.594 81.1809 137.97 81.4632 137.366C82.038 136.175 82.7557 135.06 83.6006 134.044C85.2979 132.056 87.2568 130.308 89.4238 128.848C91.5615 127.377 93.8042 126.066 96.134 124.924C98.4512 123.769 100.835 122.753 103.273 121.881C103.284 121.877 103.295 121.876 103.306 121.876C103.317 121.877 103.328 121.88 103.338 121.884C103.348 121.889 103.357 121.896 103.364 121.904C103.371 121.912 103.377 121.922 103.381 121.932C103.388 121.954 103.386 121.977 103.377 121.997C103.367 122.017 103.35 122.032 103.329 122.04Z" fill="black"/>
<path d="M103.341 122.075C100.941 123.011 98.5989 124.089 96.3272 125.304C94.0483 126.489 91.8595 127.84 89.7787 129.347C87.7004 130.82 85.8313 132.569 84.2225 134.545C83.4459 135.526 82.7917 136.597 82.2742 137.736C82.0271 138.301 81.8232 138.883 81.6642 139.478L81.4784 140.376L81.3332 141.329C80.5217 146.411 79.9662 151.529 79.669 156.666C79.5195 159.216 79.5192 161.771 79.6682 164.321C79.7431 165.572 79.904 166.817 80.1499 168.046C80.2771 168.635 80.4487 169.213 80.6632 169.776C80.8356 170.297 81.1183 170.775 81.492 171.177C82.3401 172.073 83.2726 172.885 84.2765 173.602C85.2822 174.364 86.3457 175.072 87.404 175.784C89.5399 177.188 91.7439 178.509 93.9715 179.792C98.4294 182.355 102.981 184.776 107.569 187.127C116.744 191.834 126.081 196.235 135.426 200.616C144.772 205.008 154.178 209.243 163.616 213.47C172.647 218.463 183.169 219.314 193.305 218.086C203.479 216.848 213.337 213.419 222.533 208.832C231.719 204.143 240.401 198.525 248.443 192.067L248.474 192.045C250.008 190.893 251.399 189.563 252.62 188.084C253.275 187.373 253.828 186.575 254.435 185.823C254.999 185.037 255.546 184.237 256.093 183.438C258.186 180.168 259.964 176.707 261.402 173.101C262.844 169.493 264.048 165.794 265.005 162.028C265.461 160.139 265.866 158.237 266.29 156.342L267.278 150.595C267.285 150.56 267.293 150.526 267.303 150.492C270.402 140.787 273.327 131.024 276.079 121.204C278.859 111.402 281.504 101.559 283.776 91.6417C284.312 89.157 284.927 86.6863 285.406 84.1933L286.165 80.4604C286.414 79.2158 286.608 77.9644 286.833 76.7168C287.309 74.2227 287.606 71.7167 287.947 69.2145C288.438 65.5879 288.099 61.8972 286.957 58.4206C285.814 54.944 283.897 51.7722 281.35 49.1445C280.502 48.2988 279.582 47.5286 278.601 46.8425C277.623 46.188 276.577 45.6421 275.481 45.2146C274.387 44.815 273.248 44.5507 272.09 44.4274C270.922 44.33 269.747 44.3712 268.589 44.5501C266.22 44.9354 263.938 45.7387 261.849 46.9226C260.792 47.5154 259.782 48.1867 258.825 48.9308C258.337 49.3065 257.894 49.6855 257.403 50.1057C256.906 50.5216 256.421 50.954 255.915 51.3553C251.917 54.6266 247.679 57.5924 243.236 60.2274C238.797 62.8766 234.157 65.172 229.358 67.0923C224.536 68.995 219.539 70.4193 214.438 71.3449C213.155 71.5338 211.884 71.8091 210.591 71.9232L206.712 72.2672C205.418 72.3555 204.116 72.3151 202.819 72.3443L200.884 72.3583C200.273 72.3431 199.661 72.3527 199.05 72.3762C194.134 72.5507 189.395 74.2576 185.496 77.2581C181.594 80.3016 178.624 84.3804 176.927 89.0297C176.075 91.3642 175.465 93.7801 175.107 96.2393C174.767 98.7208 174.614 101.224 174.65 103.729V103.769L174.649 103.787C174.118 113.536 173.558 123.281 172.919 133.023C172.583 137.892 172.223 142.761 171.839 147.628C171.642 150.061 171.433 152.493 171.197 154.924C171.08 156.139 170.951 157.354 170.808 158.568C170.698 159.797 170.484 161.015 170.168 162.209C170.158 162.238 170.137 162.263 170.11 162.278C170.082 162.293 170.05 162.296 170.02 162.287C169.99 162.278 169.964 162.258 169.949 162.23C169.934 162.203 169.93 162.171 169.939 162.14L169.949 162.104C170.217 160.929 170.39 159.734 170.466 158.531C170.576 157.318 170.671 156.103 170.753 154.887C170.92 152.455 171.061 150.02 171.191 147.584C171.447 142.713 171.671 137.84 171.864 132.964C172.292 123.217 172.677 113.467 173.02 103.716L173.019 103.774C172.932 101.177 173.041 98.5779 173.345 95.9979C173.676 93.4002 174.285 90.8455 175.161 88.3778C176.93 83.3649 180.071 78.9493 184.225 75.6332C188.437 72.3147 193.579 70.393 198.935 70.1362C199.598 70.1025 200.261 70.0844 200.924 70.0931L202.814 70.0562C204.064 70.0122 205.318 70.0392 206.565 69.9388L210.302 69.5627C211.548 69.4399 212.773 69.1548 214.01 68.961C218.949 68.0514 223.787 66.659 228.453 64.8038C233.123 62.9208 237.638 60.673 241.955 58.0814C246.282 55.5004 250.409 52.5974 254.301 49.3971C254.793 49.005 255.259 48.5867 255.739 48.1826C256.215 47.7728 256.74 47.3215 257.262 46.9188C258.317 46.0938 259.433 45.3492 260.6 44.6911C261.185 44.3621 261.785 44.057 262.398 43.7759C263.013 43.5009 263.644 43.2696 264.267 43.0164C264.904 42.7955 265.555 42.6012 266.205 42.4107C266.874 42.2772 267.528 42.0856 268.213 42.0145C269.579 41.8132 270.964 41.7752 272.339 41.9014C273.718 42.055 275.072 42.3786 276.372 42.865C277.651 43.3708 278.869 44.0163 280.006 44.7899C281.112 45.571 282.147 46.448 283.099 47.4107C286.868 51.2674 289.335 56.2077 290.155 61.5383C290.574 64.1678 290.604 66.8449 290.243 69.4832C289.88 72.0324 289.557 74.5913 289.06 77.1063C288.824 78.367 288.619 79.6355 288.359 80.8896L287.569 84.6491C287.068 87.1624 286.438 89.6404 285.865 92.1338C281.025 112.013 274.975 131.522 268.5 150.89L268.525 150.788L267.439 156.577C266.981 158.487 266.543 160.402 266.053 162.303C265.027 166.097 263.752 169.82 262.238 173.447C260.76 177.095 258.937 180.595 256.796 183.899C256.235 184.709 255.674 185.519 255.095 186.316C254.472 187.081 253.904 187.889 253.231 188.613C251.954 190.143 250.497 191.514 248.893 192.697L248.924 192.675L245.836 195.028L244.292 196.205L242.712 197.334L239.558 199.599L236.337 201.768C232.017 204.633 227.544 207.258 222.936 209.63C213.686 214.268 203.838 217.997 193.483 219.441C190.899 219.818 188.293 220.036 185.682 220.095C183.062 220.169 180.441 220.055 177.837 219.753C175.217 219.458 172.628 218.932 170.1 218.18C168.824 217.793 167.576 217.316 166.367 216.751L162.823 215.235C153.346 211.143 143.906 206.897 134.517 202.569C125.136 198.214 115.849 193.655 106.655 188.893C102.065 186.5 97.5086 184.034 93.0277 181.415C90.7881 180.104 88.5685 178.752 86.3971 177.303C85.3148 176.57 84.2398 175.826 83.2007 175.008C82.1158 174.203 81.1123 173.292 80.2046 172.291C79.7128 171.73 79.3385 171.076 79.1037 170.368C78.8687 169.72 78.6835 169.055 78.5498 168.378C78.3104 167.069 78.1618 165.745 78.1051 164.416C77.9974 161.804 78.043 159.188 78.2416 156.581C78.6319 151.405 79.2825 146.253 80.1908 141.142L80.3602 140.184L80.5943 139.191C80.7859 138.542 81.0268 137.91 81.315 137.298C81.899 136.098 82.6274 134.974 83.4839 133.95C85.1957 131.958 87.1699 130.208 89.3523 128.747C93.6671 125.849 98.3433 123.529 103.261 121.846C103.291 121.836 103.324 121.838 103.352 121.851C103.381 121.865 103.403 121.889 103.414 121.919C103.425 121.948 103.424 121.981 103.411 122.01C103.398 122.039 103.375 122.062 103.345 122.073L103.341 122.075Z" fill="black" fill-opacity="0.2"/>
<path d="M274.72 128.969L283.767 96.2767C283.941 96.271 284.115 96.271 284.289 96.271C304.991 96.271 321.781 103.712 321.781 112.896C321.781 122.073 304.991 129.515 284.289 129.515C281.092 129.517 277.896 129.335 274.72 128.969V128.969Z" fill="black"/>
<path d="M184.923 53.9612C184.327 52.9295 183.407 52.123 182.306 51.6665C181.206 51.2101 179.985 51.129 178.834 51.4359C180.256 49.3159 179.315 45.6309 175.977 45.6309C171.303 45.6309 171.295 52.8963 175.977 52.8963C176.112 52.89 176.246 52.8766 176.38 52.8563C175.541 53.7005 175.004 54.7971 174.85 55.977C174.697 57.1569 174.935 58.3546 175.53 59.3853L179.524 66.3041L188.917 60.88L184.923 53.9612Z" fill="black"/>
</svg>
