<svg width="361" height="302" viewBox="0 0 361 302" fill="none" xmlns="http://www.w3.org/2000/svg">
<path d="M216.207 75.2706C216.207 75.2706 213.148 73.4358 210.293 76.6976C210.293 76.6976 205.194 69.4558 183.575 75.727C183.575 75.727 186.43 81.1827 188.47 81.1827C190.509 81.1827 184.595 90.5605 179.088 90.1527C179.088 90.1527 169.706 103.812 176.844 117.063C183.88 130.123 188.934 134.272 195.913 125.8C196.127 125.538 196.366 125.296 196.626 125.079C198.633 123.424 207.518 116.546 210.667 121.675C211.338 122.814 211.53 124.173 211.201 125.453C209.764 131.471 203.042 153.633 183.575 144.788C183.575 144.788 160.888 136.284 166.239 116.139C166.811 114.09 167.641 112.121 168.709 110.281C169.738 108.401 170.372 106.331 170.573 104.197C170.773 102.063 170.536 99.9113 169.875 97.8726C169.054 94.9662 167.204 92.4573 164.67 90.8142C162.212 89.282 158.973 88.597 156.519 92.8815C155.503 94.6638 154.968 96.6792 154.965 98.7305C154.96 100.608 155.309 102.911 156.857 104.016L154.965 107.685C153.936 105.592 152.62 103.652 151.055 101.923C148.434 99.2696 146.751 95.8346 146.26 92.1387C145.567 86.2757 146.401 77.5216 153.39 67.3199C153.39 67.3199 162.772 48.5644 180.312 48.9721C197.852 49.3798 212.944 54.0687 216.207 75.2706Z" fill="black"/>
<path d="M186.838 99.7342C189.885 99.0377 193.015 98.7799 196.135 98.9686C197.706 99.0466 199.266 99.283 200.79 99.6742C202.345 100.008 203.79 100.73 204.99 101.773C203.604 101.13 202.124 100.713 200.607 100.539C199.107 100.324 197.594 100.167 196.068 100.099C193.019 99.9094 189.953 99.8948 186.838 99.7342Z" fill="black"/>
<path d="M216.207 99.4431C215.092 99.7821 214.059 100.351 213.177 101.112C212.758 101.457 212.417 101.887 212.176 102.372C211.935 102.858 211.799 103.389 211.777 103.931C211.859 105.042 212.151 106.128 212.636 107.131L213.97 110.409C214.965 112.626 215.543 115.008 215.676 117.435C215.674 118.074 215.556 118.708 215.329 119.305C215.085 119.91 214.686 120.441 214.172 120.842C213.128 121.5 211.895 121.792 210.667 121.675C211.819 121.577 212.915 121.138 213.816 120.416C214.186 120.021 214.465 119.551 214.634 119.037C214.802 118.523 214.856 117.978 214.791 117.442C214.703 116.307 214.473 115.187 214.105 114.109C213.762 113.006 213.353 111.912 212.916 110.822C212.497 109.725 212.043 108.633 211.635 107.509C211.44 106.942 211.242 106.376 211.089 105.778C210.898 105.159 210.834 104.508 210.899 103.864C210.967 103.224 211.176 102.607 211.51 102.056C211.845 101.505 212.297 101.036 212.834 100.68C213.844 100.005 215 99.5807 216.207 99.4431V99.4431Z" fill="black"/>
<path d="M216.208 75.2705C216.59 77.5556 216.874 79.8529 217.06 82.1626C217.272 84.4685 217.404 86.7814 217.454 89.101C217.49 91.4205 217.455 93.7442 217.274 96.0696C217.168 98.4399 216.638 100.772 215.71 102.956C215.697 102.983 215.679 103.008 215.659 103.03C214.943 103.801 214.271 104.611 213.646 105.457C213.336 105.88 213.06 106.328 212.821 106.795C212.555 107.25 212.449 107.781 212.519 108.303C212.355 107.778 212.385 107.211 212.602 106.706C212.79 106.196 213.018 105.701 213.285 105.228C213.817 104.284 214.433 103.389 215.125 102.554L215.074 102.628C215.469 101.585 215.732 100.497 215.857 99.3887C216.034 98.2707 216.105 97.129 216.19 95.9913C216.324 93.7075 216.348 91.41 216.361 89.1112C216.361 84.5102 216.26 79.9006 216.208 75.2705Z" fill="black"/>
<path d="M203.97 115.228C203.755 115.67 203.581 116.132 203.45 116.606C203.318 117.044 203.289 117.508 203.366 117.959C203.429 118.406 203.624 118.825 203.927 119.16C204.248 119.53 204.603 119.869 204.99 120.17C204.743 120.096 204.5 120.01 204.263 119.909C204.032 119.782 203.814 119.632 203.613 119.462C203.192 119.097 202.908 118.6 202.807 118.053C202.736 117.511 202.817 116.96 203.042 116.461C203.251 115.983 203.569 115.561 203.97 115.228V115.228Z" fill="black"/>
<path d="M156.857 104.015C157.563 104.901 158.126 105.891 158.526 106.951C158.741 107.491 158.896 108.054 158.989 108.628C159.039 108.929 159.059 109.234 159.048 109.539L159.043 109.774L159.056 109.901C159.051 109.984 159.069 110.067 159.109 110.14C159.284 110.513 159.593 110.806 159.974 110.962C160.427 111.193 160.904 111.374 161.397 111.501C162.445 111.783 163.522 111.939 164.607 111.966C163.536 112.386 162.375 112.525 161.234 112.369C160.639 112.309 160.057 112.16 159.506 111.927C159.181 111.801 158.885 111.612 158.635 111.372C158.384 111.131 158.183 110.844 158.044 110.525C157.971 110.346 157.935 110.153 157.939 109.96L157.935 109.673L157.943 109.495C157.956 109.248 157.95 109.001 157.927 108.755C157.882 108.233 157.8 107.714 157.682 107.203C157.451 106.156 157.147 105.103 156.857 104.015Z" fill="black"/>
<path d="M154.965 107.685C154.509 109.334 153.868 110.925 153.052 112.429C152.253 113.955 151.289 115.388 150.177 116.703C149.064 118.043 147.744 119.196 146.267 120.12C144.786 121.037 143.092 121.553 141.35 121.614C142.944 121.136 144.441 120.382 145.774 119.386C147.078 118.383 148.266 117.237 149.314 115.969C150.391 114.703 151.387 113.37 152.295 111.978C153.21 110.58 154.118 109.162 154.965 107.685Z" fill="black"/>
<path d="M169.91 155.389C171.199 154.824 172.417 154.111 173.541 153.265C174.656 152.433 175.714 151.526 176.708 150.552C177.732 149.606 178.65 148.549 179.604 147.514L180.993 145.912C181.445 145.365 181.896 144.814 182.394 144.286C182.11 144.947 181.779 145.586 181.45 146.229C181.077 146.842 180.711 147.465 180.301 148.059C179.473 149.25 178.533 150.358 177.493 151.368C176.447 152.385 175.281 153.271 174.019 154.004C172.769 154.763 171.365 155.236 169.91 155.389V155.389Z" fill="black"/>
<path d="M149.506 116.335C148.491 114.832 147.236 113.506 145.79 112.41C145.489 112.144 145.124 111.961 144.732 111.877C144.339 111.794 143.931 111.814 143.548 111.935C142.872 112.394 142.386 113.084 142.183 113.876C141.904 114.72 141.703 115.588 141.583 116.469C141.522 116.907 141.469 117.363 141.429 117.784C141.431 118.186 141.467 118.657 141.507 119.095C141.682 120.893 142.016 122.672 142.503 124.412C143.401 127.951 144.795 131.345 146.645 134.493C148.519 137.64 150.761 140.553 153.324 143.171C154.609 144.47 155.944 145.721 157.3 146.94C158.708 148.101 160.052 149.348 161.518 150.413C162.225 150.984 163.004 151.447 163.742 151.97C164.524 152.419 165.274 152.929 166.088 153.31C167.661 154.165 169.334 154.82 171.069 155.261C174.533 156.18 178.215 155.794 181.413 154.176C184.627 152.461 187.327 149.922 189.235 146.82C189.242 146.807 189.254 146.797 189.268 146.792C189.283 146.788 189.298 146.789 189.312 146.796C189.324 146.804 189.333 146.816 189.338 146.829C189.342 146.843 189.342 146.858 189.336 146.872C187.676 150.24 185.068 153.051 181.831 154.957C180.174 155.896 178.35 156.508 176.461 156.757C174.566 156.981 172.646 156.858 170.794 156.397C168.956 155.96 167.186 155.272 165.536 154.353C164.693 153.935 163.928 153.393 163.128 152.91C162.377 152.356 161.583 151.859 160.871 151.26C159.379 150.139 158.072 148.831 156.691 147.601C155.987 147.002 155.39 146.287 154.743 145.628C154.12 144.945 153.445 144.313 152.867 143.59C150.452 140.8 148.26 137.826 146.309 134.695C144.322 131.564 142.74 128.194 141.6 124.666C141.043 122.881 140.68 121.042 140.516 119.179C140.485 118.702 140.456 118.257 140.467 117.739C140.521 117.249 140.587 116.792 140.663 116.323C140.813 115.387 141.049 114.466 141.368 113.573C141.512 113.08 141.752 112.621 142.076 112.222C142.399 111.823 142.798 111.492 143.25 111.249C143.759 111.05 144.322 111.038 144.838 111.217C145.308 111.377 145.746 111.617 146.134 111.926C147.56 113.14 148.737 114.617 149.603 116.277C149.606 116.283 149.609 116.29 149.61 116.298C149.611 116.305 149.61 116.313 149.608 116.32C149.606 116.327 149.603 116.334 149.598 116.339C149.594 116.345 149.588 116.35 149.582 116.354C149.569 116.36 149.554 116.362 149.54 116.359C149.526 116.355 149.514 116.347 149.506 116.335V116.335Z" fill="black"/>
<path d="M97.0005 131.741C98.4858 132.162 99.8337 132.968 100.908 134.076C102.015 135.167 102.9 136.462 103.515 137.889C104.131 139.308 104.478 140.829 104.537 142.375C104.566 143.136 104.527 143.898 104.42 144.652C104.291 145.4 104.093 146.134 103.829 146.846C103.565 146.11 103.446 145.399 103.251 144.704C103.043 144.013 102.918 143.326 102.686 142.669C102.317 141.364 101.864 140.084 101.33 138.837C100.795 137.597 100.168 136.399 99.4569 135.251C98.7116 134.031 97.8912 132.859 97.0005 131.741V131.741Z" fill="black"/>
<path d="M102.198 160.282C102.657 165.569 102.881 170.854 103.022 176.138C103.178 181.423 103.194 186.707 103.184 191.991C103.129 197.274 103.045 202.557 102.821 207.839C102.613 213.122 102.32 218.404 101.79 223.684C101.328 218.397 101.102 213.112 100.962 207.827C100.807 202.543 100.79 197.259 100.803 191.975C100.861 186.692 100.945 181.409 101.169 176.126C101.379 170.844 101.671 165.562 102.198 160.282Z" fill="black"/>
<path d="M211.271 125.357C215.635 128.086 219.918 130.928 224.121 133.884C226.225 135.36 228.312 136.862 230.381 138.391L233.461 140.743C234.001 141.147 234.51 141.592 234.982 142.074L235.714 142.838L236.33 143.618C237.927 145.676 239.383 147.838 240.689 150.091C242.005 152.31 243.286 154.545 244.531 156.794C246.993 161.312 249.527 165.779 252.136 170.196C253.44 172.406 254.77 174.602 256.124 176.783L258.151 180.053C258.751 181.123 259.465 182.124 260.279 183.041C261.142 183.887 262.17 184.726 263.065 185.78C264.124 186.883 264.762 188.323 264.867 189.848C264.786 191.412 264.105 192.885 262.964 193.958C262.477 194.451 261.964 194.918 261.429 195.357C260.949 195.744 260.483 196.149 260.027 196.568C259.11 197.409 258.267 198.294 257.409 199.245C256.535 200.21 255.631 201.146 254.713 202.071C252.861 203.92 250.894 205.651 248.823 207.253C246.713 208.887 244.415 210.263 241.979 211.354C240.702 211.894 239.359 212.265 237.985 212.458C236.543 212.672 235.07 212.544 233.686 212.085C233.465 212.018 233.277 211.872 233.158 211.675L233.15 211.662C232.256 210.181 231.277 208.705 230.286 207.259C229.297 205.808 228.261 204.391 227.178 203.009C226.09 201.637 224.929 200.327 223.697 199.083C222.512 197.803 221.06 196.799 219.444 196.142L219.435 196.139C219.407 196.129 219.383 196.108 219.369 196.082C219.355 196.055 219.352 196.024 219.36 195.995C219.368 195.966 219.386 195.941 219.412 195.925C219.438 195.91 219.468 195.904 219.498 195.91C221.263 196.365 222.896 197.233 224.262 198.441C225.662 199.573 226.975 200.81 228.187 202.141C230.625 204.78 232.865 207.594 234.888 210.561L234.353 210.139C236.622 210.602 238.981 210.259 241.024 209.169C243.255 208.107 245.351 206.783 247.27 205.228C249.258 203.685 251.159 202.033 252.965 200.279C253.878 199.406 254.782 198.52 255.656 197.605C256.541 196.674 257.496 195.723 258.495 194.857C258.996 194.421 259.51 193.997 260.041 193.592C260.522 193.191 260.979 192.848 261.382 192.439C262.162 191.767 262.672 190.835 262.816 189.815C262.754 188.758 262.332 187.753 261.62 186.968C260.89 186.03 259.969 185.179 259.074 184.158C258.838 183.891 258.617 183.612 258.413 183.32L257.896 182.446L256.967 180.742L255.15 177.342C253.952 175.07 252.728 172.814 251.478 170.575C248.971 166.099 246.328 161.697 243.466 157.44C240.628 153.189 237.75 148.885 234.676 144.957L234.095 144.231L233.488 143.611C233.073 143.167 232.622 142.757 232.141 142.385L229.145 140.006L223.098 135.26C219.057 132.099 215.068 128.862 211.131 125.549C211.108 125.53 211.093 125.503 211.089 125.473C211.086 125.443 211.093 125.412 211.111 125.388C211.129 125.363 211.155 125.347 211.185 125.341C211.215 125.335 211.246 125.341 211.271 125.357V125.357Z" fill="black"/>
<path d="M227.221 163.816C225.135 171.65 223.166 179.504 221.521 187.389C220.674 191.297 220.083 195.256 219.752 199.241C219.639 201.157 219.627 203.272 219.459 205.323C219.295 207.414 218.945 209.486 218.413 211.515C217.161 215.525 215.155 219.26 212.502 222.519C211.277 224.153 209.978 225.733 208.762 227.32C208.177 228.109 207.583 228.891 207.058 229.735C206.495 230.548 205.986 231.404 205.479 232.263C203.484 235.748 201.7 239.351 200.137 243.05C198.488 246.735 197.066 250.522 195.676 254.331C197.445 246.367 200.192 238.652 203.853 231.36C204.799 229.517 205.881 227.748 207.093 226.067C208.294 224.406 209.525 222.822 210.684 221.183C213.124 218.117 214.968 214.621 216.119 210.876C216.63 208.991 216.973 207.064 217.142 205.118C217.332 203.133 217.326 201.196 217.508 199.073C217.934 194.992 218.671 190.95 219.714 186.981C221.714 179.106 224.221 171.368 227.221 163.816V163.816Z" fill="black"/>
<path d="M317.107 269.906C316.633 269.906 316.179 269.718 315.843 269.383C315.508 269.049 315.319 268.594 315.319 268.121C315.319 267.647 315.507 267.192 315.841 266.857C316.176 266.522 316.631 266.333 317.105 266.333L358.707 266.278H358.709C358.944 266.278 359.177 266.324 359.393 266.414C359.61 266.503 359.807 266.635 359.974 266.801C360.14 266.966 360.271 267.163 360.361 267.38C360.451 267.597 360.498 267.829 360.498 268.063C360.498 268.298 360.452 268.53 360.362 268.747C360.273 268.964 360.141 269.161 359.975 269.327C359.809 269.493 359.612 269.625 359.396 269.715C359.179 269.805 358.947 269.851 358.712 269.851L317.11 269.906H317.107Z" fill="black"/>
<path d="M52.4554 268.72L0 269.215L0.0337414 272.788L52.4891 272.293L52.4554 268.72Z" fill="black"/>
<path d="M197.851 107.345C198.292 107.33 198.71 107.144 199.016 106.827C199.322 106.51 199.493 106.087 199.493 105.646C199.493 105.205 199.322 104.782 199.016 104.465C198.71 104.148 198.292 103.962 197.851 103.947C197.411 103.962 196.993 104.148 196.687 104.465C196.381 104.782 196.209 105.205 196.209 105.646C196.209 106.087 196.381 106.51 196.687 106.827C196.993 107.144 197.411 107.33 197.851 107.345V107.345Z" fill="black"/>
<path d="M242.833 283.46C248.84 287.553 255.599 290.414 262.72 291.878C266.255 292.559 269.859 292.817 273.455 292.647C277.043 292.453 280.598 291.85 284.049 290.85C290.942 288.752 297.445 285.54 303.301 281.342C304.771 280.351 306.16 279.245 307.455 278.035C308.748 276.809 309.967 275.506 311.103 274.134C313.376 271.389 315.342 268.404 316.967 265.233L316.853 265.715L316.854 265.703L316.854 265.678C316.857 265.52 316.895 265.365 316.966 265.224C318.371 262.467 319.519 259.588 320.394 256.621C321.265 253.64 321.827 250.578 322.072 247.483L322.077 247.418L322.085 247.377C322.102 247.316 322.081 247.345 322.101 247.456L322.091 247.268C322.581 241.003 321.699 234.707 319.509 228.817C317.271 222.936 313.807 217.599 309.345 213.161C304.936 208.799 299.697 205.364 293.938 203.06C288.178 200.755 282.015 199.628 275.813 199.745C269.61 199.862 263.494 201.22 257.825 203.74C252.157 206.259 247.051 209.889 242.809 214.414C238.555 218.955 235.245 224.295 233.068 230.124C230.9 236.029 229.892 242.296 230.101 248.582C230.101 248.599 230.099 248.615 230.093 248.63C230.087 248.645 230.079 248.658 230.068 248.67C230.057 248.682 230.043 248.691 230.029 248.698C230.014 248.704 229.998 248.708 229.982 248.709C229.951 248.709 229.921 248.697 229.898 248.677C229.875 248.656 229.86 248.628 229.856 248.597C229.097 242.221 229.707 235.757 231.645 229.635C233.596 223.449 236.837 217.746 241.153 212.903C245.481 208.021 250.787 204.102 256.726 201.401C262.678 198.705 269.136 197.31 275.67 197.309C282.161 197.245 288.593 198.547 294.548 201.131C300.503 203.715 305.847 207.523 310.232 212.307C314.575 217.028 317.962 222.546 320.206 228.556C322.446 234.576 323.528 240.965 323.395 247.386L323.385 247.199C323.412 247.344 323.409 247.492 323.378 247.635L323.39 247.529C323.303 250.747 322.881 253.948 322.13 257.079C321.389 260.223 320.304 263.276 318.893 266.182L319.006 265.703L319.006 265.715C319.009 265.875 318.973 266.033 318.903 266.176L318.892 266.197C317.242 269.549 315.18 272.681 312.752 275.521C311.545 276.942 310.252 278.289 308.883 279.555C307.488 280.806 306.002 281.952 304.438 282.984C298.372 287.243 291.621 290.432 284.477 292.414C277.301 294.362 269.759 294.546 262.496 292.951C255.329 291.242 248.589 288.081 242.694 283.662C242.668 283.643 242.651 283.615 242.645 283.584C242.64 283.552 242.647 283.52 242.665 283.494C242.683 283.467 242.711 283.449 242.742 283.443C242.774 283.437 242.806 283.443 242.833 283.46L242.833 283.46Z" fill="black"/>
<path d="M253.343 204.776C253.016 205.652 252.741 206.54 252.464 207.424C252.193 208.309 251.927 209.194 251.689 210.086C251.424 210.967 251.209 211.865 250.999 212.764L250.309 215.435L250.344 215.212C250.341 215.313 250.321 215.413 250.286 215.508C250.242 215.623 250.176 215.729 250.091 215.819C250.006 215.908 249.903 215.98 249.789 216.029C249.676 216.079 249.554 216.105 249.43 216.106L250.298 215.446C249.796 218.032 249.177 220.578 248.648 223.147C248.165 225.727 247.678 228.308 247.27 230.907C246.845 233.503 246.424 236.101 246.068 238.72C245.663 241.333 245.28 243.958 244.824 246.589C244.586 243.931 244.507 241.26 244.588 238.593C244.634 235.923 244.817 233.257 245.137 230.606C245.469 227.956 245.871 225.31 246.454 222.698C246.72 221.387 247.076 220.093 247.442 218.805C247.81 217.518 248.149 216.223 248.547 214.948L249.416 214.287C249.295 214.289 249.176 214.314 249.066 214.362C248.955 214.411 248.855 214.48 248.771 214.568C248.689 214.655 248.624 214.758 248.582 214.871C248.547 214.963 248.528 215.06 248.526 215.158L248.561 214.934C249.219 213.171 249.827 211.403 250.608 209.691C251.367 207.972 252.282 206.327 253.343 204.776V204.776Z" fill="black"/>
<path d="M299.587 204.776C301.211 207.57 302.552 210.518 303.591 213.578C304.168 215.093 304.577 216.655 305.075 218.196C305.517 219.751 305.884 221.326 306.289 222.894C307.702 229.206 308.61 235.622 309.005 242.078C309.412 248.522 309.417 254.984 309.02 261.428C308.822 264.645 308.461 267.85 308.153 271.051C307.659 274.238 307.231 277.425 306.663 280.59C306.715 277.366 306.921 274.167 307.035 270.965L307.235 261.365C307.219 259.766 307.21 258.169 307.222 256.572L307.23 254.177L307.145 251.785L307.018 247.001L306.722 242.228C306.344 235.867 305.617 229.531 304.546 223.248L303.627 218.558C303.258 217.011 302.961 215.437 302.525 213.905C301.786 210.79 300.803 207.737 299.587 204.776V204.776Z" fill="black"/>
<path d="M275.42 267.692C276.156 266.952 276.782 266.11 277.278 265.191C277.266 266.263 277.243 267.323 277.219 268.395C277.064 276.136 276.766 283.877 276.325 291.617C275.884 283.877 275.586 276.136 275.432 268.395C275.432 268.157 275.42 267.93 275.42 267.692Z" fill="black"/>
<path d="M275.741 260.034C275.741 260.034 276.528 259.094 277.386 257.855C277.374 259.058 277.362 260.273 277.338 261.475C276.925 260.877 276.379 260.384 275.741 260.034V260.034Z" fill="black"/>
<path d="M277.469 244.017V246.303L277.433 251.912C276.68 251.974 275.936 252.122 275.217 252.353C275.205 250.329 275.193 248.316 275.181 246.303V244.017C275.229 228.904 275.444 213.803 276.325 198.691C277.195 213.803 277.421 228.904 277.469 244.017Z" fill="black"/>
<path d="M234.07 225.801C240.689 222.861 247.617 220.671 254.724 219.273C261.841 217.818 269.081 217.05 276.345 216.977C279.979 216.869 283.608 217.16 287.234 217.363C289.039 217.564 290.839 217.826 292.64 218.055C293.539 218.182 294.443 218.275 295.337 218.429L298.002 219.001C305.108 220.427 312.015 222.711 318.571 225.801C316.831 225.306 315.105 224.791 313.392 224.257L310.821 223.467C309.961 223.218 309.071 223.067 308.199 222.862L302.972 221.646C301.217 221.31 299.445 221.056 297.686 220.758L295.045 220.326C294.162 220.209 293.27 220.139 292.384 220.043C290.608 219.872 288.836 219.667 287.061 219.522C283.496 219.39 279.939 219.119 276.37 219.263C269.226 219.325 262.097 219.913 255.04 221.023L249.751 221.938C248 222.308 246.237 222.637 244.491 223.042C240.978 223.787 237.517 224.74 234.07 225.801Z" fill="black"/>
<path d="M275.265 271.55L286.223 270.137C289.848 269.626 293.465 269.083 297.059 268.432C300.658 267.814 304.242 267.085 307.821 266.318C309.592 265.872 311.381 265.469 313.178 265.074L314.534 264.795L315.867 264.449C316.758 264.221 317.661 264.01 318.573 263.81C317.753 264.234 316.922 264.646 316.081 265.046C315.248 265.458 314.393 265.824 313.52 266.144C311.785 266.796 310.04 267.441 308.279 268.043C304.732 269.155 301.117 270.037 297.456 270.684C290.139 272.033 282.665 272.325 275.265 271.55Z" fill="black"/>
<path d="M229.848 245.16C232.195 245.017 234.542 244.898 236.889 244.803C236.249 244.974 235.62 245.184 235.007 245.434C233.279 245.351 231.563 245.255 229.848 245.16Z" fill="black"/>
<path d="M322.803 245.16C315.058 245.601 307.314 245.898 299.57 246.053C292.195 246.22 284.832 246.279 277.469 246.303H275.181C274.252 246.303 273.335 246.291 272.405 246.291C272.501 245.303 272.012 244.648 270.63 244.577C269.413 244.543 268.224 244.94 267.27 245.696C267.056 245.863 266.818 246.041 266.543 246.244C259.312 246.196 252.084 246.057 244.86 245.827C244.83 245.57 244.75 245.322 244.623 245.097C244.496 244.872 244.325 244.675 244.121 244.517C254.474 244.16 264.828 244.053 275.181 244.017H277.469C284.832 244.041 292.195 244.1 299.57 244.267C307.314 244.41 315.058 244.708 322.803 245.16Z" fill="black"/>
<path d="M249.435 215.185C249.435 215.186 249.435 215.188 249.434 215.189C249.433 215.191 249.432 215.192 249.431 215.193C249.43 215.194 249.429 215.195 249.427 215.196C249.426 215.196 249.424 215.197 249.423 215.197C248.32 217.279 247.461 219.48 246.861 221.759C246.849 221.782 246.849 221.818 246.837 221.842C245.944 225.284 246.385 225.915 245.205 229.309C244.538 231.226 243.942 232.334 244.276 233.918C244.593 234.915 244.996 235.883 245.479 236.812C245.622 237.109 245.765 237.431 245.932 237.788C246.754 239.598 246.957 240.027 246.778 240.575C246.552 241.242 246.027 241.325 245.062 241.909C244.722 242.107 244.399 242.335 244.097 242.588C243.525 243.017 242.998 243.504 242.524 244.04C238.953 244.003 235.436 244.92 232.338 246.696C231.599 247.113 230.801 247.53 229.943 247.97H229.931C229.895 247.458 229.883 246.946 229.86 246.434C229.848 246.005 229.848 245.589 229.848 245.16C229.839 238.477 231.278 231.871 234.065 225.796L234.077 225.784H234.089C235.21 223.322 236.549 220.967 238.092 218.746C243.275 213.696 248.863 211.076 250.722 211.088C250.923 211.07 251.123 211.129 251.282 211.255C251.699 211.672 250.698 212.815 249.435 215.185Z" fill="black"/>
<path d="M322.803 245.16C322.803 245.553 322.803 245.946 322.779 246.339C322.779 246.672 322.755 246.994 322.743 247.327C322.743 247.387 322.731 247.446 322.731 247.506C322.729 247.852 322.709 248.198 322.672 248.542C322.252 254.493 320.678 260.305 318.037 265.655C318.004 265.676 317.968 265.692 317.93 265.703V265.715C317.618 265.863 317.284 265.96 316.941 266.001C316.54 266.042 316.136 265.997 315.754 265.87C315.371 265.742 315.021 265.535 314.725 265.263C314.713 265.251 314.701 265.227 314.677 265.215C313.712 264.155 314.487 262.678 314.177 260.463C313.915 258.629 312.95 257.331 311.031 254.747C310.196 253.56 309.264 252.445 308.243 251.412C307.541 250.733 306.885 250.317 306.421 250.507C305.837 250.769 305.658 252.008 305.873 252.913C306.194 254.27 307.29 254.389 307.529 255.485C307.85 256.926 306.385 258.593 305.134 259.356C304.435 259.825 303.627 260.106 302.788 260.171C301.948 260.236 301.107 260.082 300.344 259.725C298.629 258.724 298.676 256.593 297.759 256.593C297.032 256.605 296.389 257.938 296.281 258.986C296.197 259.642 296.31 260.308 296.604 260.899C296.899 261.491 297.363 261.981 297.938 262.309C299.117 262.809 299.88 261.773 301.262 262.309C301.675 262.445 302.046 262.687 302.336 263.011C302.627 263.335 302.828 263.729 302.918 264.155C302.977 265.286 301.428 266.168 299.415 267.287C297.115 268.561 296.401 268.502 293.696 269.871C293.434 270.002 293.196 270.121 292.969 270.241C291.912 270.727 290.92 271.343 290.015 272.075C288.156 273.599 288.335 274.278 286.512 275.766C285.321 276.87 283.857 277.635 282.27 277.981C280.829 278.22 280.531 277.779 278.029 277.612C277.462 277.571 276.893 277.559 276.325 277.577C275.23 277.591 274.136 277.663 273.049 277.791C271.775 277.917 270.513 278.136 269.272 278.446C275.658 275.195 276.504 270.276 273.847 269.109C273.847 269.109 281.401 263.381 275.741 260.034C275.741 260.034 284.891 249.15 274.562 252.556C273.703 252.85 272.886 253.254 272.131 253.758C271.81 253.961 271.44 254.211 271.023 254.473L269.796 251.353V251.341C272.215 248.054 273.835 244.731 270.63 244.576C269.413 244.543 268.224 244.94 267.27 245.696C266.532 246.256 265.471 247.042 264.137 247.947L261.432 245.16C260.815 244.156 260.435 243.023 260.324 241.849C260.275 240.554 260.495 239.263 260.971 238.058C261.447 236.853 262.168 235.759 263.088 234.847C264.786 233.049 266.959 231.769 269.355 231.155C271.235 230.428 273.264 230.175 275.265 230.417C275.598 230.476 275.956 230.548 276.325 230.643C277.493 230.917 278.696 231.322 279.316 231.524C280.369 232.002 281.491 232.315 282.64 232.453C284.141 232.524 284.558 232.072 285.213 232.453C286.035 232.906 285.904 233.858 286.512 236.133C287.119 238.384 287.62 240.289 288.907 240.742C289.872 241.075 290.396 240.289 291.492 240.742C292.207 241.039 292.207 241.468 293.327 242.588C294.316 243.564 294.816 244.052 295.543 244.243C296.236 244.401 296.96 244.344 297.62 244.081C298.28 243.817 298.844 243.358 299.236 242.766C299.379 242.516 299.641 241.992 299.415 239.825C299.141 237.086 299.01 235.716 298.128 234.847C297.056 233.787 296.222 234.561 293.696 233.739C290.801 232.798 291.015 231.488 287.798 230.238C285.642 229.404 285.07 229.797 283.378 228.761C282.008 227.928 280.269 226.379 280.602 225.439C280.972 224.438 283.354 225.212 284.296 223.783C285.034 222.676 284.01 221.592 284.844 220.091C285.332 219.234 286.345 218.412 287.06 218.627C287.846 218.853 287.548 220.127 288.537 221.759C289.453 223.154 290.82 224.192 292.409 224.7C293.613 225.141 295.102 225.689 296.281 224.891C297.33 224.188 297.914 222.58 297.39 221.759C296.71 220.699 294.649 221.604 294.065 220.651C293.969 220.423 293.921 220.177 293.923 219.929C293.925 219.682 293.977 219.437 294.077 219.21C294.231 218.683 294.513 218.201 294.897 217.809C295.282 217.416 295.757 217.124 296.281 216.959C296.889 216.864 297.509 217.09 301.083 220.091C301.274 220.258 301.464 220.413 301.631 220.556L301.643 220.568C303.537 222.176 303.883 222.533 304.586 222.497C304.819 222.482 305.048 222.43 305.265 222.342C305.642 222.184 305.988 221.963 306.29 221.687C307.132 220.866 307.804 219.887 308.267 218.805C308.875 217.4 308.637 216.828 309.006 216.59C309.864 216.042 312.926 217.876 316.143 221.175C317.044 222.666 317.856 224.209 318.573 225.796C320.911 230.869 322.308 236.325 322.696 241.897C322.731 242.433 322.755 242.981 322.779 243.528C322.791 244.064 322.803 244.612 322.803 245.16Z" fill="black"/>
<path d="M186.838 0C187.505 2.70903 188.017 5.45361 188.374 8.22059C188.767 10.9695 189.022 13.7287 189.249 16.4898C189.432 19.2543 189.586 22.0209 189.601 24.7978C189.655 27.5872 189.55 30.3775 189.285 33.1549C188.616 30.4464 188.102 27.7018 187.746 24.9346C187.354 22.1856 187.099 19.4264 186.874 16.665C186.694 13.9004 186.541 11.1337 186.526 8.35684C186.472 5.56758 186.576 2.7775 186.838 0V0Z" fill="black"/>
<path d="M204.017 35.4413C204.653 32.6175 205.442 29.8304 206.382 27.0926C207.281 24.354 208.308 21.6674 209.361 18.9909C210.455 16.331 211.577 13.6823 212.828 11.0854C214.048 8.46028 215.412 5.90447 216.914 3.42969C216.281 6.25439 215.493 9.04199 214.552 11.7798C213.653 14.5181 212.626 17.2047 211.57 19.8801C210.473 22.5389 209.352 25.1876 208.101 27.7842C206.88 30.409 205.517 32.9652 204.017 35.4413Z" fill="black"/>
<path d="M160.732 6.28809C162.207 8.51333 163.548 10.8238 164.75 13.2075C165.981 15.5612 167.083 17.9704 168.161 20.3904C169.199 22.8282 170.208 25.2779 171.091 27.7828C172.015 30.2872 172.788 32.8447 173.407 35.4415C171.929 33.2177 170.587 30.9076 169.385 28.5235C168.155 26.1695 167.053 23.7603 165.977 21.3391C164.943 18.9002 163.933 16.4506 163.051 13.9454C162.128 11.4409 161.353 8.884 160.732 6.28809V6.28809Z" fill="black"/>
<path d="M49.7696 199.898C48.7037 199.627 47.6188 199.437 46.5241 199.331C46.006 199.265 45.4798 199.317 44.985 199.484C44.5165 199.654 44.6642 200.168 44.9235 200.616C45.5285 201.509 46.2528 202.316 47.0763 203.013C47.8794 203.752 48.7309 204.455 49.5958 205.115C49.6736 205.174 49.7247 205.262 49.7377 205.359C49.7507 205.456 49.7247 205.554 49.6653 205.632C49.6252 205.683 49.5728 205.723 49.5129 205.748C49.4531 205.772 49.3878 205.782 49.3234 205.774C47.0694 205.524 44.9457 204.591 43.2371 203.1C42.3711 202.353 41.6523 201.45 41.1176 200.439C40.8353 199.914 40.6338 199.35 40.52 198.765C40.4539 198.425 40.4609 198.075 40.5404 197.738C40.5989 197.522 40.7057 197.322 40.8527 197.153C40.8982 197.07 40.9407 197.043 41.0086 196.914C42.003 195.105 42.8512 193.06 43.7145 191.098L46.2496 185.13C47.0997 183.136 47.9608 181.166 48.6897 179.147C49.4397 177.129 50.0485 175.084 50.7535 173.021L52.8209 166.85C53.5239 164.799 54.3852 162.803 55.1589 160.779C58.2554 152.668 62.2205 144.915 66.985 137.655C69.3908 134.013 72.2305 130.676 75.4418 127.719C75.8473 127.351 76.2424 126.972 76.6571 126.614L77.9566 125.603C78.8184 124.919 79.7211 124.287 80.6599 123.712C82.5447 122.481 84.628 121.585 86.818 121.062L86.696 121.091C90.4193 119.983 94.26 119.316 98.1392 119.103C101.976 118.791 105.819 118.692 109.655 118.688C113.491 118.69 117.325 118.764 121.155 118.912C124.985 119.093 128.806 119.323 132.632 119.635L132.23 119.771C133.711 118.256 135.076 116.632 136.314 114.912L138.226 112.32C138.838 111.371 139.641 110.561 140.583 109.94C142.541 108.825 144.844 108.477 147.044 108.964C149.194 109.349 151.242 110.171 153.061 111.378C153.068 111.383 153.075 111.389 153.08 111.396C153.084 111.403 153.088 111.411 153.09 111.42C153.091 111.428 153.091 111.437 153.09 111.446C153.088 111.454 153.085 111.462 153.08 111.47C153.07 111.484 153.054 111.493 153.037 111.497C153.02 111.5 153.002 111.497 152.987 111.488C151.148 110.391 149.104 109.682 146.981 109.403C144.909 109.052 142.779 109.451 140.975 110.529C140.131 111.126 139.422 111.895 138.895 112.785L137.059 115.456C135.838 117.277 134.464 118.99 132.952 120.577C132.904 120.624 132.847 120.661 132.784 120.685C132.721 120.709 132.653 120.719 132.586 120.715L132.55 120.713C128.745 120.481 124.923 120.329 121.108 120.226C117.292 120.106 113.475 120.043 109.661 120.061C105.846 120.071 102.038 120.228 98.2443 120.465C94.4737 120.628 90.735 121.229 87.1038 122.258L87.0234 122.279L86.9813 122.287C84.9546 122.779 83.0176 123.585 81.2408 124.677C80.3195 125.21 79.4319 125.799 78.5829 126.441L77.295 127.392C76.8822 127.73 76.4874 128.092 76.0823 128.442C75.257 129.125 74.4719 129.856 73.7312 130.63C72.9944 131.409 72.2088 132.145 71.5098 132.961C70.1415 134.618 68.7098 136.23 67.508 138.024C62.5561 145.113 58.5713 152.83 55.6587 160.972C54.9536 163.015 54.1623 165.025 53.5291 167.091L51.668 173.297C51.0332 175.349 50.4946 177.482 49.7368 179.524C49.0156 181.585 48.162 183.592 47.3351 185.588C46.5111 187.591 45.6263 189.569 44.7494 191.552C43.8424 193.537 43.0165 195.496 41.9 197.468C41.8085 197.617 41.7048 197.759 41.59 197.892C41.5976 197.959 41.5414 197.914 41.5401 198.022C41.501 198.214 41.4998 198.411 41.5365 198.603C41.6275 199.082 41.7888 199.545 42.0151 199.977C42.489 200.888 43.1164 201.711 43.8695 202.409C45.407 203.83 47.3422 204.749 49.4161 205.041L49.1438 205.7C48.2715 204.991 47.438 204.259 46.6366 203.476C45.8045 202.703 45.0871 201.815 44.5061 200.839C44.3562 200.564 44.2675 200.261 44.2461 199.948C44.2465 199.77 44.3019 199.596 44.4046 199.45C44.5073 199.304 44.6525 199.193 44.8203 199.133C45.3812 198.961 45.9748 198.926 46.5521 199.029C47.6534 199.193 48.7406 199.44 49.8042 199.77C49.8126 199.772 49.8204 199.776 49.8272 199.782C49.834 199.787 49.8396 199.794 49.8438 199.802C49.848 199.809 49.8507 199.818 49.8517 199.826C49.8526 199.835 49.8519 199.844 49.8495 199.852C49.8445 199.868 49.8335 199.882 49.8186 199.891C49.8038 199.899 49.7862 199.902 49.7696 199.898Z" fill="black"/>
<path d="M277.288 257.788C277.812 257.011 278.28 256.198 278.689 255.355C278.89 254.94 279.05 254.507 279.167 254.061C279.305 253.651 279.312 253.208 279.189 252.793C279.105 252.613 278.971 252.46 278.804 252.352C278.636 252.244 278.442 252.186 278.243 252.184C277.799 252.133 277.35 252.147 276.91 252.226C276.001 252.391 275.11 252.644 274.249 252.98C273.397 253.341 272.588 253.796 271.838 254.338C271.053 254.865 270.25 255.372 269.438 255.865C268.623 256.354 267.8 256.832 266.944 257.265C266.079 257.74 265.155 258.098 264.195 258.33C264.107 258.348 264.014 258.337 263.932 258.3C263.849 258.262 263.781 258.199 263.737 258.12C263.693 258.04 263.675 257.949 263.686 257.859C263.697 257.769 263.736 257.685 263.798 257.619L263.818 257.598C265.804 255.53 267.656 253.337 269.362 251.032L269.256 251.353L269.256 251.341C269.254 251.231 269.288 251.123 269.352 251.033L269.36 251.022C269.889 250.278 270.394 249.519 270.837 248.742C271.288 248.017 271.611 247.22 271.794 246.385C271.906 245.573 271.645 245.327 270.82 245.21C270.012 245.141 269.202 245.306 268.486 245.685C268.111 245.882 267.758 246.118 267.431 246.387C267.059 246.679 266.681 246.953 266.302 247.223C265.54 247.762 264.799 248.327 264.018 248.844C262.467 249.889 260.882 250.882 259.249 251.801C255.983 253.685 252.503 255.171 248.883 256.227C247.039 256.735 245.148 257.055 243.24 257.182C241.293 257.284 239.343 257.09 237.454 256.608C237.312 256.57 237.182 256.498 237.075 256.397C236.969 256.297 236.888 256.171 236.842 256.032C236.796 255.893 236.785 255.744 236.81 255.6C236.836 255.455 236.896 255.319 236.987 255.204L237.001 255.187L241.525 249.523L243.747 246.735C243.843 246.599 243.907 246.443 243.933 246.278C243.96 246.113 243.949 245.945 243.901 245.785C243.858 245.634 243.782 245.496 243.676 245.38C243.613 245.314 243.543 245.253 243.469 245.199C243.407 245.154 243.341 245.115 243.27 245.085C243.095 245.015 242.907 244.983 242.719 244.992C242.484 244.982 242.149 244.986 241.876 244.991C241.3 245.005 240.726 245.047 240.156 245.113C239.01 245.242 237.881 245.491 236.787 245.855C236.241 246.046 235.704 246.211 235.148 246.42C234.618 246.63 234.097 246.869 233.587 247.132L230.395 248.85C230.264 248.921 230.118 248.958 229.969 248.959L229.943 248.959H229.931L230.378 248.853C224.371 251.852 218.309 254.5 212.592 257.803L210.441 259.056C208.182 260.375 205.716 261.304 203.148 261.805C201.445 262.148 199.712 262.316 197.975 262.307C196.212 262.294 194.569 262.085 192.914 261.964L173.016 260.3L153.126 258.554C139.865 257.408 126.603 256.24 113.336 255.225L108.362 254.898C107.529 254.842 106.71 254.815 105.893 254.792C105.4 254.801 104.912 254.687 104.474 254.461C104.058 254.222 103.699 253.895 103.424 253.502C102.511 252.026 101.916 250.376 101.676 248.658C101.382 247.004 101.181 245.335 101.076 243.658C100.737 236.991 100.855 230.308 101.428 223.657L101.689 224.039C97.1086 222.631 92.5321 221.185 88.0828 219.388C83.615 217.638 79.2393 215.662 74.9728 213.467C70.7083 211.27 66.5531 208.864 62.4304 206.45C58.3061 204.061 54.1446 201.666 49.6255 200.435L50.4092 199.841C50.4182 213.017 50.6968 226.192 51.2452 239.367C51.5314 245.947 51.8968 252.525 52.4361 259.081C52.5527 260.722 52.7167 262.357 52.8704 263.993C53.0143 265.631 53.1849 267.264 53.3823 268.893C53.5707 270.527 53.7169 272.169 54.0185 273.71C54.3111 275.27 54.7445 276.799 55.3134 278.281C57.6713 284.236 61.9467 289.236 67.4644 292.491C70.1998 294.138 73.1555 295.387 76.2428 296.202C77.7866 296.613 79.3558 296.922 80.9401 297.127C82.5352 297.323 84.1988 297.454 85.8247 297.621L90.7292 298.091L95.6457 298.409C98.921 298.664 102.205 298.735 105.487 298.868C108.768 299.018 112.054 298.958 115.337 299.013C118.62 298.933 121.907 298.944 125.187 298.768C138.32 298.233 151.399 296.76 164.322 294.36C170.773 293.163 177.261 291.798 183.789 290.713C190.316 289.608 196.857 288.682 203.402 287.795C216.488 286.004 229.599 284.483 242.688 282.85C249.227 282.013 255.779 281.193 262.244 280.033L264.649 279.548C265.453 279.389 266.199 279.127 266.98 278.924C267.726 278.631 268.465 278.308 269.197 277.973C269.914 277.609 270.606 277.197 271.268 276.74C272.592 275.857 273.68 274.664 274.437 273.264C274.799 272.591 274.962 271.828 274.905 271.065C274.872 270.707 274.746 270.362 274.54 270.067C274.334 269.771 274.054 269.534 273.728 269.38C273.684 269.36 273.645 269.329 273.616 269.29C273.586 269.251 273.567 269.206 273.559 269.158C273.551 269.11 273.555 269.06 273.57 269.014C273.586 268.968 273.613 268.926 273.648 268.893L273.667 268.875C274.381 268.286 275.062 267.658 275.707 266.995C276.334 266.321 276.855 265.555 277.251 264.724C277.456 264.327 277.58 263.893 277.616 263.448C277.653 263.004 277.601 262.556 277.464 262.131C277.101 261.293 276.467 260.601 275.664 260.167C275.647 260.156 275.631 260.143 275.619 260.126C275.607 260.11 275.598 260.091 275.594 260.072C275.589 260.052 275.588 260.031 275.591 260.011C275.594 259.991 275.601 259.972 275.611 259.955L275.624 259.936L277.288 257.787L277.294 257.78C277.313 257.755 277.341 257.739 277.372 257.735C277.403 257.731 277.434 257.739 277.459 257.758C277.484 257.777 277.501 257.804 277.506 257.835C277.51 257.866 277.502 257.898 277.484 257.923L275.859 260.133L275.819 259.902C276.702 260.355 277.405 261.092 277.816 261.994C277.983 262.465 278.056 262.965 278.03 263.463C278.003 263.962 277.879 264.451 277.663 264.902C277.269 265.788 276.741 266.61 276.099 267.337C275.447 268.044 274.755 268.714 274.028 269.343L273.966 268.839C274.393 269.029 274.764 269.326 275.041 269.701C275.319 270.076 275.496 270.517 275.553 270.981C275.648 271.87 275.485 272.767 275.085 273.567C274.31 275.104 273.169 276.426 271.762 277.419C271.079 277.917 270.363 278.369 269.618 278.769C268.863 279.141 268.095 279.5 267.317 279.827C266.509 280.064 265.698 280.364 264.887 280.545L262.453 281.097C255.949 282.38 249.413 283.312 242.879 284.264L203.679 289.761C197.157 290.716 190.64 291.71 184.166 292.877C180.924 293.422 177.703 294.121 174.477 294.747C171.253 295.412 168.013 296.103 164.758 296.707C151.728 299.157 138.538 300.673 125.291 301.243C112.043 301.841 98.7687 301.439 85.5808 300.043C83.9261 299.863 82.2998 299.728 80.622 299.511C78.935 299.282 77.2649 298.943 75.6225 298.495C72.3249 297.604 69.171 296.248 66.2555 294.468C60.3284 290.918 55.7537 285.496 53.2542 279.057C52.6498 277.454 52.1916 275.8 51.8851 274.114C51.5672 272.415 51.4304 270.766 51.2555 269.123C51.0759 267.476 50.925 265.827 50.803 264.178C50.6695 262.529 50.5258 260.88 50.4298 259.23C49.9726 252.633 49.6913 246.032 49.4893 239.432C49.0913 226.23 48.9833 213.028 49.1652 199.828L49.1653 199.815C49.1664 199.735 49.1833 199.655 49.215 199.581C49.2468 199.507 49.2929 199.44 49.3506 199.384C49.4083 199.328 49.4766 199.283 49.5514 199.253C49.6263 199.224 49.7063 199.209 49.7869 199.21C49.8418 199.211 49.8963 199.219 49.9491 199.234C54.6816 200.598 58.8633 203.102 62.9624 205.548C67.0661 208.013 71.1424 210.491 75.3771 212.689C79.6072 214.892 83.947 216.879 88.3794 218.641C92.7949 220.45 97.3427 221.912 101.897 223.337C101.977 223.362 102.047 223.414 102.094 223.483C102.141 223.552 102.164 223.636 102.158 223.72C101.588 230.33 101.502 236.974 101.9 243.597C102.015 245.241 102.222 246.876 102.521 248.497C102.751 250.079 103.301 251.599 104.137 252.963C104.338 253.252 104.601 253.494 104.907 253.67C105.211 253.824 105.55 253.897 105.89 253.882C106.737 253.899 107.581 253.922 108.409 253.973L113.4 254.252C126.696 255.044 139.975 255.979 153.256 256.912L173.174 258.341L193.082 259.902C194.746 260.017 196.413 260.212 197.981 260.211C199.574 260.212 201.164 260.049 202.724 259.727C204.281 259.405 205.8 258.922 207.257 258.286C207.984 257.968 208.693 257.611 209.382 257.217L211.552 255.972C217.392 252.648 223.568 249.997 229.484 247.089L229.498 247.082C229.633 247.016 229.781 246.982 229.932 246.982H229.943L229.491 247.091L232.697 245.393C233.263 245.106 233.843 244.844 234.439 244.612C235.016 244.399 235.635 244.207 236.231 244.006C237.437 243.617 238.679 243.353 239.939 243.218C240.57 243.149 241.203 243.107 241.836 243.097C242.166 243.093 242.437 243.088 242.806 243.104C243.224 243.108 243.637 243.194 244.021 243.358C244.228 243.448 244.424 243.563 244.604 243.7C244.773 243.826 244.929 243.967 245.071 244.122C245.372 244.457 245.59 244.858 245.708 245.293C245.825 245.717 245.847 246.161 245.772 246.594C245.697 247.028 245.527 247.439 245.274 247.799L242.961 250.669L238.398 256.308L237.945 254.887C239.647 255.331 241.404 255.527 243.162 255.469C244.953 255.376 246.729 255.103 248.465 254.654C251.978 253.687 255.363 252.302 258.547 250.531C260.155 249.659 261.726 248.709 263.261 247.71C264.033 247.217 264.774 246.669 265.532 246.152C265.911 245.891 266.286 245.628 266.647 245.354C267.042 245.042 267.467 244.771 267.916 244.544C268.857 244.068 269.915 243.875 270.963 243.987C271.586 244.03 272.17 244.31 272.593 244.77C272.781 245.024 272.912 245.316 272.977 245.626C273.041 245.936 273.039 246.256 272.968 246.565C272.753 247.542 272.367 248.473 271.827 249.316C271.339 250.126 270.807 250.908 270.233 251.66L270.337 251.341L270.337 251.353L270.337 251.369C270.336 251.479 270.299 251.587 270.231 251.674C268.44 253.974 266.504 256.157 264.433 258.208L264.055 257.476C265.824 256.97 267.512 256.217 269.071 255.24C269.884 254.772 270.691 254.292 271.486 253.785C272.283 253.241 273.139 252.789 274.037 252.435C274.944 252.105 275.882 251.864 276.836 251.716C277.33 251.645 277.831 251.646 278.323 251.721C278.598 251.744 278.861 251.842 279.083 252.005C279.306 252.167 279.479 252.388 279.584 252.642C279.726 253.14 279.708 253.671 279.531 254.158C279.393 254.622 279.211 255.071 278.987 255.499C278.544 256.342 278.042 257.152 277.484 257.923C277.466 257.948 277.438 257.965 277.407 257.971C277.377 257.976 277.345 257.969 277.319 257.952C277.293 257.934 277.276 257.907 277.27 257.876C277.264 257.845 277.27 257.814 277.288 257.788V257.788Z" fill="black"/>
<path d="M264.5 258.449C262.702 259.502 260.889 260.473 259.024 261.365C257.178 262.288 255.246 263.025 253.254 263.565C255.16 262.821 256.986 261.889 258.707 260.783C260.44 259.712 262.135 258.554 263.76 257.35L263.769 257.343C263.91 257.239 264.087 257.195 264.261 257.221C264.435 257.247 264.592 257.341 264.697 257.482C264.801 257.623 264.846 257.8 264.82 257.974C264.794 258.148 264.7 258.305 264.559 258.41C264.54 258.424 264.52 258.437 264.5 258.449V258.449Z" fill="black"/>
<path d="M276.135 260.573C273.055 262.667 269.937 264.675 266.74 266.57C265.139 267.51 263.526 268.434 261.859 269.257C261.031 269.681 260.182 270.063 259.316 270.4C258.887 270.581 258.445 270.729 257.994 270.842C257.548 270.972 257.087 271.043 256.622 271.054C257.082 271.016 257.536 270.918 257.971 270.763C258.41 270.624 258.839 270.452 259.252 270.248C260.09 269.862 260.908 269.434 261.702 268.965C263.306 268.051 264.853 267.038 266.386 266.01C269.445 263.942 272.434 261.754 275.352 259.505L275.358 259.5C275.497 259.393 275.673 259.345 275.847 259.368C276.022 259.391 276.18 259.481 276.288 259.621C276.395 259.76 276.443 259.936 276.42 260.11C276.397 260.284 276.307 260.443 276.167 260.55L276.135 260.573Z" fill="black"/>
<path d="M274.274 269.621C273.072 270.5 271.811 271.293 270.499 271.996C269.207 272.702 267.876 273.332 266.511 273.882C263.802 274.995 260.968 275.774 258.071 276.202C260.902 275.563 263.645 274.581 266.238 273.279C267.53 272.64 268.783 271.926 269.991 271.142C271.192 270.376 272.339 269.529 273.424 268.606L273.444 268.588C273.51 268.53 273.587 268.486 273.669 268.458C273.752 268.431 273.84 268.419 273.927 268.425C274.014 268.431 274.099 268.455 274.177 268.494C274.255 268.533 274.325 268.587 274.382 268.653C274.44 268.719 274.483 268.795 274.511 268.878C274.538 268.961 274.549 269.049 274.543 269.136C274.536 269.223 274.513 269.308 274.473 269.386C274.434 269.464 274.38 269.533 274.313 269.59C274.301 269.601 274.287 269.612 274.274 269.621Z" fill="black"/>
<path d="M242.047 219.841C241.949 219.841 241.852 219.816 241.765 219.77C241.679 219.723 241.605 219.656 241.55 219.574L236.407 211.808C236.363 211.743 236.333 211.67 236.318 211.593C236.303 211.516 236.304 211.437 236.319 211.36C236.335 211.284 236.365 211.211 236.409 211.146C236.453 211.081 236.509 211.025 236.574 210.982C236.639 210.939 236.712 210.909 236.789 210.894C236.866 210.879 236.945 210.879 237.022 210.895C237.099 210.91 237.172 210.941 237.236 210.985C237.301 211.028 237.357 211.084 237.4 211.15L242.544 218.916C242.631 219.048 242.662 219.209 242.631 219.364C242.6 219.518 242.508 219.654 242.377 219.742C242.279 219.807 242.164 219.841 242.047 219.841V219.841Z" fill="black"/>
<path d="M268.532 200.429C268.434 200.429 268.337 200.405 268.25 200.358C268.163 200.312 268.09 200.245 268.035 200.163L262.89 192.396C262.847 192.331 262.817 192.258 262.802 192.181C262.787 192.104 262.787 192.025 262.803 191.949C262.818 191.872 262.849 191.799 262.893 191.734C262.936 191.669 262.993 191.614 263.058 191.571C263.123 191.527 263.196 191.497 263.273 191.482C263.35 191.467 263.429 191.468 263.506 191.483C263.582 191.499 263.655 191.529 263.72 191.573C263.785 191.617 263.841 191.673 263.884 191.738L269.029 199.505C269.088 199.594 269.123 199.699 269.128 199.806C269.133 199.914 269.108 200.021 269.057 200.116C269.006 200.21 268.931 200.29 268.838 200.345C268.746 200.4 268.64 200.429 268.532 200.429V200.429Z" fill="black"/>
</svg>
